<svg xmlns="http://www.w3.org/2000/svg" viewBox="0 0 204.756 38.207">
  <defs>
    <style>
      .cls-1 {
        fill: #336;
      }

      .cls-2 {
        fill: #707070;
      }

      .cls-3 {
        fill: #fff;
      }
    </style>
  </defs>
  <g id="Group_1482" data-name="Group 1482" transform="translate(-251.589 -360.793)">
    <path id="Path_1690" data-name="Path 1690" class="cls-1" d="M19.88-10.92A9.527,9.527,0,0,1,17.22-5.6a6.6,6.6,0,0,1-4.48,1.61h-.21a4.632,4.632,0,0,1-3.185-1,4.139,4.139,0,0,1-1.12-3.238,12.551,12.551,0,0,1,.315-2.59L11.1-22.75H6.44L3.85-10.57q-.14.735-.21,1.435T3.57-7.77a8.344,8.344,0,0,0,.683,3.535A7.507,7.507,0,0,0,5.967-1.82,6.6,6.6,0,0,0,8.242-.437,7.205,7.205,0,0,0,10.64,0h2.625A9.937,9.937,0,0,0,16.52-.6,10.857,10.857,0,0,0,19.793-2.45a12.73,12.73,0,0,0,2.782-3.237A14.9,14.9,0,0,0,24.4-10.43L27.02-22.75H22.4ZM25.41,0l.84-3.99h9.31a1.91,1.91,0,0,0,2.065-1.575,1.9,1.9,0,0,0-.228-.823,6.183,6.183,0,0,0-.4-.612v.035l-6.755-6.86a3.376,3.376,0,0,1-.875-1.522,6.2,6.2,0,0,1-.245-1.628q0-.28.017-.455t.052-.35v-.07a6.254,6.254,0,0,1,1.05-2.555,5.441,5.441,0,0,1,1.663-1.5,5.983,5.983,0,0,1,1.943-.7,11.347,11.347,0,0,1,1.925-.175h9.94l-.84,4.025h-9.1a2.743,2.743,0,0,0-1.295.333q-.63.332-.7.718l-.105.35.035-.1v.14a1.444,1.444,0,0,0,.263.735,6.841,6.841,0,0,0,.7.91q.438.49,1.015,1.068T36.89-13.44q.91.875,1.855,1.838a24.247,24.247,0,0,1,1.733,1.96,10.423,10.423,0,0,1,1.277,2.048,4.929,4.929,0,0,1,.49,2.1q0,.245-.017.438a3.482,3.482,0,0,1-.053.367,8,8,0,0,1-.63,1.715A5.971,5.971,0,0,1,40.478-1.47,5.114,5.114,0,0,1,38.972-.4,4.351,4.351,0,0,1,37.1,0ZM53.025-18.76,49.035,0h-4.62L49.28-22.75H60.025q3.29,0,4.795,1.435a5.2,5.2,0,0,1,1.5,3.955,9.331,9.331,0,0,1-.21,1.96,7.142,7.142,0,0,1-1.61,3.272,11.508,11.508,0,0,1-2.888,2.4,14.291,14.291,0,0,1-3.535,1.488,14.68,14.68,0,0,1-3.517.542l-.42-4.06A12.21,12.21,0,0,0,57-12.075a9.11,9.11,0,0,0,2.292-.858,5.428,5.428,0,0,0,1.575-1.26,3.561,3.561,0,0,0,.77-1.523v-.07a3.318,3.318,0,0,0,.1-.805,2.019,2.019,0,0,0-.263-1.085,2.157,2.157,0,0,0-.63-.665,2.282,2.282,0,0,0-.735-.333,2.623,2.623,0,0,0-.542-.087ZM65.415,0l.84-3.99h9.31A1.909,1.909,0,0,0,77.63-5.565a1.9,1.9,0,0,0-.228-.823A6.183,6.183,0,0,0,77-7v.035l-6.755-6.86a3.376,3.376,0,0,1-.875-1.522,6.2,6.2,0,0,1-.245-1.628q0-.28.018-.455t.052-.35v-.07a6.254,6.254,0,0,1,1.05-2.555,5.441,5.441,0,0,1,1.662-1.5,5.983,5.983,0,0,1,1.942-.7,11.347,11.347,0,0,1,1.925-.175h9.94l-.84,4.025h-9.1a2.743,2.743,0,0,0-1.3.333q-.63.332-.7.718l-.1.35.035-.1v.14a1.444,1.444,0,0,0,.263.735,6.841,6.841,0,0,0,.7.91q.437.49,1.015,1.068T76.9-13.44q.91.875,1.855,1.838a24.248,24.248,0,0,1,1.732,1.96A10.423,10.423,0,0,1,81.76-7.595a4.929,4.929,0,0,1,.49,2.1q0,.245-.018.438a3.482,3.482,0,0,1-.052.367,8,8,0,0,1-.63,1.715A5.971,5.971,0,0,1,80.482-1.47,5.114,5.114,0,0,1,78.978-.4a4.351,4.351,0,0,1-1.872.4Z" transform="translate(293 385)"/>
    <path id="Path_1691" data-name="Path 1691" class="cls-2" d="M24.78-12.18a10.949,10.949,0,0,0,.227-1.523q.053-.718.053-1.383a8.72,8.72,0,0,0-.63-3.482,6.871,6.871,0,0,0-1.645-2.38,6.511,6.511,0,0,0-2.275-1.365,7.74,7.74,0,0,0-2.555-.437H6.44L1.61,0H13.3a11.23,11.23,0,0,0,3.64-.6A9.732,9.732,0,0,0,20.16-2.45a11.465,11.465,0,0,0,2.555-3.237A17.5,17.5,0,0,0,24.4-10.43Zm-4.62,0-.28,1.26a10.733,10.733,0,0,1-1.138,3.168A8.108,8.108,0,0,1,17.01-5.6a6.278,6.278,0,0,1-2.17,1.225,8.022,8.022,0,0,1-2.485.385H7.035l3.15-14.77H15.68a6.986,6.986,0,0,1,1.89.245,4,4,0,0,1,1.505.77,3.639,3.639,0,0,1,1,1.365,5.05,5.05,0,0,1,.368,2.03,7.239,7.239,0,0,1-.07.892Q20.3-12.915,20.16-12.18ZM53.655-22.75,48.755,0H44.17l2.765-13.02L38.955,0H35.6L32.97-13.58,30.065,0h-4.62L30.31-22.75h5.46L38.78-7.84l8.89-14.91ZM52.045,0l.84-3.99h9.31A1.91,1.91,0,0,0,64.26-5.565a1.9,1.9,0,0,0-.228-.823A6.183,6.183,0,0,0,63.63-7v.035l-6.755-6.86A3.376,3.376,0,0,1,56-15.347a6.2,6.2,0,0,1-.245-1.628q0-.28.018-.455t.052-.35v-.07a6.254,6.254,0,0,1,1.05-2.555,5.441,5.441,0,0,1,1.663-1.5,5.983,5.983,0,0,1,1.943-.7,11.347,11.347,0,0,1,1.925-.175h9.94l-.84,4.025H62.4a2.743,2.743,0,0,0-1.295.333q-.63.332-.7.718l-.105.35.035-.1v.14a1.444,1.444,0,0,0,.263.735,6.841,6.841,0,0,0,.7.91q.438.49,1.015,1.068t1.208,1.172q.91.875,1.855,1.838a24.248,24.248,0,0,1,1.732,1.96A10.423,10.423,0,0,1,68.39-7.595a4.929,4.929,0,0,1,.49,2.1q0,.245-.018.438a3.48,3.48,0,0,1-.053.367,8,8,0,0,1-.63,1.715A5.971,5.971,0,0,1,67.113-1.47,5.114,5.114,0,0,1,65.607-.4a4.351,4.351,0,0,1-1.872.4Z" transform="translate(384 385)"/>
    <path id="Path_1689" data-name="Path 1689" class="cls-2" d="M9.062-4.454a4,4,0,0,0,.083-.557q.019-.262.019-.506a3.189,3.189,0,0,0-.23-1.274,2.513,2.513,0,0,0-.6-.87,2.381,2.381,0,0,0-.832-.5,2.831,2.831,0,0,0-.934-.16H2.355L.589,0H4.864A4.107,4.107,0,0,0,6.2-.218,3.559,3.559,0,0,0,7.373-.9,4.193,4.193,0,0,0,8.307-2.08a6.4,6.4,0,0,0,.614-1.734Zm-1.69,0-.1.461a3.925,3.925,0,0,1-.416,1.158,2.965,2.965,0,0,1-.634.787,2.3,2.3,0,0,1-.794.448,2.934,2.934,0,0,1-.909.141H2.573l1.152-5.4h2.01a2.555,2.555,0,0,1,.691.09,1.464,1.464,0,0,1,.55.282,1.331,1.331,0,0,1,.365.5,1.847,1.847,0,0,1,.134.742,2.648,2.648,0,0,1-.026.326Q7.424-4.723,7.373-4.454Zm7.962.922.5-1.446h-3.8l.4-1.882h4.147l.486-1.459h-6L9.293,0h5.824L15.6-1.459H11.29l.435-2.074ZM19.891-8.32H18.227L16.474,0h5.76l.5-1.459H18.445Zm11.968,0H25.382l-.32,1.459h2.394L26.3-1.459H23.91L23.59,0h6.49l.307-1.459H27.994l1.152-5.4h2.406ZM33.83,0l-1.2-8.32h1.8l.678,5.44L38.4-8.32h1.946L35.174,0ZM45.363-3.533l.5-1.446h-3.8l.4-1.882H46.6l.486-1.459h-6L39.322,0h5.824l.486-1.459H41.318l.435-2.074ZM46.5,0l1.779-8.32h3.93a2.922,2.922,0,0,1,1.722.429,1.639,1.639,0,0,1,.6,1.427q0,.218-.019.416t-.045.378a3.119,3.119,0,0,1-.333.909,3.11,3.11,0,0,1-.557.723,3.87,3.87,0,0,1-.717.544,3.714,3.714,0,0,1-.813.358L53.453,0h-1.7L49.958-4.16a1.26,1.26,0,0,1,.269-.166.567.567,0,0,1,.179-.026,3.352,3.352,0,0,0,1.536-.32A1.7,1.7,0,0,0,52.8-5.76v-.013a1.214,1.214,0,0,0,.038-.294.739.739,0,0,0-.1-.4.789.789,0,0,0-.23-.243.835.835,0,0,0-.269-.122.959.959,0,0,0-.2-.032H49.651L48.192,0ZM58.176,0l.666-3.2,4.25-5.12H61.107L58.342-4.966,56.986-8.32h-1.83l2.022,5.094L56.5,0Zm19.8-8.32L76.186,0H74.509L75.52-4.762,72.6,0H71.373l-.96-4.966L69.35,0h-1.69L69.44-8.32h2l1.1,5.453L75.789-8.32ZM76.966,0h1.779l3.443-6.285.768,4.838h-2.5L79.667,0h4.89q.026,0,.134-.128a.467.467,0,0,0,.122-.23V-.538L83.533-8.32H81.446ZM94.349-8.32H92.672L91.456-2.662l-2.3-5.658h-1.8L85.581,0h1.677l1.165-5.478L90.739,0h1.843ZM93.35,0H95.13l3.443-6.285.768,4.838h-2.5L96.051,0h4.89q.026,0,.134-.128a.467.467,0,0,0,.122-.23V-.538L99.917-8.32H97.83Zm10.432-3.11a1.543,1.543,0,0,0,.474,1.261,1.889,1.889,0,0,0,1.242.39h1.882l.41-1.907h-1.894l.55-1.446h2.342a.661.661,0,0,1,.589.262,1.031,1.031,0,0,1,.179.6,1.265,1.265,0,0,1-.013.218.052.052,0,0,0-.013.038v.013L108.966-1a1.357,1.357,0,0,1-.4.7.975.975,0,0,1-.691.294h-3.162a2.981,2.981,0,0,1-.96-.16,2.314,2.314,0,0,1-.845-.506,2.672,2.672,0,0,1-.608-.87,3.033,3.033,0,0,1-.237-1.254,4.707,4.707,0,0,1,.032-.544,4.683,4.683,0,0,1,.1-.544v.013l.141-.64A5.547,5.547,0,0,1,103-6.24a4.687,4.687,0,0,1,1-1.184,3.833,3.833,0,0,1,1.178-.678,3.612,3.612,0,0,1,1.2-.218h3.494l-.307,1.459H106.7a2.985,2.985,0,0,0-.87.128,2.317,2.317,0,0,0-.787.422,2.771,2.771,0,0,0-.64.762,3.754,3.754,0,0,0-.416,1.146l-.1.448q-.051.256-.077.461A3.105,3.105,0,0,0,103.782-3.11Zm12.211-.422.5-1.446h-3.8l.4-1.882h4.147l.486-1.459h-6L109.952,0h5.824l.486-1.459h-4.314l.435-2.074ZM127.462-8.32,125.67,0h-1.677L125-4.762,122.086,0h-1.229l-.96-4.966L118.835,0h-1.69l1.779-8.32h2l1.1,5.453,3.251-5.453Zm5.453,4.787.5-1.446h-3.8l.4-1.882h4.147l.486-1.459h-6L126.874,0H132.7l.486-1.459H128.87l.435-2.074Zm9.92-4.787h-1.677l-1.216,5.658-2.3-5.658h-1.8L134.067,0h1.677l1.165-5.478L139.226,0h1.843Zm8,0h-6.81l-.307,1.459h2.573L144.832,0h1.677l1.446-6.861h2.573ZM155.891,0l.307-1.459h3.4a.7.7,0,0,0,.755-.576.693.693,0,0,0-.083-.3,2.263,2.263,0,0,0-.147-.224v.013l-2.47-2.509a1.235,1.235,0,0,1-.32-.557,2.266,2.266,0,0,1-.09-.6q0-.1.006-.166t.019-.128v-.026a2.287,2.287,0,0,1,.384-.934,1.99,1.99,0,0,1,.608-.55,2.188,2.188,0,0,1,.71-.256,4.15,4.15,0,0,1,.7-.064h3.635l-.307,1.472H159.68a1,1,0,0,0-.474.122q-.23.122-.256.262l-.038.128.013-.038v.051a.528.528,0,0,0,.1.269,2.5,2.5,0,0,0,.256.333q.16.179.371.39t.442.429q.333.32.678.672a8.869,8.869,0,0,1,.634.717,3.811,3.811,0,0,1,.467.749,1.8,1.8,0,0,1,.179.768q0,.09-.006.16a1.272,1.272,0,0,1-.019.134,2.927,2.927,0,0,1-.23.627,2.184,2.184,0,0,1-.39.55,1.87,1.87,0,0,1-.55.39,1.591,1.591,0,0,1-.685.147Zm11.29,0,.666-3.2,4.25-5.12h-1.984l-2.765,3.354L165.99-8.32h-1.83l2.022,5.094L165.5,0Zm3.853,0,.307-1.459h3.4a.7.7,0,0,0,.755-.576.693.693,0,0,0-.083-.3,2.263,2.263,0,0,0-.147-.224v.013L172.8-5.056a1.235,1.235,0,0,1-.32-.557,2.266,2.266,0,0,1-.09-.6q0-.1.006-.166t.019-.128v-.026a2.287,2.287,0,0,1,.384-.934,1.99,1.99,0,0,1,.608-.55,2.188,2.188,0,0,1,.71-.256,4.15,4.15,0,0,1,.7-.064h3.635l-.307,1.472h-3.328a1,1,0,0,0-.474.122q-.23.122-.256.262l-.038.128.013-.038v.051a.528.528,0,0,0,.1.269,2.5,2.5,0,0,0,.256.333q.16.179.371.39t.442.429q.333.32.678.672a8.869,8.869,0,0,1,.634.717,3.811,3.811,0,0,1,.467.749,1.8,1.8,0,0,1,.179.768q0,.09-.006.16a1.272,1.272,0,0,1-.019.134,2.927,2.927,0,0,1-.23.627,2.184,2.184,0,0,1-.39.55,1.87,1.87,0,0,1-.55.39,1.591,1.591,0,0,1-.685.147ZM186.56-8.32h-6.81l-.307,1.459h2.573L180.557,0h1.677l1.446-6.861h2.573Zm5.478,4.787.5-1.446h-3.8l.4-1.882h4.147l.486-1.459h-6L186,0h5.824l.486-1.459h-4.314l.435-2.074ZM203.507-8.32,201.715,0h-1.677l1.011-4.762L198.131,0H196.9l-.96-4.966L194.88,0h-1.69l1.779-8.32h2l1.1,5.453,3.251-5.453Z" transform="translate(251 399)"/>
    <path id="Path_1692" data-name="Path 1692" class="cls-2" d="M.42-3.56A3.791,3.791,0,0,1,.876-5.391,3.419,3.419,0,0,1,2.141-6.721a3.328,3.328,0,0,1,1.746-.486,3.328,3.328,0,0,1,1.746.486A3.419,3.419,0,0,1,6.9-5.391,3.791,3.791,0,0,1,7.354-3.56,3.776,3.776,0,0,1,6.89-1.716,3.461,3.461,0,0,1,5.623-.386,3.307,3.307,0,0,1,3.887.1,3.3,3.3,0,0,1,2.141-.391,3.466,3.466,0,0,1,.879-1.724,3.784,3.784,0,0,1,.42-3.56Zm6.333,0a3.185,3.185,0,0,0-.366-1.506A2.861,2.861,0,0,0,5.352-6.179,2.713,2.713,0,0,0,3.887-6.6a2.752,2.752,0,0,0-1.443.4A2.837,2.837,0,0,0,1.4-5.093,3.168,3.168,0,0,0,1.016-3.56a3.184,3.184,0,0,0,.378,1.533A2.872,2.872,0,0,0,2.439-.916a2.723,2.723,0,0,0,1.448.408A2.712,2.712,0,0,0,5.339-.923,2.86,2.86,0,0,0,6.382-2.041,3.2,3.2,0,0,0,6.753-3.56Zm-3.569.371v1.646H2.446v-4.15H3.818a1.831,1.831,0,0,1,1.162.334,1.138,1.138,0,0,1,.425.95.934.934,0,0,1-.552.85.862.862,0,0,1,.417.422,1.663,1.663,0,0,1,.12.671q0,.4.017.566a.945.945,0,0,0,.066.278v.078H4.717a3.885,3.885,0,0,1-.063-.947.742.742,0,0,0-.161-.535.734.734,0,0,0-.537-.164Zm0-.654h.664A1.041,1.041,0,0,0,4.441-4a.475.475,0,0,0,.232-.41A.6.6,0,0,0,4.5-4.9a1.029,1.029,0,0,0-.627-.149H3.184Z" transform="translate(380 368)"/>
    <g id="Group_1481" data-name="Group 1481" transform="translate(-53.192 299)">
      <path id="Path_1688" data-name="Path 1688" class="cls-3" d="M310.665,61.514h36.472l-5.762,26.242h-36.4Z" transform="translate(1.298 1.244)"/>
      <g id="Group_1479" data-name="Group 1479" transform="translate(307.421 63.389)">
        <path id="Path_185" data-name="Path 185" class="cls-1" d="M10.455,6.9H45.39L40.047,31.937,8.4,31.766,39.259,19.812s3.425-5.412.514-6.3l-3.733-.069s0-.822-4.144-1.507Z" transform="translate(-5.523 -6.9)"/>
        <path id="Path_186" data-name="Path 186" class="cls-1" d="M3.9,24.5H26.2s3.494.514,3.22,1.336l3.733.343s1.507.514-.719,3.494l-.1.069.582-2.226-6.884.137,3.391-1.165-14.933-.343,2.4,6.816,7.124-2.569s4.076-1.815,7.227-1.4l.068.754a39.447,39.447,0,0,0-6.234,1.747s-11.611,4.8-12.947,5.549L0,43.235Z" transform="translate(0 -18.472)"/>
      </g>
    </g>
  </g>
</svg>
