<svg xmlns="http://www.w3.org/2000/svg" viewBox="0 0 453.931 166.21">
  <defs>
    <style>
      .cls-1, .cls-5, .cls-6, .cls-7 {
        fill: #0e4194;
      }

      .cls-1, .cls-6 {
        stroke: #fff;
      }

      .cls-1 {
        stroke-linecap: round;
        stroke-width: 9.32px;
      }

      .cls-1, .cls-2, .cls-3, .cls-4, .cls-7 {
        fill-rule: evenodd;
      }

      .cls-2 {
        fill: #5192c5;
      }

      .cls-3 {
        fill: #fff;
      }

      .cls-4 {
        fill: #be1e2d;
      }

      .cls-6 {
        stroke-width: 4.66px;
      }
    </style>
  </defs>
  <g id="Group_1" data-name="Group 1" transform="translate(-922.38 -435.23)">
    <path id="Path_1" data-name="Path 1" class="cls-1" d="M1004.64,268.98l-17.65,40.4-25.67-33.61Z" transform="translate(364 194)"/>
    <path id="Path_2" data-name="Path 2" class="cls-2" d="M724.49,410.16a80.31,80.31,0,1,0,80.3-80.3,80.312,80.312,0,0,0-80.3,80.3Z" transform="translate(269.58 110.96)"/>
    <path id="Path_3" data-name="Path 3" class="cls-3" d="M818.88,421.1a5.5,5.5,0,0,1-1,1.57c-.2,0-.29.15-.38.3a4.54,4.54,0,0,1-2.88.64,1.64,1.64,0,0,0-.93-.43c-.32-.08-.49-.34-.71-.54l-.14-.16-.14-.18-.17-.18h0a.56.56,0,0,0-.32-.58v-.08l-.15-.22a7.719,7.719,0,0,1,.2-2.53.36.36,0,0,0,.28-.43l.21-.26a.56.56,0,0,0,.32-.41h0a.58.58,0,0,0,.4-.32l.26-.2a1.43,1.43,0,0,0,.93-.46,7.181,7.181,0,0,1,2.31.17.42.42,0,0,0,.45.27.16.16,0,0,0,.12,0,.73.73,0,0,0,.54.49h0a.62.62,0,0,0,.35.46.1.1,0,0,0,.11.07c.05.27.06.57.36.73,0,.69.4,1.37,0,2.06v.05S818.88,421.06,818.88,421.1Z" transform="translate(269.58 110.96)"/>
    <path id="Path_4" data-name="Path 4" class="cls-4" d="M808.49,387.5v.28c0,.09,0,.38.17.5v1.35c-.18.12-.16.32-.16.5l-.22.57c-.33.16-.45.51-.69.74a3.91,3.91,0,0,1-4.12.53c0-.24-.15-.3-.35-.31l-.26-.21c-.06-.11-.1-.23-.25-.24a.8.8,0,0,0-.34-.41l-.52-1.15v-1.54c.2-.11.2-.3.18-.5a.17.17,0,0,0,0-.14l.15-.19a.08.08,0,0,0,0-.11,5.049,5.049,0,0,1,2.66-1.63l1.43.09c.17.15.33.32.58.28l.65.37.52.5.12.19C808.22,387.17,808.27,387.39,808.49,387.5Z" transform="translate(269.58 110.96)"/>
    <path id="Path_5" data-name="Path 5" class="cls-3" d="M783.38,423.17h-.16l-.17-.18c-.1-.17-.17-.35-.4-.37l-.23-.31-.08-.15c0-.05-.07-.12-.11-.18a3.431,3.431,0,0,1-.4-1c0-.23.06-.48-.17-.65v-.7c.29-.4.16-.91.4-1.33,0-.06.09-.12.13-.19s.14-.05.13-.15l.21-.33a.38.38,0,0,0,.36-.33l.31-.19.2-.14a3.33,3.33,0,0,1,3,0c0,.11.07.14.16.13.3.23.6.46.89.7a.39.39,0,0,0,.3.34c.07.17.14.33.22.5a1.67,1.67,0,0,0,.41.94c.12.68-.21,1.32-.16,2-.18.09-.31.21-.28.43a.321.321,0,0,0,0,.14,2.131,2.131,0,0,0-.69.8l-.48.27a.67.67,0,0,0-.52.28h0l-.27.14h-1.64l-.27-.13h-.23a.4.4,0,0,0-.46-.34Z" transform="translate(269.58 110.96)"/>
    <path id="Path_6" data-name="Path 6" class="cls-3" d="M781.84,398v-.17a.75.75,0,0,0,.21-.49h0a.38.38,0,0,0,.27-.38h.07v-.07l.44-.42h.06l.29-.22.17-.13a.371.371,0,0,0,.15,0,1.67,1.67,0,0,0,.93-.43h1.33a1.59,1.59,0,0,0,.93.44.37.37,0,0,0,.14,0,.4.4,0,0,0,.37.31l.17.18a.869.869,0,0,0,.47.54.21.21,0,0,0,0,.13c0,.14,0,.27.14.33s.08.22.13.34,0,.22.16.28v1.06a6.618,6.618,0,0,1-.92,2.13c-.1.11-.19.2-.28.31l-.23.22-.25.2a3.43,3.43,0,0,1-2.35.51l-1-.28c0-.22-.19-.25-.37-.25-.24-.22-.46-.44-.68-.66,0-.13,0-.26-.17-.3-.12-.29-.24-.58-.37-.87s0-.38-.15-.5v-1.18A.58.58,0,0,0,781.84,398Z" transform="translate(269.58 110.96)"/>
    <path id="Path_7" data-name="Path 7" class="cls-3" d="M812.51,428.34a.13.13,0,0,0,0-.12.45.45,0,0,0,.35-.31l.48-.38a3.72,3.72,0,0,1,3.18-.41,3.28,3.28,0,0,1,2,2.39v1.68a.34.34,0,0,0-.14.34,6.155,6.155,0,0,1-.86,1.21c-.1,0-.17,0-.18.12l-.66.39a.48.48,0,0,0-.42.25,3.663,3.663,0,0,0-.43.09l-.23.09h-1a2,2,0,0,0-1.1-.45c-.67-.55-1.48-1-1.54-2v-2a.55.55,0,0,0,.2-.43C812.4,428.67,812.54,428.56,812.51,428.34Z" transform="translate(269.58 110.96)"/>
    <path id="Path_8" data-name="Path 8" class="cls-3" d="M796.79,385.9a3.32,3.32,0,0,1,1.33,1.22.54.54,0,0,0,.31.41,5.9,5.9,0,0,0,.07.59v1.51c-.07.26-.15.51-.22.77-.16.08-.3.19-.28.4a.17.17,0,0,0,0,.13.73.73,0,0,0-.51.52h0a.67.67,0,0,0-.53.34,4.37,4.37,0,0,1-2.7.48.58.58,0,0,0-.61-.28.18.18,0,0,0-.13,0,.35.35,0,0,0-.39-.28l-.2-.21v-.06h-.07l-.26-.29-.1-.12h0a.53.53,0,0,0-.29-.43c-.07-.25-.15-.5-.22-.75v-1.52c.09-.29,0-.64.22-.9a2.842,2.842,0,0,1,.25-.24,1.262,1.262,0,0,1,.06-.18.39.39,0,0,0,.25-.33h.09l.15-.16h0a.58.58,0,0,0,.49-.33l.52-.22c.37-.15.81-.08,1.11-.41h.47a.47.47,0,0,0,.61.17l.35.08C796.51,385.9,796.64,385.91,796.79,385.9Z" transform="translate(269.58 110.96)"/>
    <path id="Path_9" data-name="Path 9" class="cls-3" d="M798.46,431.53a.08.08,0,0,0,0,.1c-.06.08-.11.16-.16.24-.23.28-.44.55-.66.84a.15.15,0,0,0-.17.16l-.66.38c-.37.13-.8.1-1.11.42h-.8a.33.33,0,0,0-.44-.16l-.36-.08a.28.28,0,0,0-.31-.19c-.15-.07-.29-.15-.43-.23a.57.57,0,0,0-.41-.31h0l-.16-.17h0a.44.44,0,0,0-.33-.35.32.32,0,0,0-.06-.15.566.566,0,0,0-.3-.48h0a.34.34,0,0,0-.14-.34,1.456,1.456,0,0,0-.06-.5v-1.18l.06-.58a1.08,1.08,0,0,0,.47-.75h0a.41.41,0,0,0,.29-.35l.21-.18,1.34-.68,1.59-.1a.37.37,0,0,0,.44.26l.61.23c.08.17.18.3.39.29l.21.19.27.26.2.24a.4.4,0,0,0,.3.42c.06.26.14.51.22.76Z" transform="translate(269.58 110.96)"/>
    <path id="Path_10" data-name="Path 10" class="cls-3" d="M772.78,397.66c.08-.19.15-.39.24-.59a.41.41,0,0,0,.31-.4,1.282,1.282,0,0,1,.16-.17.37.37,0,0,0,.37-.32l1.53-.66h.06l.06-.06c.46.07.93.15,1.4.21a.42.42,0,0,0,.43.28h.09a.66.66,0,0,0,.4.35.84.84,0,0,0,.36.45l.15.19a.4.4,0,0,0,0,.15c0,.14,0,.27.16.33a5,5,0,0,1,.12,2.59.41.41,0,0,0-.26.43,5.916,5.916,0,0,1-1.21,1.51,2.13,2.13,0,0,0-1,.49,4.809,4.809,0,0,1-1.81-.16c-.29-.18-.57-.38-.85-.57a3.14,3.14,0,0,1-.7-1.09.39.39,0,0,0-.23-.42v-.26c0-.09.12-.35-.08-.49v-.69a.24.24,0,0,0,.06-.35,2.844,2.844,0,0,1,.1-.49C772.67,397.76,772.81,397.81,772.78,397.66Z" transform="translate(269.58 110.96)"/>
    <path id="Path_11" data-name="Path 11" class="cls-3" d="M772.78,418.45a3.24,3.24,0,0,1,2.72-1.86l.76.05a1.38,1.38,0,0,0,.92.47,4.55,4.55,0,0,1,1.47,4.44c-.37.27-.42.74-.69,1.08l-.62.53a1.69,1.69,0,0,0-.91.46,4.78,4.78,0,0,1-1.6-.13.31.31,0,0,0-.36-.13h0l-.11-.11-.51-.24a.318.318,0,0,0-.32-.35.809.809,0,0,1-.16-.16.42.42,0,0,0-.32-.41c-.08-.2-.15-.39-.23-.58a.34.34,0,0,0-.22-.43,1.155,1.155,0,0,0-.05-.41,2.888,2.888,0,0,0,0-1.37,2.665,2.665,0,0,1,.08-.48C772.66,418.66,772.8,418.6,772.78,418.45Z" transform="translate(269.58 110.96)"/>
    <path id="Path_12" data-name="Path 12" class="cls-3" d="M802.67,381.38l-.31-.48a1.491,1.491,0,0,0-.37-.66q0-.165,0-.33v-1.18c.08-.3.15-.6.23-.91l.24-.23.07-.18a.76.76,0,0,0,.51-.52,3.75,3.75,0,0,1,3-.74c.1.22.3.18.48.19l.6.24a.52.52,0,0,0,.41.29h0l.15.13a1.9,1.9,0,0,0,.19.21l.13.16h0a.5.5,0,0,0,.29.43c.09.3.17.6.25.91a7.456,7.456,0,0,1,0,1.34c-.08.25-.15.5-.23.75-.29.09-.32.38-.46.6h0a.34.34,0,0,0-.35.33h0l-1.34.67h-1.49a5.61,5.61,0,0,1-1.62-.72.4.4,0,0,0-.38-.3Z" transform="translate(269.58 110.96)"/>
    <path id="Path_13" data-name="Path 13" class="cls-3" d="M763.51,409.74v-.85c.23-.17.19-.42.18-.67v-.48a1.572,1.572,0,0,0,.15-.19c.24-.06.3-.28.37-.49a.66.66,0,0,0,.49-.5h0c.11,0,.26,0,.29-.18a2.41,2.41,0,0,1,2.64-.13c.1.27.33.31.56.38a.08.08,0,0,0,0,.09.33.33,0,0,0,.32.34,3.653,3.653,0,0,1,.18.34c0,.2.14.31.29.41s.14.5.22.75v2.32a2.006,2.006,0,0,0-.1.21s-.06,0-.05.05h0c-.06.13-.11.25-.16.38s-.16.2-.2.32l-.63.72a.37.37,0,0,0-.39.28l-.62.22h-1.34a1.94,1.94,0,0,1-1-.54c0-.09,0-.16-.12-.16l-.18-.17c0-.05-.1-.11-.16-.16h0a.44.44,0,0,0-.3-.43c-.24-.2-.16-.5-.24-.74s.06-.49-.18-.66C763.53,410.09,763.52,409.92,763.51,409.74Z" transform="translate(269.58 110.96)"/>
    <path id="Path_14" data-name="Path 14" class="cls-3" d="M814.55,382.45a3.27,3.27,0,0,1-2.82-2.38,1.58,1.58,0,0,0-.16-.85c.1-.43.21-.87.31-1.3l.12-.19a3,3,0,0,1,1.55-1.38.54.54,0,0,0,.58-.26h1.34c.17.3.47.27.75.3l1.36,1.16a.4.4,0,0,0,.29.43c.07.3.16.61.23.9v1.51l-.08.16-.11.29c-.17.08-.3.18-.28.4a3.39,3.39,0,0,1-2,1.2Z" transform="translate(269.58 110.96)"/>
    <path id="Path_15" data-name="Path 15" class="cls-3" d="M767.71,402.33h0l-1.17.21-1-.22a.09.09,0,0,0-.12,0h0a.3.3,0,0,0-.39-.28,2.08,2.08,0,0,1-.71-1,.41.41,0,0,0-.27-.43,2.1,2.1,0,0,0,0-.24.92.92,0,0,0-.15-.66c.06-.58.13-1.17.18-1.75a.41.41,0,0,0,.26-.43c.19-.68.8-1,1.21-1.52.14,0,.29,0,.36-.16a2.7,2.7,0,0,1,2.14-.13,1.19,1.19,0,0,0,.66.37l.73.93a1.791,1.791,0,0,0,.44,1.1c0,.5,0,1,0,1.48a1.54,1.54,0,0,0-.41.94c-.07.17-.15.34-.22.5l-.14.18-.86.86A.412.412,0,0,0,767.71,402.33Z" transform="translate(269.58 110.96)"/>
    <path id="Path_16" data-name="Path 16" class="cls-3" d="M796.38,382.39h-1.74a2.36,2.36,0,0,0-1-.48,2.6,2.6,0,0,1-1.19-2v-1a3.05,3.05,0,0,1,.69-1.53c.29-.26.59-.53.9-.79l.61-.24c.19,0,.38,0,.47-.2a5.37,5.37,0,0,1,2.47.44.55.55,0,0,0,.41.31h0l.16.17.16.17c.05.07.11.12.17.19a.33.33,0,0,0,0,.14.808.808,0,0,0,.29.55,3.78,3.78,0,0,1,0,2.21c-.27.37-.52.74-.78,1.1h0a.87.87,0,0,0-.54.47.34.34,0,0,0-.14.05.36.36,0,0,0-.42.26l-.25.05Z" transform="translate(269.58 110.96)"/>
    <path id="Path_17" data-name="Path 17" class="cls-3" d="M817.05,442.24c-.38.22-1.34.48-1.56.82a11.193,11.193,0,0,1-1.64-.06c-.14-.26-.39-.24-.64-.25-.35-.28-.65-.59-1-.89a2.72,2.72,0,0,1-.57-2.46c.07-.34.39-.67.38-1l.51-.67a3.752,3.752,0,0,1,.66-.52,3.72,3.72,0,0,0,1.19-.48,3.56,3.56,0,0,1,3.19,1.17.42.42,0,0,0,.29.41c.07.31.15.62.22.93a13.823,13.823,0,0,1-.06,1.58,7.116,7.116,0,0,0-1,1.42C816.72,442.43,817.08,442.05,817.05,442.24Z" transform="translate(269.58 110.96)"/>
    <path id="Path_18" data-name="Path 18" class="cls-3" d="M821.59,380.91a.469.469,0,0,0-.33-.5l-.16-.19c.08-.61-.28-1.16,0-1.84.59-1.76,1.29-2.33,3.15-2.21h.43c.08.23.29.19.48.19s.24.26.45.21c.08.16.17.3.38.28a2.727,2.727,0,0,1,.25.23l.23.23a2.181,2.181,0,0,1,.2.25.4.4,0,0,0,.3.41.953.953,0,0,0,.09.27l.1.17a.26.26,0,0,0,0,.15v2.19a.12.12,0,0,0,0,.12l-.16.21a.06.06,0,0,0,0,.09l-.21.22c-.21.19-.4.38-.61.56a.5.5,0,0,0-.41.27,3.491,3.491,0,0,1-1.1.23h-.51l-.93-.23a.47.47,0,0,0-.41-.26h-.16a.32.32,0,0,0-.32-.21.43.43,0,0,0-.29-.32A.84.84,0,0,0,821.59,380.91Z" transform="translate(269.58 110.96)"/>
    <path id="Path_19" data-name="Path 19" class="cls-3" d="M826.28,437.29l.44.46.22.24h0l.17.23a1.093,1.093,0,0,0,.06.44v1.68c0,.28-.32.47-.23.77-.17.08-.31.19-.28.41l-.7.7a.367.367,0,0,0-.37.28l-.46.21c-.19,0-.39,0-.49.19l-1.44.09a.54.54,0,0,0-.6-.27l-.44-.23c-.06-.26-.28-.33-.5-.42v-.05a1.51,1.51,0,0,0-.52-.89,3.22,3.22,0,0,1,.67-3.25,1,1,0,0,0,.54-.53.09.09,0,0,0,.11-.05.8.8,0,0,0,.17-.15.38.38,0,0,0,.16,0,.43.43,0,0,0,.41-.27,3.43,3.43,0,0,1,2.26,0l.7.3h0Z" transform="translate(269.58 110.96)"/>
    <path id="Path_20" data-name="Path 20" class="cls-3" d="M783.86,377.73a2.686,2.686,0,0,0,.19-.32c.2-.05.33-.13.31-.36.29-.41.79-.47,1.19-.69.19,0,.39,0,.5-.2h1.36c.1.23.31.2.5.2a2.63,2.63,0,0,1,1.54,2v1.34a6.52,6.52,0,0,1-1.22,2c-.3.15-.66.18-.85.5a4.07,4.07,0,0,1-2.58,0,.48.48,0,0,0-.43-.28h0l-.14-.09c-.12-.13-.24-.28-.36-.4a1,1,0,0,0-.38-.56l-.12-.46V378.9l.06-.42c.05-.08.1-.16.16-.24l.12-.29C783.85,378,783.86,377.85,783.86,377.73Z" transform="translate(269.58 110.96)"/>
    <path id="Path_21" data-name="Path 21" class="cls-3" d="M767.51,385.63a3.559,3.559,0,0,1,1.59.05.55.55,0,0,0,.52.29,1.141,1.141,0,0,1,.17.15.36.36,0,0,0,.34.35l.18.3c0,.2,0,.39.21.49a3.6,3.6,0,0,0,.09.35.22.22,0,0,0,.06.33v1a.21.21,0,0,0-.06.32,2.315,2.315,0,0,1-.08.36c-.28.18-.22.48-.27.74l-.16.16a.56.56,0,0,0-.29.43h0c0,.06-.09.11-.13.16a2.191,2.191,0,0,0-.21.22l-.14.11a1.921,1.921,0,0,0-.7.52c-.2,0-.38,0-.49.2l-.68.09a.57.57,0,0,0-.51,0l-.35-.08c-.05-.17-.19-.17-.32-.18s-.35-.24-.53-.38c0-.1,0-.15-.14-.14-.12-.18-.24-.34-.37-.52s0-.27-.16-.33-.09-.23-.13-.34c.17-.23-.06-.27-.17-.35a4.121,4.121,0,0,1,.2-1.56.65.65,0,0,0,.27-.61.18.18,0,0,0,0-.16c0-.05.07-.11.11-.17A4.22,4.22,0,0,1,767,385.9C767.2,385.93,767.35,385.76,767.51,385.63Z" transform="translate(269.58 110.96)"/>
    <path id="Path_22" data-name="Path 22" class="cls-4" d="M758.33,395.55c1.67-.09,2.63.7,3,2.46v1.51a3.194,3.194,0,0,1-.24,1.06.52.52,0,0,0-.3.43c-.21.08-.19.25-.19.42l-1.33,1.06h0l-1.15.07h-.33a1.75,1.75,0,0,0-.85-.5c-.42-.27-.44-.79-.69-1.17,0-.19,0-.38-.2-.49a1.761,1.761,0,0,0-.08-.85v-.34a8.209,8.209,0,0,1,.1-.85c.24-.17.2-.42.2-.66a.14.14,0,0,0,0-.13,1.48,1.48,0,0,0,.47-.71l.18-.34c.23,0,.32-.12.36-.32l.32-.19A2.05,2.05,0,0,0,758.33,395.55Z" transform="translate(269.58 110.96)"/>
    <path id="Path_23" data-name="Path 23" class="cls-3" d="M774.61,380.09v-.54c.28-.22.17-.54.2-.82s.3-.44.23-.74a.37.37,0,0,0,.32-.42l.15-.16a.34.34,0,0,0,.32-.36l.18-.16a.43.43,0,0,0,.41-.31c.2-.08.39-.15.58-.24a.34.34,0,0,0,.43-.25h1.32a.39.39,0,0,0,.44.26c.51.36,1.07.67,1.2,1.37,0,.19,0,.38.17.5v1.19c-.21.11-.15.32-.15.5v.32a1.638,1.638,0,0,0-.11.17l-.73,1a.15.15,0,0,0-.16.16l-.51.37a.77.77,0,0,0-.62.42l-.71.08h-1.15a2.34,2.34,0,0,0-.85-.49l-.17-.17a.39.39,0,0,0-.31-.38l-.21-.46C774.79,380.62,774.87,380.32,774.61,380.09Z" transform="translate(269.58 110.96)"/>
    <path id="Path_24" data-name="Path 24" class="cls-3" d="M805.84,367.31l1.06.23a.265.265,0,0,0,.27.28,2.73,2.73,0,0,1,.91,1,.521.521,0,0,1,.11.1,4.32,4.32,0,0,1,.31,1.85c0,.08-.06.14-.1.21s0,.18-.08.28-.27.21-.25.4l-.72.84a.46.46,0,0,0-.4.31.11.11,0,0,0-.11,0c-.19,0-.39,0-.49.2l-.51.1a2.759,2.759,0,0,0-1.18,0l-.35-.08a.3.3,0,0,0-.32-.17l-.51-.21a1.757,1.757,0,0,1-.15-.13l-.57-.54-.1-.14c-.07-.12-.14-.24-.2-.36a.29.29,0,0,0-.19-.33.551.551,0,0,0-.08-.34,1.58,1.58,0,0,0,0-1,3,3,0,0,1,1-1.82,1.39,1.39,0,0,0,.77-.5,3.309,3.309,0,0,1,1.08-.23Z" transform="translate(269.58 110.96)"/>
    <path id="Path_25" data-name="Path 25" class="cls-3" d="M835.91,438.54a4.58,4.58,0,0,1-.56,2.92c-.16,0-.16.17-.19.29l-.17.16c-.24.22-.49.43-.74.64l-.58.26c-.15,0-.27,0-.32.18a6.12,6.12,0,0,1-1.71,0c0-.17-.19-.17-.33-.16a.23.23,0,0,0-.14,0,.91.91,0,0,0-.53-.49,1.608,1.608,0,0,0-.1-.18V442h0c-.13-.25-.25-.51-.37-.77v-1.68c.12-.33.24-.67.37-1,.1,0,.12-.08.11-.16a1.156,1.156,0,0,0,.06-.17l.15-.18c.17-.18.34-.35.5-.53a.36.36,0,0,0,.36-.3,3.37,3.37,0,0,1,2.93-.31c.09.16.2.3.4.28.24.28.47.58.7.86C835.69,438.25,835.69,438.45,835.91,438.54Z" transform="translate(269.58 110.96)"/>
    <path id="Path_26" data-name="Path 26" class="cls-3" d="M795.61,402.52a4.42,4.42,0,0,1-2.67-.5c-.79-1-1.75-1.87-1.51-3.32a3.74,3.74,0,0,1,2.19-2.84l.22-.16.94-.21,1,.08.17.1a.31.31,0,0,0,.37.11.23.23,0,0,0,.12.06c0,.11.1.13.19.13a3.831,3.831,0,0,1,1.38,1.36,1.18,1.18,0,0,0,.3.68,4.34,4.34,0,0,1-.1,2.37c-.16,0-.21.15-.21.31-.17.27-.35.54-.53.81a.58.58,0,0,0-.47.37l-.2.16A3.74,3.74,0,0,0,795.61,402.52Z" transform="translate(269.58 110.96)"/>
    <path id="Path_27" data-name="Path 27" class="cls-3" d="M816.34,372.68h-.07l-.17.14a.37.37,0,0,0-.15,0,.44.44,0,0,0-.48.23l-1,.08c-.1-.13-.21-.12-.34,0a3.35,3.35,0,0,1-1.4-.52.43.43,0,0,0-.4-.34h0c-.08-.19-.15-.39-.37-.48s-.24-.44-.37-.66,0-.38-.19-.48a3.491,3.491,0,0,0-.06-1.25.37.37,0,0,0,.25-.45l.24-.58a.47.47,0,0,0,.37-.39l.6-.43a.35.35,0,0,0,.42-.24,5.89,5.89,0,0,1,.59-.06h.83l.59.06.25.12a.12.12,0,0,0,.13,0,2,2,0,0,0,.82.52l.76,1a.35.35,0,0,0,.27.43c0,.43.06.84.1,1.27a.39.39,0,0,0-.1.48,1.356,1.356,0,0,1-.11.34c-.03.11-.16.2-.21.32a5.884,5.884,0,0,1-.51.63Z" transform="translate(269.58 110.96)"/>
    <path id="Path_28" data-name="Path 28" class="cls-3" d="M795.45,373.17a3.182,3.182,0,0,1-.51-.13c-.06-.18-.2-.16-.33-.15a.25.25,0,0,0-.14,0,.42.42,0,0,0-.37-.32l-.18-.16a.46.46,0,0,0-.3-.37h0l-.17-.2v-.28a.66.66,0,0,0-.27-.61v-1c.27-.12.28-.35.27-.61s0-.38.19-.51a.29.29,0,0,0,.31-.32,2.092,2.092,0,0,1,.2-.22l.12-.12h0l.15-.13.2-.18c.18,0,.33,0,.38-.24a.11.11,0,0,0,.12-.06.54.54,0,0,0,.51-.19H797l.93.23c.15.34.56.34.76.63h0l.15.2a4.141,4.141,0,0,1,.48,2.56.46.46,0,0,0-.25.42c-.07.17-.15.33-.23.49-.27,0-.33.28-.4.49a.126.126,0,0,0-.1.05.386.386,0,0,0-.39.3l-.44.21a.55.55,0,0,0-.59.28h-.41a1.66,1.66,0,0,0-1.06-.06Z" transform="translate(269.58 110.96)"/>
    <path id="Path_29" data-name="Path 29" class="cls-3" d="M812.55,446.61l.18-.12h.07v-.07l.39-.19,1.85-.26a4.533,4.533,0,0,1,.5.12c.06.16.19.15.34.14l.45.21.2.2c.17.2.34.42.5.63a.5.5,0,0,0,.31.44,1.61,1.61,0,0,0,.14.89.62.62,0,0,0-.07.52c-.11.37-.24.77-.37,1.14-.16.07-.29.16-.25.36a4.281,4.281,0,0,1-1.92,1.19h-1.34l-.49-.09c-.44-.34-.89-.69-1.32-1-.08-.13-.14-.27-.22-.41s0-.38-.18-.49V448.3c.16-.07.14-.21.14-.34s.13-.28.2-.42h0l.15-.22c.1,0,.15-.06.14-.17l.37-.34a.152.152,0,1,0,.23-.2Z" transform="translate(269.58 110.96)"/>
    <path id="Path_30" data-name="Path 30" class="cls-3" d="M823.59,451.8a3.171,3.171,0,0,1-.32,0l-1.65-.05h0c-.09-.24-.31-.28-.51-.35h0c-.32-.43-.63-.87-1-1.31a4.45,4.45,0,0,1,.07-1.85.28.28,0,0,0,.12-.34c.24-.15.27-.43.4-.66a.289.289,0,0,0,.31-.34c.22-.41.68-.46,1-.69.19,0,.39.05.49-.19a4.545,4.545,0,0,0,.51-.09,1,1,0,0,0,.69,0l.52.08c.09.21.28.21.48.21a3.654,3.654,0,0,0,.34.18.36.36,0,0,0,.3.27l.2.24a.4.4,0,0,0,.29.43,7.884,7.884,0,0,1,.17,1.81l-.16.27a1.931,1.931,0,0,1,0,.24.38.38,0,0,0-.28.44c-.11.16-.23.33-.36.5l-.13.17-.53.48-.26.15-.25.15a.69.69,0,0,0-.44.25Z" transform="translate(269.58 110.96)"/>
    <path id="Path_31" data-name="Path 31" class="cls-4" d="M823.1,367.31l.94.22c.08.16.19.3.4.27l.5.37c.18.21.34.42.51.63a1.727,1.727,0,0,1,.17.21.37.37,0,0,0,.29.44,4.45,4.45,0,0,1,0,2.32.38.38,0,0,0-.28.43l-.85.69a.29.29,0,0,0-.32.19l-.35.09a2.52,2.52,0,0,0-1.19,0h-.24a.56.56,0,0,0-.59-.28l-.43-.22c-.08-.17-.17-.32-.4-.29a.33.33,0,0,0-.13,0c0-.35-.27-.51-.52-.68a.14.14,0,0,0,0-.14c0-.11,0-.18-.15-.21a3.19,3.19,0,0,1,0-2.81,1.587,1.587,0,0,0,.12-.15c.13-.35.52-.45.7-.74a.682.682,0,0,0,.54-.27h.31Z" transform="translate(269.58 110.96)"/>
    <path id="Path_32" data-name="Path 32" class="cls-3" d="M771.62,380.75l-.15.14c-.11,0-.15.08-.15.19s-.13.19-.2.29a.42.42,0,0,0-.38.35l-.27.19c-.13,0-.26,0-.3.19a3.669,3.669,0,0,1-1.2.35h-.68l-.59-.22a2.149,2.149,0,0,0-.7-.57l-.24-.57c0-.18,0-.38-.16-.49v-1c.26-.16.17-.42.18-.65l.54-1.17c.35-.38.7-.75,1.06-1.12h0a.5.5,0,0,0,.46-.23h.17c.14,0,.27,0,.33-.15l1.37-.05c.09.22.29.24.49.22l.39.35.1.12a4.4,4.4,0,0,1,.63,2.12c-.18.11-.25.25-.14.44s0,.27,0,.4a.37.37,0,0,0-.27.44.22.22,0,0,0,0,.16A.31.31,0,0,0,771.62,380.75Z" transform="translate(269.58 110.96)"/>
    <path id="Path_33" data-name="Path 33" class="cls-3" d="M789.74,367.86h.07c.08.22.13.46.4.54.09.3.17.61.25.91a5.8,5.8,0,0,1,0,1.18v.32a.35.35,0,0,0-.16.35.06.06,0,0,0,0,.1.38.38,0,0,0-.28.4l-1.16,1.1c-.23.08-.53,0-.69.28a4.12,4.12,0,0,1-2.3-.16,2.11,2.11,0,0,1-.94-1.05c0-.13,0-.27-.14-.33,0-.44-.07-.89-.1-1.34a1.17,1.17,0,0,0,.24-.68c.07-.2.16-.39.24-.59a.4.4,0,0,0,.3-.41l.17-.17a.36.36,0,0,0,.35-.33l.32-.19a.16.16,0,0,0,.19-.14.21.21,0,0,0,.13-.09.28.28,0,0,0,.38-.18l.64-.1h.84l.91.24a.44.44,0,0,0,.34.34Z" transform="translate(269.58 110.96)"/>
    <path id="Path_34" data-name="Path 34" class="cls-3" d="M758.07,391.84l-.22-.2-.12-.15h0a.49.49,0,0,0-.29-.43,3.07,3.07,0,0,1-.2-2.41.08.08,0,0,0,0-.13.58.58,0,0,0,.16-.48c.16-.1.27-.21.24-.41l.24-.51c.28-.13.38-.41.51-.65h0a.38.38,0,0,0,.37-.33l.81-.42a.632.632,0,0,0,.48-.13h.69l.82.4c.23.33.47.65.71,1,0,.19,0,.38.17.49v1.71c-.22.56-.46,1.11-.69,1.66-.5.42-.84,1-1.52,1.23a.28.28,0,0,0-.31.18l-.36.06h-.34l-.53-.07c-.08-.22-.29-.21-.47-.23h0Z" transform="translate(269.58 110.96)"/>
    <path id="Path_35" data-name="Path 35" class="cls-3" d="M828.64,370.67a3.126,3.126,0,0,1,0-.32c0-.5,0-1,0-1.51l.22-.58a.52.52,0,0,0,.32-.41.36.36,0,0,0,.31-.23l.19-.12a2.62,2.62,0,0,1,2-.16l.17.1.28.09c.09.16.2.29.41.27a.34.34,0,0,0,.14.05.43.43,0,0,0,.36.32l.33.34a.38.38,0,0,0,.32.35h0a.6.6,0,0,0,.33.57h0a.39.39,0,0,0,.18.37c0,.15,0,.32,0,.47v1.18a2.31,2.31,0,0,1-1,1.38.42.42,0,0,0-.43.25,12.384,12.384,0,0,1-1.61-.07c-.1-.21-.29-.2-.48-.2a1.32,1.32,0,0,1-1-.69.32.32,0,0,0-.31-.35,2.1,2.1,0,0,1-.14-.17.41.41,0,0,0-.33-.43v-.23C828.75,370.91,828.7,370.79,828.64,370.67Z" transform="translate(269.58 110.96)"/>
    <path id="Path_36" data-name="Path 36" class="cls-3" d="M828.61,448.79l.36-1a.17.17,0,0,0,.15-.19,2,2,0,0,1,.69-.84.66.66,0,0,0,.55-.37.11.11,0,0,0,.12-.08.349.349,0,0,0,.14-.06h.18c.15,0,.28,0,.33-.16a3.65,3.65,0,0,1,1.71.08,2,2,0,0,1,1.35,1.63v1c-.08.31-.15.62-.22.93a.6.6,0,0,0-.33.57c-.11.12-.22.25-.32.38a1.8,1.8,0,0,0-.13.14l-.38.34-.16.15h0c-.13,0-.27,0-.33.18l-.17.12a.64.64,0,0,0-.5.21h-1.52c-.16-.06-.33-.13-.5-.18a.63.63,0,0,0-.48-.37c-.14-.41-.5-.7-.55-1.14A10,10,0,0,1,828.61,448.79Z" transform="translate(269.58 110.96)"/>
    <path id="Path_37" data-name="Path 37" class="cls-4" d="M752.62,385.63H754l.24.24a2,2,0,0,1,.57.73c0,.15,0,.28.19.32l.06,2.44a.37.37,0,0,0-.26.44l-.37.82c-.11,0-.13.08-.13.17-.23.29-.47.57-.7.85s-.74.26-.94.63h-1a.48.48,0,0,0-.43-.26.13.13,0,0,0-.13,0l-.2-.17c-.11-.17-.23-.33-.35-.5a.538.538,0,0,1-.12-.24c-.31-.38-.1-.86-.22-1.26v-1.08l.14-.27v-.39c0-.13.25-.11.25-.28a1.872,1.872,0,0,1,.06-.31.34.34,0,0,0,.2-.36A.81.81,0,0,1,751,387c.11,0,.15-.09.15-.2l.2-.28a.44.44,0,0,0,.38-.36l.44-.24A.5.5,0,0,0,752.62,385.63Z" transform="translate(269.58 110.96)"/>
    <path id="Path_38" data-name="Path 38" class="cls-3" d="M776.52,370.18a1.36,1.36,0,0,1,.52-1.25.42.42,0,0,0,.33-.41l.15-.17a.38.38,0,0,0,.37-.33,4.78,4.78,0,0,1,1.63-.72,2.38,2.38,0,0,1,2.54,1.53v1.54c-.24.09-.19.3-.19.49s-.27.52-.39.79h0l-.12.18a.71.71,0,0,0-.51.52c-.4.06-.57.52-1,.54-.14,0-.27,0-.33.16l-.66.12a.52.52,0,0,0-.54,0l-1-.3a.86.86,0,0,0-.52-.52.341.341,0,0,0-.05-.14l-.33-.83v-.86a.2.2,0,0,0,.1-.34Z" transform="translate(269.58 110.96)"/>
    <path id="Path_39" data-name="Path 39" class="cls-3" d="M762.17,382.22l-1.08.23h-.34l-.44-.06a.41.41,0,0,0-.41-.28l-.46-.52c-.06-.09-.11-.18-.17-.26s0-.27,0-.42V379.1a2.161,2.161,0,0,0,.48-1,.17.17,0,0,0,0-.12.81.81,0,0,0,.46-.56l1.2-1c.2,0,.39,0,.48-.21,1.12-.08,2.06.13,2.41,1.4v1.68c-.08.23-.14.46-.2.69a1.07,1.07,0,0,0-.33.65c-.39.44-.79.91-1.19,1.35A.39.39,0,0,0,762.17,382.22Z" transform="translate(269.58 110.96)"/>
    <path id="Path_40" data-name="Path 40" class="cls-3" d="M803.32,363.83a3.607,3.607,0,0,1-.33-.35c0-.2-.16-.3-.31-.41a.06.06,0,0,0,0-.09l-.18-.36a4.33,4.33,0,0,1,.2-1.89.47.47,0,0,0,.3-.43c.1-.13.22-.25.34-.38l.14-.13h0a.52.52,0,0,0,.42-.29c.15-.2.4-.14.58-.22h1.69l.57.17a.81.81,0,0,0,.6.36c0,.06.11.11.17.17,0,.21.13.31.3.4,0,.2.14.3.23.44a.6.6,0,0,0,.26.59,6.886,6.886,0,0,1-.06,1.11c-.2.11-.21.29-.21.48l-.2.37a1.09,1.09,0,0,1-.09.14.38.38,0,0,0-.25.3.53.53,0,0,0-.41.31l-.58.26c-.18,0-.38,0-.47.21h-1.41c-.09-.22-.28-.23-.47-.21l-.67-.38Z" transform="translate(269.58 110.96)"/>
    <path id="Path_41" data-name="Path 41" class="cls-3" d="M769,372.26a3.64,3.64,0,0,1,0-2.33,7.7,7.7,0,0,0,.85-1.4l.13-.15a.71.71,0,0,0,.52-.47,1.4,1.4,0,0,0,.64-.38,4.71,4.71,0,0,1,1.68-.22l.51.19a.66.66,0,0,0,.48.36,3.35,3.35,0,0,1,.21,2.83.14.14,0,0,0-.08.13h0l-.13.2c-.07.14-.14.28-.22.42a.48.48,0,0,0-.29.42h0l-.17.17-.34.33a.49.49,0,0,0-.41.31l-.44.21c-.19,0-.37,0-.47.22l-.35.07a1.27,1.27,0,0,0-.86,0l-.93-.49a.47.47,0,0,0-.33-.42Z" transform="translate(269.58 110.96)"/>
    <path id="Path_42" data-name="Path 42" class="cls-3" d="M797.38,364.59l-1.44-.09c-.06-.16-.19-.17-.33-.16-.66,0-.87-.59-1.17-1,0-.18,0-.39-.18-.5v-1.19c.21-.11.19-.3.19-.49a3.06,3.06,0,0,1,2-1.87h1.51l.47.06.2.16.23.05a.15.15,0,0,0,.07.12,3.309,3.309,0,0,1,.75,1.16c0,.22,0,.45.23.58.07.45-.18.86-.21,1.29a.28.28,0,0,0-.21.32l-.21.41-.23.24-.25.22a.43.43,0,0,0-.36.29l-.48.2a.52.52,0,0,0-.58.2Z" transform="translate(269.58 110.96)"/>
    <path id="Path_43" data-name="Path 43" class="cls-3" d="M811,456.67a2.89,2.89,0,0,1,1-1.47c.2-.08.45-.1.51-.36h.31c.19,0,.38,0,.49-.18l1.09-.08a.55.55,0,0,0,.61.26c.14.1.24.27.46.22l.84.9a4.892,4.892,0,0,1,.2,1.74,1,1,0,0,0-.08.18.45.45,0,0,0-.12.43.37.37,0,0,0-.28.42,5.351,5.351,0,0,1-1.53,1.19c-.23,0-.48-.07-.65.19a1.521,1.521,0,0,0-.76.08c-.12-.27-.36-.27-.6-.25-.82-.21-1.16-.89-1.54-1.54Z" transform="translate(269.58 110.96)"/>
    <path id="Path_44" data-name="Path 44" class="cls-3" d="M773.92,406.27l.91-.25h1.46l.2.15h.25a3.149,3.149,0,0,0,.93.81l.15.17c0,.14,0,.29.18.34l.09.16c-.07.32-.39.45-.59.66a1.57,1.57,0,0,0-.18,2.11c.22.32.48.6.72.9l-.24.5-.29.32a10.859,10.859,0,0,0-.66-1c-.9-1.05-1.82-1-2.82,0-.34.35-.36.86-.71,1.18a.37.37,0,0,0-.35-.34,3.558,3.558,0,0,0-.18-.32c0-.1,0-.18-.15-.19l-.36-1v-2a1.155,1.155,0,0,1,.05-.41,9.447,9.447,0,0,1,1.59-1.79Z" transform="translate(269.58 110.96)"/>
    <path id="Path_45" data-name="Path 45" class="cls-3" d="M841.92,447.6v1c-.22.1-.19.29-.18.49a4.26,4.26,0,0,1-2.72,2.69h-1.17l-.59-.22a.51.51,0,0,0-.39-.38c-.06-.14-.14-.29-.21-.43s.05-.49-.21-.64v-.88c.23-.12.17-.31.17-.49a.909.909,0,0,1,.07-.44l.16-.23c.16-.27.32-.56.49-.84.22,0,.31-.12.34-.33a.81.81,0,0,0,.16-.16.39.39,0,0,0,.41-.32l.59-.23c.14,0,.27,0,.32-.17l.53-.1a.5.5,0,0,0,.5,0l.52.11c0,.18.18.18.32.17a.687.687,0,0,0,.15.07.75.75,0,0,0,.49.52.539.539,0,0,0,.05.28C841.77,447.16,841.72,447.49,841.92,447.6Z" transform="translate(269.58 110.96)"/>
    <path id="Path_46" data-name="Path 46" class="cls-3" d="M812.87,364.35a3.429,3.429,0,0,1-1-.53l-.33-.34-.14-.18-.18-.22v-.11l-.15-.19a.33.33,0,0,0,0-.14v-1.85c.12-.23.24-.46.35-.69l.12-.13a4.328,4.328,0,0,1,1.06-.7h1.68l.77.23c.08.17.18.31.4.29s.25.23.36.35l.14.15.21.37c0,.1,0,.15.13.16a1.105,1.105,0,0,1,.11.16c-.08.21,0,.33.19.42a5.082,5.082,0,0,1-.17,1.86.38.38,0,0,0-.29.41l-.17.18a.42.42,0,0,0-.39.3l-.45.21a.52.52,0,0,0-.59.25h-1a.56.56,0,0,0-.66-.26Z" transform="translate(269.58 110.96)"/>
    <path id="Path_47" data-name="Path 47" class="cls-3" d="M819.05,457.17c.07-.26.15-.51.22-.77a.38.38,0,0,0,.27-.4.18.18,0,0,0,.06-.14.71.71,0,0,0,.51-.52.24.24,0,0,0,.14,0c.16,0,.22-.13.27-.26l.56-.23c.2,0,.39,0,.5-.17h1.2c.16.25.42.21.66.22l.25.2a.6.6,0,0,0,.41.33,3.1,3.1,0,0,1,.31,2.4.39.39,0,0,0-.26.42.987.987,0,0,0,0,.16.77.77,0,0,0-.36.5c-.23.19-.46.38-.68.58a1.23,1.23,0,0,0-.65.42h-1.99l-.28-.05a.44.44,0,0,0-.39-.31h0l-.17-.16h0a.6.6,0,0,0-.3-.42c-.08-.2-.16-.39-.23-.59Z" transform="translate(269.58 110.96)"/>
    <path id="Path_48" data-name="Path 48" class="cls-3" d="M819,360.8c.08-.21.16-.41.23-.61s.09-.15.14-.23h0l.15-.17.19-.17a.44.44,0,0,0,.39-.31h1.96l.6.22a.47.47,0,0,0,.4.28l.58.55v.06h.08a.074.074,0,0,0,.07.07.337.337,0,0,0,.25.37.27.27,0,0,0,0,.16c0,.14,0,.27.17.31s.07.24.11.36l.15.26v.83a1.67,1.67,0,0,0-.43.92,1.84,1.84,0,0,1-.89.69c-.18,0-.37,0-.48.19h-1.2c-.1-.22-.3-.18-.5-.18-.49-.07-.74-.53-1.15-.75a.35.35,0,0,0-.32-.29.338.338,0,0,0-.06-.15.631.631,0,0,0-.31-.5c-.07-.29-.14-.56-.22-.85A4.953,4.953,0,0,1,819,360.8Z" transform="translate(269.58 110.96)"/>
    <path id="Path_49" data-name="Path 49" class="cls-4" d="M790.25,359.25l.61.23a.44.44,0,0,0,.39.34c.07.16.15.32.23.47s0,.27.19.31,0,.24.07.37a1.19,1.19,0,0,0,0,.83l-.12.52c-.17,0-.17.18-.16.32-.54.67-.92,1.51-1.88,1.71a.56.56,0,0,0-.58.24h-1.12c-.09-.23-.29-.21-.49-.21a1.47,1.47,0,0,1-1-1.19v-1.51a2.1,2.1,0,0,1,.68-1.38.3.3,0,0,0,.34-.3l.17-.16a1.46,1.46,0,0,0,.86-.5h.3Z" transform="translate(269.58 110.96)"/>
    <path id="Path_50" data-name="Path 50" class="cls-3" d="M755.2,382.08a1,1,0,0,1-.16.12.32.32,0,0,0-.34.17l-.48.08h-.52l-.5-.2c-.26-.37-.53-.73-.79-1.11,0-.53.06-1.06.08-1.59.22-.1.2-.29.18-.49a2.819,2.819,0,0,1,.53-1.23.25.25,0,0,0,.19-.27.14.14,0,0,0,.08-.12,2.62,2.62,0,0,0,.84-.85l.57-.25c.14,0,.28,0,.32-.18h1c0,.17.16.21.32.2a.2.2,0,0,0,.13,0l.18.23c.12.25.25.51.37.77a3.864,3.864,0,0,1,0,1.18,4.324,4.324,0,0,1,0,.5,1.27,1.27,0,0,0-.19.66v.09c-.18.09-.3.21-.27.42s-.28.33-.24.57Z" transform="translate(269.58 110.96)"/>
    <path id="Path_51" data-name="Path 51" class="cls-3" d="M767,368.83v.53c-.22.67-.46,1.33-.68,2h0l-.13.15a.17.17,0,0,0-.06.15l-.19.19c-.44.35-.75.84-1.3,1a.38.38,0,0,0-.43.26h-.24a3.09,3.09,0,0,1-1.52-.29l-.18-.19a.43.43,0,0,0-.29-.41c-.05-.45-.11-.91-.16-1.36.32-.29.28-.72.42-1.08a3.67,3.67,0,0,1,4-2.47.75.75,0,0,0,.43.44l.22.52C766.83,368.52,766.77,368.71,767,368.83Z" transform="translate(269.58 110.96)"/>
    <path id="Path_52" data-name="Path 52" class="cls-3" d="M829.62,454.6h1c.1.23.3.18.49.2h0l.14.08c0,.05,0,.07.08.06,0,.16.13.18.24.21l.1.18.23.24a3.88,3.88,0,0,1,0,2,.6.6,0,0,0-.3.59c-.06.08-.13.18-.2.26l-.83.9c-.42.11-.7.51-1.15.54-.28,0-.6-.07-.78.26h-.12c-.17-.33-.49-.26-.78-.27l-.5-.35c-.15-.2-.19-.48-.45-.6a5.73,5.73,0,0,1,0-2,.36.36,0,0,0,.27-.44.279.279,0,0,0,0-.15.87.87,0,0,0,.44-.52c.07-.28.42-.28.54-.52a.52.52,0,0,0,.42-.29l.59-.24C829.32,454.78,829.51,454.82,829.62,454.6Z" transform="translate(269.58 110.96)"/>
    <path id="Path_53" data-name="Path 53" class="cls-3" d="M779.51,360.47l.84-.71a.49.49,0,0,0,.42-.28c.15-.19.4-.13.59-.22h1.51l.27.06c.15.21.28.44.56.5l.21.48V362a3.38,3.38,0,0,1-2.2,2.37c-.2,0-.39,0-.5.21H780c-.09-.21-.28-.23-.48-.23-.28-.3-.66-.53-.72-1V362q.13-.37.24-.75a.47.47,0,0,0,.28-.43h0C779.4,360.67,779.46,360.57,779.51,360.47Z" transform="translate(269.58 110.96)"/>
    <path id="Path_54" data-name="Path 54" class="cls-3" d="M807.36,355.93c-.17.13-.33.26-.52.38a.4.4,0,0,0-.41.27,3.21,3.21,0,0,1-2.8-.47.63.63,0,0,0-.44-.43l-.24-.58v-1.68a4.586,4.586,0,0,1,.2-.46l.18-.2c1-1.15,1.94-1.27,3.67-.51a.32.32,0,0,0,.31.2h0a.32.32,0,0,0,.22.29h0a.5.5,0,0,0,.29.42,2.18,2.18,0,0,1-.31,2.66C807.43,355.81,807.36,355.83,807.36,355.93Z" transform="translate(269.58 110.96)"/>
    <path id="Path_55" data-name="Path 55" class="cls-3" d="M829,359.15a3.4,3.4,0,0,1,.79.21c.56.31,1.65,1.08,1.73,1.63a2.59,2.59,0,0,1,.6,2.28c-.16.11-.16.28-.17.46a2.72,2.72,0,0,1-3.09.57,3.341,3.341,0,0,0-1-.67,2.12,2.12,0,0,0-.69-.85.249.249,0,0,0,0-.14.36.36,0,0,0-.27-.43,4.6,4.6,0,0,1-.21-1.73.842.842,0,0,0,.15-.18c.05,0,.06,0,.06-.08a.47.47,0,0,0,.29-.43l.67-.52Z" transform="translate(269.58 110.96)"/>
    <path id="Path_56" data-name="Path 56" class="cls-3" d="M811.62,352c1.09-.63,2,0,2.89.49a.44.44,0,0,0,.36.35c1,1.72.88,2.59-.32,3.53l-.15.12a3.41,3.41,0,0,1-2.27.14.38.38,0,0,0-.43-.29l-.26-.21a.58.58,0,0,0-.4-.32c0-.4-.56-.56-.53-1s0-.9,0-1.35a1.49,1.49,0,0,1,.7-1.19.38.38,0,0,0,.41-.27Z" transform="translate(269.58 110.96)"/>
    <path id="Path_57" data-name="Path 57" class="cls-3" d="M772.83,360.3c.32-.06.43-.37.66-.54a.37.37,0,0,0,.39-.28l.26-.13a6.06,6.06,0,0,1,1.7-.1c1.08.65,1.24,1.34.66,3-.11,0-.14.09-.13.2l-.25.43c-.26.3-.64.51-.82.91a.21.21,0,0,0-.13.05c-.16,0-.23.12-.28.26l-.56.23c-.19,0-.39,0-.48.21l-1.21-.05c-.06-.17-.2-.17-.33-.18-.18-.22-.35-.46-.53-.68v-1.82c0-.1.08-.13.12-.18s0-.18.07-.26a.39.39,0,0,0,.29-.42l.22-.27A.53.53,0,0,0,772.83,360.3Z" transform="translate(269.58 110.96)"/>
    <path id="Path_58" data-name="Path 58" class="cls-3" d="M814.55,462.83a1.44,1.44,0,0,1,.57.55v.07h.07a2.48,2.48,0,0,1,0,2.43c-.14.08-.14.21-.15.34l-.15.16a.36.36,0,0,0-.34.34h0l-.19.16h0a.377.377,0,0,0-.43.32c-.77.06-1.53.41-2.32,0a2,2,0,0,1-1.12-1.31v-1.51c.09-.19.16-.39.24-.58a4.938,4.938,0,0,1,.65-.71,3.792,3.792,0,0,0,.32-.24c.14,0,.28,0,.34-.14a6.66,6.66,0,0,1,2.09-.14A.44.44,0,0,0,814.55,462.83Z" transform="translate(269.58 110.96)"/>
    <path id="Path_59" data-name="Path 59" class="cls-3" d="M758.22,372.69l-.84.44a.43.43,0,0,0-.48.08h-.34l-.67-.32-.17-.18c0-.19,0-.39-.21-.49V371c.25-.16.19-.41.2-.65a1.509,1.509,0,0,1,.22-.57.46.46,0,0,0,.27-.44c.06-.11.13-.21.2-.33s.38-.22.33-.5l.16-.17c.35,0,.4-.29.58-.47a.09.09,0,0,0,.1,0,.21.21,0,0,0,.22-.21.09.09,0,0,0,.1-.06.39.39,0,0,0,.41-.19c.46,0,.93-.46,1.4,0a1.589,1.589,0,0,0,.53.65v1.34a2.672,2.672,0,0,1-.19.84.92.92,0,0,0-.31.67.322.322,0,0,1-.07.24,1,1,0,0,0-.52.74c-.33,0-.4.37-.6.56A.33.33,0,0,0,758.22,372.69Z" transform="translate(269.58 110.96)"/>
    <path id="Path_60" data-name="Path 60" class="cls-3" d="M818.65,351.94l1.27-.19,1.33.51h0l.18.13a.1.1,0,0,0,.1.06.39.39,0,0,0,.38.34h0a2.53,2.53,0,0,0,.64,1,2.058,2.058,0,0,0,.1.48v1a1.93,1.93,0,0,1-2.33,1.43l-.64-.13a.36.36,0,0,0-.43-.27l-.28-.21c-.11-.14-.2-.28-.39-.31s-.1-.21-.24-.2a.457.457,0,0,1-.25-.48.4.4,0,0,0-.27-.43,2.87,2.87,0,0,1,0-1.83.41.41,0,0,0,.29-.42l.18-.18a.43.43,0,0,0,.36-.3Z" transform="translate(269.58 110.96)"/>
    <path id="Path_61" data-name="Path 61" class="cls-3" d="M822.52,463.34a1.863,1.863,0,0,0,.1.37v1.61c0,.15-.11.16-.17.23-.17.26-.33.53-.51.78a.48.48,0,0,0-.38.37l-.44.24-.16.12a2.87,2.87,0,0,1-2.28.14.41.41,0,0,0-.4-.29,1.531,1.531,0,0,1-.17-.19c0-.14,0-.28-.19-.33a2.79,2.79,0,0,1-.1-1.91A.42.42,0,0,0,818,464a.211.211,0,0,0,0-.14l.18-.19a2.067,2.067,0,0,0,.14-.17l.16-.17h0l.18-.16.17-.12.2-.19a.16.16,0,0,0,.12,0,.38.38,0,0,0,.44-.27,11.9,11.9,0,0,1,2,0l.24.24a1,1,0,0,1,.18.08A1,1,0,0,0,822.52,463.34Z" transform="translate(269.58 110.96)"/>
    <path id="Path_62" data-name="Path 62" class="cls-3" d="M766.84,360l.78-.51.23-.16.43-.05h1l.47.23c0,.13,0,.27.2.31a3.411,3.411,0,0,1,0,1.68c-.16.07-.16.2-.15.34a4.45,4.45,0,0,1-2.8,2.66,1.35,1.35,0,0,1-1.76-.68c0-.51,0-1,0-1.52.06-.16.12-.32.19-.49a.55.55,0,0,0,.29-.51,2.994,2.994,0,0,0,.2-.34.6.6,0,0,0,.38-.48l.14-.16a.4.4,0,0,0,.4-.32Z" transform="translate(269.58 110.96)"/>
    <path id="Path_63" data-name="Path 63" class="cls-3" d="M782.44,352.78h.1a.37.37,0,0,0,.37-.31,3.69,3.69,0,0,1,2.39-.64,5.168,5.168,0,0,1,1,1.07,7.243,7.243,0,0,1-.13,1.47.44.44,0,0,0-.26.44l-.38.54c-.09,0-.12,0-.12.12l-.22.32a.45.45,0,0,0-.41.32c-.19,0-.28.13-.42.23a.41.41,0,0,0-.43.27c-.47,0-.91.24-1.38.14a.63.63,0,0,0-.52-.17l-.32-.31c-.07-.19-.12-.38-.32-.48a3.89,3.89,0,0,1,.07-1.44c.2-.12.25-.36.33-.56s.16-.32.23-.48a.6.6,0,0,0,.42-.53Z" transform="translate(269.58 110.96)"/>
    <path id="Path_64" data-name="Path 64" class="cls-3" d="M844.68,458.67l-.14.14a.43.43,0,0,0-.38.35l-.78.51-.21.17h-.13a7.18,7.18,0,0,1-1.67,0,1.91,1.91,0,0,1-.63-1.68c.1-.1.27-.19.28-.29a4.88,4.88,0,0,1,1.8-2.86l.73-.26h.08s1.35.14,1.78.17c.12.24.24.46.35.7v.85c-.07.66-.56,1.14-.74,1.75a.45.45,0,0,0-.34.45Z" transform="translate(269.58 110.96)"/>
    <path id="Path_65" data-name="Path 65" class="cls-3" d="M775.16,356.18a1.67,1.67,0,0,1-.32-1.22l.15-.2h0c.1,0,.13-.06.1-.15a4.861,4.861,0,0,1,2-2.35c.7-.38,1.44-.81,2.24-.22s.45,1.39.31,2.14a.42.42,0,0,0-.27.42.25.25,0,0,0,0,.14l-.15.19-1,1.1a.36.36,0,0,0-.34.23.331.331,0,0,0-.14,0,1.53,1.53,0,0,0-.94.44h-.53a1.31,1.31,0,0,0-.73-.25.08.08,0,0,0-.08-.07.764.764,0,0,0-.08-.11h0Z" transform="translate(269.58 110.96)"/>
    <path id="Path_66" data-name="Path 66" class="cls-3" d="M850.24,454.62l1,.06h0a1.37,1.37,0,0,1,.47,1.79c-.21.48-.22,1.06-.65,1.44a1.54,1.54,0,0,0-.53.73,11.913,11.913,0,0,1-1.77,1.23H847.4a.35.35,0,0,0-.14-.06c0-.18,0-.37-.25-.43v-1.22c.2-.11.18-.3.18-.49a2.678,2.678,0,0,0,0-.28c.06-.08.11-.14.16-.22l.17-.3a.18.18,0,0,0,.14-.2l1-1.29c.24-.05.45-.1.55-.36l.6-.24C850.05,454.78,850.18,454.78,850.24,454.62Z" transform="translate(269.58 110.96)"/>
    <path id="Path_67" data-name="Path 67" class="cls-3" d="M760.78,364.55h-.91a.3.3,0,0,0-.3-.25c-.6-.69-.23-1.42-.08-2.14a.35.35,0,0,0,.22-.38,2.282,2.282,0,0,0,.06-.25c.19-.17.45-.28.45-.58l1.2-1.2a.443.443,0,0,0,.41-.29l.59-.22c1.43-.09,1.51,0,1.65,1.37a2.329,2.329,0,0,1-.11.51.29.29,0,0,0-.17.33q0,.15,0,.3a2.84,2.84,0,0,0-.66,1l-1,1a.389.389,0,0,0-.39.3l-.45.21C761.07,364.35,760.87,364.33,760.78,364.55Z" transform="translate(269.58 110.96)"/>
    <path id="Path_68" data-name="Path 68" class="cls-3" d="M839.85,462.67c1.57-.35,1.67-.31,2.15.74h0v.05l-.09.72c-.22.09-.2.29-.19.48l-.86,1.19c-.1,0-.14.05-.15.16l-.86.71-.15.13h-.17a.47.47,0,0,0-.41.26H839c-.56.2-1.18.39-1.62-.09s-.26-1.14-.08-1.72a2.269,2.269,0,0,1,.18-.47.18.18,0,0,0,.14-.2c.11-.33.51-.47.56-.83a.54.54,0,0,0,.41-.35l.9-.68a.28.28,0,0,0,.36-.1Z" transform="translate(269.58 110.96)"/>
    <path id="Path_69" data-name="Path 69" class="cls-3" d="M809.87,347.72v-1c.14-.09.13-.21.11-.35a.24.24,0,0,0,0-.15l.16-.18a2.1,2.1,0,0,1,1.84-.78,3.65,3.65,0,0,1,2.24,1.83c.17,1.63-.31,2.34-1.89,2.59a2.45,2.45,0,0,1-1.84-.79.19.19,0,0,0-.18-.19l-.37-.65A.232.232,0,0,0,809.87,347.72Z" transform="translate(269.58 110.96)"/>
    <path id="Path_70" data-name="Path 70" class="cls-3" d="M803.5,346.38l.66-.67a2,2,0,0,0,.83-.35l.91-.11a1.6,1.6,0,0,0,.94.43,2.17,2.17,0,0,1,.81,2.54,2.22,2.22,0,0,1-2.16,1.37h-.65l-.81-.34a.77.77,0,0,0-.52-.53.19.19,0,0,0,0-.12c0-.14,0-.28-.16-.34V346.9A.617.617,0,0,0,803.5,346.38Z" transform="translate(269.58 110.96)"/>
    <path id="Path_71" data-name="Path 71" class="cls-3" d="M772.28,355.76c-.39.05-.6.44-.95.56a.25.25,0,0,0-.23.21,2.1,2.1,0,0,0-1,.28c-.06-.17-.18-.15-.33-.11l-.54-.42c0-.14,0-.27-.19-.32v-.87c.24-.16.19-.43.23-.66.06-.08.11-.17.17-.24a.51.51,0,0,0,.29-.44h0a.81.81,0,0,0,.4-.47A8.4,8.4,0,0,1,772,352c1.09-.49,2.1-.16,1.84,1.25v.33l-.1.18a.4.4,0,0,0-.11.4.39.39,0,0,0-.3.45L773,355l-.12.12-.23.29a.51.51,0,0,0-.37.35Z" transform="translate(269.58 110.96)"/>
    <path id="Path_72" data-name="Path 72" class="cls-3" d="M801.27,346.82a1.59,1.59,0,0,0,0,.81.36.36,0,0,0-.26.43l-.55.8-.19.2-.3.18a.6.6,0,0,0-.58.3c-.44-.12-.82.19-1.25.18l-.19-.13-.35-.18-.15-.14a1,1,0,0,1-.53-.53c0-.14,0-.28-.18-.33v-1.2c.16,0,.17-.18.15-.33a2.94,2.94,0,0,1,1-1.18.41.41,0,0,0,.44-.28,3.92,3.92,0,0,1,1.67,0,.48.48,0,0,0,.42.27c.15.18.32.36.48.54S801,346.71,801.27,346.82Z" transform="translate(269.58 110.96)"/>
    <path id="Path_73" data-name="Path 73" class="cls-3" d="M792.85,349.54l-1.24.14a2.93,2.93,0,0,1-1.19-1v-.66a3,3,0,0,1,1.7-2.39.4.4,0,0,0,.41-.26,3,3,0,0,1,1.53,0l.74.81a2.34,2.34,0,0,1-.19,1.76,2.006,2.006,0,0,1-.13.25h0l-.11.15a.1.1,0,0,0-.07.12c-.06.08-.13.14-.18.21h0a1.26,1.26,0,0,0-.65.53.42.42,0,0,0-.16,0A.41.41,0,0,0,792.85,349.54Z" transform="translate(269.58 110.96)"/>
    <path id="Path_74" data-name="Path 74" class="cls-3" d="M758.5,359.33c.46.61,0,1.24,0,1.86l-1.8,2.46-.16.14a.4.4,0,0,0-.41.33,6.462,6.462,0,0,0-.89.39.74.74,0,0,1-1.06-.19.55.55,0,0,0-.17-.5v-.35c.24-.17.17-.43.17-.66,0-.51.51-.79.55-1.28a1,1,0,0,0,.52-.72.16.16,0,0,0,.13-.06c.08,0,.12,0,.09-.12a.38.38,0,0,0,.25-.31.62.62,0,0,0,.51-.48l.15-.07a.6.6,0,0,0,.48-.31l.53-.21a2.41,2.41,0,0,1,1.11.08Z" transform="translate(269.58 110.96)"/>
    <path id="Path_75" data-name="Path 75" class="cls-3" d="M788,348.52a5.351,5.351,0,0,1-1.6,1,1.27,1.27,0,0,1-1.46-.08,1.3,1.3,0,0,1-.45-1.57,3.92,3.92,0,0,1,3-2.57,1.18,1.18,0,0,1,1.4,1.25,6.35,6.35,0,0,1-.18,1.06C788.33,347.82,788.24,348.24,788,348.52Z" transform="translate(269.58 110.96)"/>
    <path id="Path_76" data-name="Path 76" class="cls-3" d="M831.6,467.17c-.55-.48-.47-1.12-.44-1.75.05-.07.08-.14.13-.21a24.915,24.915,0,0,1,2.33-2.58,1.33,1.33,0,0,0,.73-.22,9.549,9.549,0,0,1,1.59.74,4,4,0,0,1-.78,2.72,2.42,2.42,0,0,0-.71.75,5.01,5.01,0,0,0-.45.29.37.37,0,0,0-.44.28C832.91,467.25,832.25,467.65,831.6,467.17Z" transform="translate(269.58 110.96)"/>
    <path id="Path_77" data-name="Path 77" class="cls-3" d="M765.35,356.57c-.63.14-1.27.37-1.62-.46v-.51c.08-.3.17-.6.24-.9a.47.47,0,0,0,.29-.45c.24-.3.48-.6.72-.92a.48.48,0,0,0,.37-.38c.16-.11.37-.15.45-.36a.69.69,0,0,0,.49-.34h.16a.45.45,0,0,0,.41-.27c.46-.05.93-.34,1.41,0,0,.13,0,.28.19.33a4.363,4.363,0,0,0,.06.52c-.23.1-.18.3-.18.49a.563.563,0,0,1-.05.32.94.94,0,0,0-.37.63c0,.07-.09.14-.13.22l-.12.16c-.23.19-.25.56-.55.7-.22,0-.31.11-.35.31l-.17.15a.42.42,0,0,0-.4.32l-.42.23A.42.42,0,0,0,765.35,356.57Z" transform="translate(269.58 110.96)"/>
    <path id="Path_78" data-name="Path 78" class="cls-3" d="M778.8,348.55c0-1.36,2.07-3.19,3.55-3.26a1,1,0,0,1,.95,1.26,4.61,4.61,0,0,1-3.3,3.09,1,1,0,0,1-1.2-1.09Z" transform="translate(269.58 110.96)"/>
    <path id="Path_79" data-name="Path 79" class="cls-3" d="M839.15,456.56a5.963,5.963,0,0,1-.09.61c-.02.2-.24.3-.18.51s-1.17,1.48-1.36,1.68a.39.39,0,0,0-.42.29c-.24,0-.39.15-.59.23s-.48-.06-.67.15h-.34c-.13-.19-.32-.14-.51-.15l-.27-.06a1.706,1.706,0,0,1-.2-.18h0a.32.32,0,0,0-.21-.27.14.14,0,0,0-.12-.06c0-.61-.05-1.22-.08-1.83.06-.21.13-.44.2-.65a1.636,1.636,0,0,1,.11-.17,4.89,4.89,0,0,1,1.24-1.4l.12-.11a1.9,1.9,0,0,1,.88-.39l.85-.13C837.65,454.84,839.57,454.78,839.15,456.56Z" transform="translate(269.58 110.96)"/>
    <path id="Path_80" data-name="Path 80" class="cls-3" d="M774.35,349.65a.83.83,0,0,1-.75-1.24,5.37,5.37,0,0,1,3.58-3.1.73.73,0,0,1,.82.27,1,1,0,0,1,0,1,5.13,5.13,0,0,1-2.45,2.6,2.65,2.65,0,0,1-1.2.47Z" transform="translate(269.58 110.96)"/>
    <path id="Path_81" data-name="Path 81" class="cls-3" d="M760.32,356.56c-.38,0-.73.35-1.11.05l-.28-.27v-.81a.54.54,0,0,0,.29-.6c.07-.09.13-.18.2-.26a1.054,1.054,0,0,0,.15-.24,7.639,7.639,0,0,1,2.58-2.35c.39-.18.83-.53,1.31-.15s.08.83.09,1.24a.57.57,0,0,0-.32.58c-.23.32-.45.64-.69.95a.39.39,0,0,0-.32.39c0,.06-.1.1-.16.16a.36.36,0,0,0-.36.34l-.3.2a.14.14,0,0,0-.17.14h0l-.21.16-.29.21A.4.4,0,0,0,760.32,356.56Z" transform="translate(269.58 110.96)"/>
    <path id="Path_82" data-name="Path 82" class="cls-3" d="M768.8,348.84a1.447,1.447,0,0,1,.15-.45,7,7,0,0,1,3.56-3,.7.7,0,0,1,.84.08c.33.32.15.58,0,.9a6.16,6.16,0,0,1-3.53,3.19C769.14,349.81,768.78,349.56,768.8,348.84Z" transform="translate(269.58 110.96)"/>
    <path id="Path_83" data-name="Path 83" class="cls-3" d="M809.2,341.7c.06-.55-.09-1.16.49-1.54a.43.43,0,0,0,.41-.28,3.48,3.48,0,0,1,1.93.31.47.47,0,0,0,.35.32c.87,1.44.87,1.74,0,2.72a.38.38,0,0,0-.43.27h-.59a4.09,4.09,0,0,1-1.67-.79l-.17-.18C809.55,342.2,809.26,342,809.2,341.7Z" transform="translate(269.58 110.96)"/>
    <path id="Path_84" data-name="Path 84" class="cls-3" d="M794,343.47c-1,0-1.43-.81-1.07-1.83a3.2,3.2,0,0,1,2.5-1.8,1.15,1.15,0,0,1,1.24,1.39,3,3,0,0,1-2.67,2.24Z" transform="translate(269.58 110.96)"/>
    <path id="Path_85" data-name="Path 85" class="cls-3" d="M848.26,450.13c-.78.84-1.51,1.78-2.85,1.67-1-.28-1.4-.62-1.4-1.82v-1a.59.59,0,0,0,.19-.5c.07-.19.27-.34.23-.58a.41.41,0,0,0,.32-.42,1.152,1.152,0,0,0,.14-.17.294.294,0,0,0,.31-.34c.06-.07.13-.12.19-.19h.18c1.1-.64,2.27-1,3-.29C849.78,447.56,848.35,449.57,848.26,450.13Z" transform="translate(269.58 110.96)"/>
    <path id="Path_86" data-name="Path 86" class="cls-3" d="M798.64,343.17l-.17-.15a.43.43,0,0,0-.29-.41,2.4,2.4,0,0,1,1.12-2.45c.12,0,.23,0,.23-.15a2.12,2.12,0,0,1,1.9.1l.52.63a2.871,2.871,0,0,1-.17,1.53.47.47,0,0,0-.32.41h0a.59.59,0,0,0-.46.35l-.2.17c-.19,0-.39,0-.5.19a5.4,5.4,0,0,1-1.33-.06A.39.39,0,0,0,798.64,343.17Z" transform="translate(269.58 110.96)"/>
    <path id="Path_87" data-name="Path 87" class="cls-3" d="M758.71,354.08c-.3.17-.42.49-.64.72l-.13.13a8.73,8.73,0,0,1-2,1.57c-.3.15-.59.33-.94.11l-.12-.16a2.781,2.781,0,0,1,.2-1.1,2,2,0,0,0,.14-.25.06.06,0,0,0,0-.09c.17-.17.45-.27.45-.58a2.749,2.749,0,0,1,.22-.26.53.53,0,0,0,.31-.41h0a.9.9,0,0,0,.5-.51l1.35-1a.15.15,0,0,0,.18-.14l.31-.16.24-.15h.54l.23.31v.59a.39.39,0,0,0-.26.42c-.11.21-.21.42-.31.62C758.76,353.74,758.72,353.9,758.71,354.08Z" transform="translate(269.58 110.96)"/>
    <path id="Path_88" data-name="Path 88" class="cls-3" d="M764.6,349.45a4.347,4.347,0,0,0-.11-.61.38.38,0,0,0,.29-.44,1.645,1.645,0,0,1,.2-.26l1.31-1.41c.67-.41,1.32-.86,2-1.24.25-.14.63-.41.9-.09a.81.81,0,0,1-.12,1.06c-.48.61-1,1.18-1.48,1.76a.35.35,0,0,0-.37.31h0l-.17.13-1,.6a.37.37,0,0,0-.43.27h-.25l-.26.15-.42-.15a.922.922,0,0,1-.09-.08Z" transform="translate(269.58 110.96)"/>
    <path id="Path_90" data-name="Path 90" class="cls-3" d="M786.37,342l-.15.16c-.46.33-.9.67-1.35,1a.2.2,0,0,0-.15,0,.35.35,0,0,0-.45.26,1.652,1.652,0,0,0-.32,0c-1-.07-1.17-.25-.92-1.3.25,0,.31-.24.33-.46L784,341a.35.35,0,0,0,.34-.27h0a.77.77,0,0,0,.6-.46c.39-.12.77-.24,1.16-.38a.68.68,0,0,1,.87.26.64.64,0,0,1,0,.83c-.11.22-.2.45-.3.68a.44.44,0,0,0-.3.34Z" transform="translate(269.58 110.96)"/>
    <path id="Path_91" data-name="Path 91" class="cls-3" d="M779.41,341.38l.17-.16a.39.39,0,0,0,.37-.32,9.1,9.1,0,0,1,2.07-1.09c.47-.2.73-.08.9.37v.34l-.22.49c-.19.12-.35.24-.34.49h0a3.851,3.851,0,0,0-1.05,1,17.881,17.881,0,0,1-1.68.87c-.57.23-1.11.2-1.24-.59a3.942,3.942,0,0,0,.68-1h0a.39.39,0,0,0,.34-.4Z" transform="translate(269.58 110.96)"/>
    <path id="Path_92" data-name="Path 92" class="cls-3" d="M755.48,353.57c-.32.13-.37.48-.6.68-.1,0-.15.07-.16.18s-.13.18-.19.28a.39.39,0,0,0-.35.38c-.06,0-.1.09-.15.13-.31,0-.4.32-.56.52-.6.29-1,.86-1.71,1-.07-.14-.14-.26-.29-.29v-.37c0-.12.16-.2.16-.33s.15-.32.23-.49a.31.31,0,0,0,.27-.35.21.21,0,0,0,.05-.13,1.53,1.53,0,0,0,.68-.82.7.7,0,0,0,.45-.47c.16,0,.2-.13.25-.23a1.39,1.39,0,0,0,.61-.54.63.63,0,0,0,.39-.3l.28-.22a.4.4,0,0,0,.41-.28c1-.25,1-.21.74.74-.16.09-.3.19-.27.41a.241.241,0,0,0,0,.14.35.35,0,0,0-.24.36Z" transform="translate(269.58 110.96)"/>
    <path id="Path_93" data-name="Path 93" class="cls-3" d="M777.84,341.86a8.6,8.6,0,0,1-2.33,1.4c-.35.11-.67.36-1,.06s.13-.63.15-.95l1.18-1.17.33-.22c.15,0,.22-.13.27-.26h.06a.39.39,0,0,0,.44-.32c.25.06.39-.13.57-.24a.35.35,0,0,0,.44-.26,2.005,2.005,0,0,0,.24,0c.29,0,.62-.22.82.13s-.11.51-.22.75a2.8,2.8,0,0,1-.27.4C778.29,341.4,778.06,341.63,777.84,341.86Z" transform="translate(269.58 110.96)"/>
    <path id="Path_94" data-name="Path 94" class="cls-3" d="M765.77,346.05a.11.11,0,0,0,0,.09,8.292,8.292,0,0,0-1.28,1.43.55.55,0,0,0-.38.4.35.35,0,0,0-.32.25h0a.49.49,0,0,0-.41.31l-.25.22a.56.56,0,0,0-.5.32l-.19.13a.493.493,0,0,0-.52.3l-.86.07a.828.828,0,0,1-.11-.15v-.35a.11.11,0,0,0,0-.12,19.122,19.122,0,0,1,2.39-2.54,2.842,2.842,0,0,0,1.1-.7,1.62,1.62,0,0,0,.87-.4l.22-.08.26.14h0C765.78,345.6,765.77,345.83,765.77,346.05Z" transform="translate(269.58 110.96)"/>
    <path id="Path_96" data-name="Path 96" class="cls-3" d="M762.7,342.24c.16,0,.32,0,.41-.17s.2-.09.21-.21l.29-.13a.85.85,0,0,0,.75-.5.06.06,0,0,0,.08,0,.4.4,0,0,0,.44-.32l.43-.16c.23,0,.48,0,.53-.33l.2-.14c.12.09.2.07.25-.07h0a1.4,1.4,0,0,1,.32,0c.15.89.51.28.78.11s.45-.07.57-.3l.19-.12c.13.07.32.07.31.28l-.19.17a10.11,10.11,0,0,0-2.24,1.59c-.15,0-.28.08-.26.25h0c-.27,0-.49,0-.59.3l-.2.17a.62.62,0,0,0-.66.33l-1.09.42a.6.6,0,0,1,.21-.51,1.57,1.57,0,0,0,.83-.69c-.44-.1-.64.16-.87.39s-.33.06-.37.27a.86.86,0,0,0-.47.29c-.13,0-.26,0-.34.15a.5.5,0,0,1-.44-.11c.22-.1.18-.23,0-.35l.12-.1A.83.83,0,0,0,762.7,342.24Zm3.78-1.5c-.4-.1-.44.23-.63.36.36.12.47-.1.63-.36Z" transform="translate(269.58 110.96)"/>
    <path id="Path_98" data-name="Path 98" class="cls-3" d="M772.92,340.9c.56-.08.9-.56,1.4-.75a.37.37,0,0,0,.44-.26.81.81,0,0,0,.59-.11h.14c.47.25.11.51,0,.77a.28.28,0,0,0-.2.29h0a5.07,5.07,0,0,0-1.24,1.16l-.39.25a.386.386,0,0,0-.39.27l-.81.47-.11.06-.53.22c-.14,0-.27,0-.32.17-.22-.06-.54.12-.66-.15s.06-.51.26-.7a3.667,3.667,0,0,0,.37-.43Z" transform="translate(269.58 110.96)"/>
    <path id="Path_100" data-name="Path 100" class="cls-3" d="M760.57,346.52l1.18-.83a.38.38,0,0,0,.45-.27h.22l.27-.15a.44.44,0,0,1,.24.48c-.18,0-.18.19-.18.33a.319.319,0,0,0-.08.12l-2.5,2.36a3.91,3.91,0,0,0-1.1.73.37.37,0,0,0-.42.27l-.6.08a2.083,2.083,0,0,1-.15-.22v-.24a2.9,2.9,0,0,0,.63-.88l.72-.7a7.226,7.226,0,0,0,1.32-1.08Z" transform="translate(269.58 110.96)"/>
    <path id="Path_101" data-name="Path 101" class="cls-3" d="M750.71,355.6c-.39.3-.76.63-1.17.89s-.66.17-.51-.38c.42-.88,1.3-1.44,1.67-2.36h0a.4.4,0,0,0,.47-.34c.05-.11.22-.21,0-.34h0c.38.24.43-.14.59-.31a.41.41,0,0,0,.45-.34l.81-.54.2-.14c.35.06.3.33.27.57a.46.46,0,0,0-.29.43c-.18.25-.47.44-.55.77a1,1,0,0,0-.55.68.11.11,0,0,0-.09.05l-.19.16a.5.5,0,0,0-.22.42h0c-.32,0-.38.3-.58.44A.34.34,0,0,0,750.71,355.6Z" transform="translate(269.58 110.96)"/>
    <path id="Path_104" data-name="Path 104" class="cls-3" d="M770.75,342l-.78.5-.2.17a.18.18,0,0,0-.13,0,.408.408,0,0,0-.42.28l-.59.23c-.14,0-.28,0-.33.17h-.54v-.57c0-.19.3-.32.46-.47.72-.55,1.43-1.11,2.15-1.65.4,0,.64-.31.94-.51s.51,0,.6-.34h.87a1.41,1.41,0,0,1-.59.94c-.32.25-.75.38-.92.81a.26.26,0,0,0-.14.07A.545.545,0,0,0,770.75,342Z" transform="translate(269.58 110.96)"/>
    <path id="Path_107" data-name="Path 107" class="cls-3" d="M756.15,349.54l-.28.08c-.06-.12-.12-.26-.18-.39l.08-.15.2-.3a.31.31,0,0,0,.3-.31c.25-.21.66-.3.63-.75h0a.88.88,0,0,0,.86-.68h0a5.219,5.219,0,0,0,1.7-1.17l.32-.19a.39.39,0,0,0,.42-.28c.18.07.33-.3.5,0s0,.29-.13.4-.31.38-.47.56l-1.3,1.21a2.516,2.516,0,0,1-.25.21,2.22,2.22,0,0,0-.86.75l-.26.18a.3.3,0,0,0-.32.21c-.05.16-.35.23-.51.35a.37.37,0,0,0-.45.27Z" transform="translate(269.58 110.96)"/>
    <path id="Path_108" data-name="Path 108" class="cls-3" d="M767.79,342.2c-.12,0-.28,0-.33.17l-.2.15-1.61.78c-.2.1-.42.17-.55-.1.16-.06.17-.19.19-.32l.16-.17c.28-.07.47-.19.34-.52h0c.25.16.41,0,.54-.16a8.58,8.58,0,0,0,2.15-1.53l.84-.34a.4.4,0,0,0,.44-.27l.58-.08v.38h0l-.14.14a.11.11,0,0,0-.07.1Z" transform="translate(269.58 110.96)"/>
    <path id="Path_109" data-name="Path 109" class="cls-3" d="M754.74,348.24a3.78,3.78,0,0,0,1.15-1,.392.392,0,0,0,.43-.33l.91-.67c.35.2.67-.18,1-.1-.1.4-.63.47-.55.91h0c-.55-.1-.7.27-.86.68h0c-.35,0-.5.26-.68.49a1.26,1.26,0,0,0-.59.5.41.41,0,0,0-.47.33c-.35.1-.55.47-.93.5.06-.2.11-.42.17-.62.1,0,.2,0,.25-.1s0-.09-.07-.1a.183.183,0,0,0-.22.16l-.25-.13c.16,0,.23-.14.3-.26a.34.34,0,0,0,.41-.26Z" transform="translate(269.58 110.96)"/>
    <path id="Path_110" data-name="Path 110" class="cls-3" d="M747.2,356.59a17,17,0,0,1,3.18-3.73c.21-.22.43-.42.65-.63l.61-.46c.19.38-.19.6-.23.91-.2.07-.3.19-.22.41h0c-.12-.06-.17,0-.22.09-.25.12-.46.26-.29.59h0a.24.24,0,0,0-.36,0c-.59.64-1.16,1.3-1.74,1.94a.09.09,0,0,0-.09,0,.32.32,0,0,0-.35.33l-.32.2c-.09,0-.14,0-.14.14l-.37.21a.18.18,0,0,0-.14-.06Z" transform="translate(269.58 110.96)"/>
    <path id="Path_122" data-name="Path 122" class="cls-3" d="M824.87,464.79c-.12-.32.31-.45.25-.75l.79-.85h.22c.07.36.89.6.25,1.05C826,464.52,825.69,465.45,824.87,464.79Z" transform="translate(269.58 110.96)"/>
    <path id="Path_126" data-name="Path 126" class="cls-3" d="M828.43,462.55c-.07.29-.34.35-.53.5-.6.46-.71.39-.87-.44C827.5,462.56,828,462.31,828.43,462.55Z" transform="translate(269.58 110.96)"/>
    <path id="Path_127" data-name="Path 127" class="cls-3" d="M802.27,449.82a9.586,9.586,0,0,0-.14-1.2.24.24,0,0,0,0-.33,2.323,2.323,0,0,1,.08-.36.27.27,0,0,0,.19-.31,3.14,3.14,0,0,1,2.4-1.59l.82-.06.53.08c.09.21.29.2.48.2l.27.06a.47.47,0,0,0,.4.3h0l.16.14a.09.09,0,0,0,.09.06l.72,1.05c.07.25.13.51.19.77v.16l-.21,1.4a2.92,2.92,0,0,0-.8.95l-.16.15a2.72,2.72,0,0,0-1,.51h-1.67l-.89-.24a.34.34,0,0,0-.28-.26l-.78-.73c0-.08,0-.09-.07-.09s-.13-.26-.19-.38S802.44,449.86,802.27,449.82Z" transform="translate(269.58 110.96)"/>
    <path id="Path_128" data-name="Path 128" class="cls-3" d="M806.94,459.65l-.6.23h-1.85l-.58-.24a.55.55,0,0,0-.42-.27s0-.05-.09-.05l-.25-.27-.17-.21a1.84,1.84,0,0,0-.49-.87,2.379,2.379,0,0,1,0-1.58l.16-.23a.08.08,0,0,0,0-.1c.15-.1.3-.2.31-.41h0a1.941,1.941,0,0,0,.13-.16h0c.13-.08.31-.12.35-.31l.34-.2a1.092,1.092,0,0,1,.17-.13l.32-.05c.19,0,.38,0,.48-.18h1.05c.16.26.42.2.65.21a2.76,2.76,0,0,1,1.53,1.38c0,.18,0,.37.2.48v1.23c-.22.09-.21.28-.21.47s-.15.32-.21.48a.34.34,0,0,0-.32.35,1.54,1.54,0,0,0-.18.18A.41.41,0,0,0,806.94,459.65Z" transform="translate(269.58 110.96)"/>
    <path id="Path_129" data-name="Path 129" class="cls-3" d="M801.94,408.05c.2-.67.78-1,1.21-1.52a1.33,1.33,0,0,0,.91-.45l.6-.06h1a3.29,3.29,0,0,1,1.82.73c.28.29.56.58.83.89a5.059,5.059,0,0,1,.42,3c-.23.1-.19.3-.2.48l-.06.25c-.2.15-.43.29-.43.59l-.7.67a5,5,0,0,1-2.86.54l-.57-.06-.27-.16h0a.38.38,0,0,0-.42-.28l-.63-.53c0-.12,0-.27-.21-.3l-.36-.69c0-.15,0-.27-.17-.33s0-.22-.08-.33a.23.23,0,0,0-.07-.35v-1a2.551,2.551,0,0,0,.24-1.09Z" transform="translate(269.58 110.96)"/>
    <path id="Path_130" data-name="Path 130" class="cls-3" d="M803.49,423.19,803,423c-.07-.29-.35-.36-.55-.49h0a.549.549,0,0,0-.34-.48l-.19-.35c0-.19,0-.39-.21-.47a19.381,19.381,0,0,0-.07-2c.35-.2.27-.59.4-.88a1.68,1.68,0,0,1,.57-.72c.31,0,.4-.29.57-.47l.27-.08a.48.48,0,0,0,.42-.24,4.24,4.24,0,0,1,3.54.49.39.39,0,0,0,.39.32l.15.16a.41.41,0,0,0,.32.42l.24.58c0,.13,0,.26.13.34a5.647,5.647,0,0,1,0,2c-.17.06-.16.2-.14.33s-.17.39-.25.58a.42.42,0,0,0-.32.41h0c-.07.05-.12.11-.19.17h0a.43.43,0,0,0-.4.33l-.41.23a1.11,1.11,0,0,0-.69.3,8.683,8.683,0,0,1-2.16.17l-.17-.14a.07.07,0,0,0-.09-.06.45.45,0,0,0-.33-.26Z" transform="translate(269.58 110.96)"/>
    <path id="Path_131" data-name="Path 131" class="cls-3" d="M786.24,392.2a.89.89,0,0,0-.69.13.56.56,0,0,0-.66,0,.7.7,0,0,0-.52-.13c0-.18-.19-.18-.33-.17s-.37-.17-.56-.24a.51.51,0,0,0-.41-.39l-.25-.42a1.423,1.423,0,0,0-.12-.13c-.11-.35-.37-.65-.36-1v-1.8a.37.37,0,0,0,.18-.39v-.07a.4.4,0,0,0,.28-.43l.18-.2a.52.52,0,0,0,.35-.44l.15-.07a.41.41,0,0,0,.34-.29l.5-.22a.45.45,0,0,0,.43-.25l1.42-.07h.57a.38.38,0,0,0,.44.26.2.2,0,0,0,.13,0,.39.39,0,0,0,.37.3l.35.35a.39.39,0,0,0,.31.38.19.19,0,0,0,0,.13.39.39,0,0,0,.27.44v.22a.49.49,0,0,0,.17.62L788.6,390c-.18,0-.18.19-.16.33a.21.21,0,0,0,0,.16l-.15.17-1,1.08a.31.31,0,0,0-.38.25.15.15,0,0,0-.13,0C786.53,392,786.34,392,786.24,392.2Z" transform="translate(269.58 110.96)"/>
    <path id="Path_132" data-name="Path 132" class="cls-3" d="M776.86,392.2l-.52.08a.54.54,0,0,0-.51,0,5.566,5.566,0,0,1-.67-.12c-.06-.17-.2-.17-.33-.17l-.24-.06c-.15-.21-.28-.46-.57-.5h0l-.21-.3-.06-.18a.479.479,0,0,1-.11-.09,2.135,2.135,0,0,1-.1-.27l-.08-.08-.19-.68V389a4,4,0,0,1,.7-2,.35.35,0,0,0,.31-.37h0l.15-.16h0a.39.39,0,0,0,.39-.3l.45-.23c.13,0,.27,0,.32-.17l.35-.1a.32.32,0,0,0,.44-.15l1.15.16c.11.14.22.28.43.26l.85.7a.42.42,0,0,0,.28.42l.24.93v1.34l-.24.92c-.15.11-.29.21-.28.42l-.19.32a.36.36,0,0,0-.32.35.379.379,0,0,0-.09.13.48.48,0,0,0-.48.35l-.45.22A.343.343,0,0,0,776.86,392.2Z" transform="translate(269.58 110.96)"/>
    <path id="Path_133" data-name="Path 133" class="cls-3" d="M827.13,467.15a1.64,1.64,0,0,1-1.08-1.08c-.27-.63.47-.75.78-1.09s.47-.28.75,0,.53.87,1,1.11a3,3,0,0,1-1.45,1.06Z" transform="translate(269.58 110.96)"/>
    <path id="Path_134" data-name="Path 134" class="cls-3" d="M829,465.47a4.5,4.5,0,0,0-.56-.79c-.45-.43-.47-.85.1-1.06s-.2-.86.47-.79a1.79,1.79,0,0,1-.01,2.64Z" transform="translate(269.58 110.96)"/>
    <path id="Path_135" data-name="Path 135" class="cls-3" d="M774.7,413.07a1,1,0,0,1,.3-1.58.77.77,0,0,1,1.1.24c.31.41-.05.58-.32.78a1,1,0,0,0-.45.58Z" transform="translate(269.58 110.96)"/>
    <path id="Path_136" data-name="Path 136" class="cls-3" d="M825.67,463.31A2.16,2.16,0,1,0,829,463a2.43,2.43,0,0,0-3.33.31Z" transform="translate(269.58 110.96)"/>
    <path id="Path_137" data-name="Path 137" class="cls-5" d="M975.59,375.2,943.09,488H891.31l57.83-161.4h53.79L1060.77,488h-52.68l-32.5-112.8m0,0" transform="translate(269.58 110.96)"/>
    <path id="Path_138" data-name="Path 138" class="cls-6" d="M975.15,375.2,942.64,488H890.86l57.83-161.4h53.8L1060.32,488h-52.67l-32.5-112.8m0,0" transform="translate(269.58 110.96)"/>
    <path id="Path_139" data-name="Path 139" class="cls-6" d="M1065.81,364.83Q1005.13,411,929.59,439.17C879.23,458,833.14,466.61,791.35,467.4c-37.31.7-61.36-12.08-67.68-40.77,54.43,0,98-5.92,139.86-18.6s62.86-27.27,62.86-43.72q0-15-22.61-24t-60.23-9c-4.47,0-8.86.09-13.21.23,13.36,4.84,22.72,10.86,29.91,17.26,0,0,9.32,8.11,9.26,13.78-.13,13.12-14.53,24.68-43.6,34.68S763,412.61,722.33,413.62c-.39-34.17,15.12-57.16,36.2-72.08a236.918,236.918,0,0,0-48.12,18.23q-55.27,28.43-55.28,68.44,0,27.74,30.48,43.74t83,16q82,0,173.4-33.09t148.6-83.56Z" transform="translate(269.58 110.96)"/>
    <path id="Path_140" data-name="Path 140" class="cls-7" d="M1004.64,268.98l-17.65,40.4-25.67-33.61Z" transform="translate(364 194)"/>
    <path id="Path_141" data-name="Path 141" class="cls-5" d="M975.59,374.9m0,0-32.5,112.75H891.31l57.83-161.4,26.45,48.65" transform="translate(269.58 110.96)"/>
    <path id="Path_142" data-name="Path 142" class="cls-6" d="M975.59,374.9m0,0h0l-32.5,112.75H891.31l57.83-161.4" transform="translate(269.58 110.96)"/>
  </g>
</svg>
