<svg xmlns="http://www.w3.org/2000/svg" viewBox="0 0 263.403 37.161">
  <defs>
    <style>
      .cls-1, .cls-5 {
        fill: #0e4194;
      }

      .cls-1, .cls-6 {
        stroke: #fff;
      }

      .cls-1 {
        stroke-linecap: round;
        stroke-width: 2.66px;
      }

      .cls-2 {
        fill: #5192c5;
      }

      .cls-3 {
        fill: #fff;
      }

      .cls-4 {
        fill: #be1e2d;
      }

      .cls-6, .cls-7 {
        fill: #0d47a1;
      }

      .cls-6 {
        stroke-width: 1.22px;
      }
    </style>
  </defs>
  <g id="Group_602" data-name="Group 602" transform="translate(-20.394 -17.456)">
    <g id="EA_Logo" data-name="EA Logo" transform="translate(-2417.896 -11741)">
      <path id="Path_1" class="cls-1" d="M2849.327,11784.8l-4.008,8.991-5.819-7.478Z" transform="translate(-309.895 -20.057)"/>
      <g id="Group_3" transform="translate(2454.614 11759.779)">
        <g id="Group_2">
          <path id="Path_2" class="cls-2" d="M2508.3,11780.471a18.173,18.173,0,1,0,18.159-17.871,18.372,18.372,0,0,0-12.839,5.23A17.792,17.792,0,0,0,2508.3,11780.471Z" transform="translate(-2508.3 -11762.577)"/>
          <g id="Group_1" transform="translate(5.14)">
            <path id="Path_3" class="cls-3" d="M2597.487,11850.37a1.22,1.22,0,0,1-.227.356c-.045,0-.068.021-.09.066a.985.985,0,0,1-.657.133.406.406,0,0,0-.2-.089.414.414,0,0,1-.159-.111c0-.021-.023-.021-.023-.045s-.022-.021-.022-.044l-.045-.045h0a.156.156,0,0,0-.068-.133v-.022c-.022-.022-.022-.022-.022-.045a1.551,1.551,0,0,1,.045-.557c.046-.021.068-.044.068-.089.022-.021.022-.045.045-.066.045-.021.068-.044.068-.089h0c.045,0,.068-.045.091-.066s.045-.022.068-.044a.239.239,0,0,0,.2-.111,1.349,1.349,0,0,1,.521.044c.023.045.045.067.091.067h.022a.265.265,0,0,0,.114.11h0a.145.145,0,0,0,.09.11c0,.022,0,.022.023.022h0c.022.067.022.134.09.156,0,.155.091.312,0,.468h0C2597.464,11850.348,2597.487,11850.348,2597.487,11850.37Z" transform="translate(-2581.251 -11830.031)"/>
            <path id="Path_4" class="cls-4" d="M2587.194,11818.822v.066c0,.045,0,.09.046.112v.289c-.046.022-.046.066-.046.111a.319.319,0,0,0-.045.134c-.068.044-.091.111-.158.155a.885.885,0,0,1-.929.111c0-.021-.023-.066-.045-.066h-.023c-.022-.022-.045-.022-.068-.045s-.023-.044-.045-.044a.291.291,0,0,0-.068-.089,1.4,1.4,0,0,1-.113-.268v-.334c.045-.022.045-.067.045-.111v-.022l.045-.045s.022-.022,0-.022a1.058,1.058,0,0,1,.611-.354c.114,0,.227.021.317.021.045.022.068.067.136.067a.469.469,0,0,1,.136.089l.113.111c0,.022.023.022.023.045A.327.327,0,0,0,2587.194,11818.822Z" transform="translate(-2573.314 -11805.96)"/>
            <path id="Path_5" class="cls-3" d="M2565.807,11850.711h-.045l-.045-.045c-.023-.045-.045-.09-.091-.09-.023-.021-.045-.044-.045-.066s0-.022-.023-.045c0-.021-.023-.021-.023-.044-.023-.067-.09-.134-.09-.224,0-.044.022-.111-.046-.155v-.155c.068-.09.046-.2.091-.289,0-.022.022-.022.022-.045.023,0,.023-.022.023-.045.023-.021.023-.045.045-.066.045,0,.068-.021.091-.066.023-.021.045-.021.068-.045.022,0,.022-.021.045-.021a.732.732,0,0,1,.679,0c0,.021.022.021.045.021.068.045.135.111.2.156,0,.021.022.066.045.066h.022c.023.045.023.066.045.111.023.066.023.155.09.2a2.917,2.917,0,0,1-.045.445c-.045.023-.068.045-.068.09v.022a.6.6,0,0,0-.158.178c-.045.022-.068.045-.113.067a.124.124,0,0,0-.113.066h0c-.023,0-.045.022-.068.022h-.362c-.023,0-.045-.022-.068-.022h-.046c-.022,0-.045-.021-.068-.021Z" transform="translate(-2557.611 -11829.925)"/>
            <path id="Path_6" class="cls-3" d="M2565.446,11828.934v-.045a.168.168,0,0,0,.045-.111h0c.045-.022.068-.045.068-.089h.023v-.022l.09-.089h.023v-.022c.023-.021.045-.021.068-.045s.022-.021.045-.021h.046c.068-.022.158-.022.2-.089h.294a.25.25,0,0,0,.2.089h.023c.022.045.045.066.091.066l.045.045a.276.276,0,0,0,.114.111v.021c0,.022,0,.067.022.067,0,.022.023.044.023.066-.023.045,0,.045.045.067a.9.9,0,0,0,.023.245,1.472,1.472,0,0,1-.2.467l-.068.066-.045.045c-.023.021-.045.021-.045.044a.918.918,0,0,1-.544.111c-.068-.021-.136-.045-.227-.066,0-.045-.045-.045-.09-.045a.521.521,0,0,1-.159-.155c0-.021,0-.066-.045-.066a.8.8,0,0,0-.09-.2.194.194,0,0,0-.023-.111V11829C2565.468,11829.022,2565.446,11828.978,2565.446,11828.934Z" transform="translate(-2557.611 -11813.734)"/>
            <path id="Path_7" class="cls-3" d="M2595.991,11860l.022-.021c.023,0,.068-.023.068-.045v-.022c.045-.022.068-.067.113-.089a.83.83,0,0,1,.725-.09.688.688,0,0,1,.453.535v.355c-.023.022-.045.045-.023.066a1.057,1.057,0,0,1-.2.268c-.023,0-.045,0-.045.021a.57.57,0,0,1-.159.09c-.045,0-.068.021-.09.066-.023,0-.068.022-.091.022s-.022,0-.045.022h-.226a.5.5,0,0,0-.249-.111c-.159-.111-.34-.223-.34-.445v-.445a.114.114,0,0,0,.045-.089c.045-.021.045-.044.045-.089Z" transform="translate(-2581.205 -11838.062)"/>
            <path id="Path_8" class="cls-3" d="M2576.887,11818.388a.848.848,0,0,1,.294.268c0,.044.023.066.068.089a.279.279,0,0,0,.022.134v.333a.519.519,0,0,0-.045.179c-.045.022-.068.044-.068.089v.022a.144.144,0,0,0-.113.111h0a.125.125,0,0,0-.113.067.979.979,0,0,1-.611.109.162.162,0,0,0-.136-.065h-.022c-.023-.044-.046-.067-.091-.067l-.045-.044v-.022H2576l-.068-.066-.022-.022h0c0-.045-.023-.067-.068-.089a.519.519,0,0,1-.045-.178v-.334c.022-.066,0-.134.045-.2l.045-.044c0-.022,0-.022.023-.045.045-.022.045-.044.045-.066h.023c0-.022.022-.022.045-.045h0a.125.125,0,0,0,.113-.067c.045-.021.068-.044.113-.044a.477.477,0,0,0,.249-.089h.113c.045.045.09.066.136.045.023,0,.045.021.091.021C2576.819,11818.388,2576.841,11818.388,2576.887,11818.388Z" transform="translate(-2565.656 -11805.881)"/>
            <path id="Path_9" class="cls-3" d="M2577.117,11860.646c-.023,0-.023.023,0,0-.023.045-.023.067-.046.067a.6.6,0,0,1-.158.179.048.048,0,0,0-.045.044.567.567,0,0,1-.158.089.478.478,0,0,0-.249.09h-.181c-.023-.045-.046-.045-.091-.045-.023,0-.045-.022-.091-.022,0-.022-.045-.044-.068-.044-.022-.023-.068-.023-.091-.045-.022-.045-.045-.066-.091-.066h0l-.045-.045h0c0-.022-.022-.066-.045-.066h-.023c0-.023,0-.023-.023-.023a.124.124,0,0,0-.068-.111h0c0-.021,0-.066-.023-.066a.191.191,0,0,0-.022-.109v-.269a.283.283,0,0,1,.022-.134.227.227,0,0,0,.113-.178h0c.045-.021.068-.044.068-.066l.045-.045c.091-.044.2-.111.295-.155.113,0,.249-.022.362-.022.022.045.045.066.091.066a.323.323,0,0,0,.136.045c.023.045.045.066.09.066l.045.045.068.066c.023.021.023.045.045.045,0,.045.023.066.068.09.022.065.022.109.045.177a3.064,3.064,0,0,1,.023.444Z" transform="translate(-2565.501 -11837.992)"/>
            <path id="Path_10" class="cls-3" d="M2556.445,11828.612a.32.32,0,0,0,.045-.134c.045-.022.068-.045.068-.09,0-.021.023-.021.045-.044.045,0,.068-.022.091-.067a2.287,2.287,0,0,0,.339-.155h.023l.022-.022c.114.022.2.022.317.045.023.044.045.066.091.066h.023a1.059,1.059,0,0,0,.227.223v.022c0,.022,0,.066.045.066a1,1,0,0,1,.022.579c-.045.021-.068.044-.068.089a1.756,1.756,0,0,1-.272.333.438.438,0,0,0-.226.111.862.862,0,0,1-.408-.044l-.2-.134c-.045-.089-.136-.133-.159-.244a.116.116,0,0,0-.045-.09v-.066c.023-.045.023-.066-.022-.111v-.155c.022-.022.022-.045.022-.089s.023-.067.023-.111Z" transform="translate(-2550.649 -11813.501)"/>
            <path id="Path_11" class="cls-3" d="M2556.523,11849.723a.82.82,0,0,1,.611-.423.521.521,0,0,1,.181.021.369.369,0,0,0,.2.111,1.016,1.016,0,0,1,.34.979c-.09.067-.09.156-.158.246a.552.552,0,0,1-.136.109.369.369,0,0,0-.2.112,1.965,1.965,0,0,1-.362-.022c-.022-.021-.045-.045-.091-.021h0l-.022-.021c-.046-.023-.068-.045-.113-.045,0-.022-.023-.067-.045-.067h-.023l-.045-.044c0-.045-.023-.067-.068-.09-.022-.044-.022-.089-.045-.133,0-.045,0-.09-.045-.09v-.089a.721.721,0,0,0,0-.312c0-.045.023-.066.023-.111Z" transform="translate(-2550.726 -11829.983)"/>
            <path id="Path_12" class="cls-3" d="M2585.958,11810.1c-.022-.045-.045-.066-.068-.11a.36.36,0,0,0-.091-.156v-.334c.023-.067.023-.134.045-.2l.045-.045c0-.022,0-.022.023-.045a.264.264,0,0,0,.113-.111.809.809,0,0,1,.679-.155c.023.044.068.044.114.044a.323.323,0,0,0,.136.045c.023.045.045.066.091.066h0c.022,0,.022.022.045.022l.045.045c0,.022.023.022.023.044h0c0,.045.022.067.068.09a.639.639,0,0,1,.045.2v.289a.4.4,0,0,0-.045.156c-.068.021-.068.089-.114.133h0c-.045,0-.068.022-.09.067h0a1.218,1.218,0,0,0-.294.155h-.34a1.763,1.763,0,0,1-.363-.155C2586.026,11810.121,2586,11810.1,2585.958,11810.1Z" transform="translate(-2573.392 -11798.594)"/>
            <path id="Path_13" class="cls-3" d="M2547.223,11839.444v-.2a.188.188,0,0,0,.045-.156v-.11c.023-.022.023-.022.023-.045a.223.223,0,0,0,.091-.111.144.144,0,0,0,.113-.11h0c.023,0,.068,0,.068-.045a.562.562,0,0,1,.589-.022c.023.067.068.067.136.089v.022c0,.021.023.066.045.066h.023c.022.022.022.045.045.066,0,.045.023.066.068.09.022.065.022.11.045.177v.513c0,.022-.023.022-.023.045,0,0-.022,0,0,.021h-.022c-.023.022-.023.067-.045.09-.046,0-.046.044-.046.066-.045.045-.091.111-.136.156-.045,0-.068.021-.091.066a.322.322,0,0,1-.135.045h-.295a.862.862,0,0,1-.249-.111c0-.022,0-.045-.023-.045l-.045-.045-.045-.044h0c0-.045-.022-.089-.068-.089a.187.187,0,0,1-.045-.156c0-.045.023-.111-.045-.156C2547.223,11839.533,2547.223,11839.488,2547.223,11839.444Z" transform="translate(-2543.532 -11821.642)"/>
            <path id="Path_14" class="cls-3" d="M2595.979,11810.225a.72.72,0,0,1-.634-.535.236.236,0,0,0-.045-.178c.023-.089.045-.2.068-.29,0-.022.022-.022.022-.044a.664.664,0,0,1,.34-.312c.045,0,.113,0,.136-.066h.295a.187.187,0,0,0,.181.066c.113.09.2.179.317.268,0,.045.023.066.068.089a.645.645,0,0,1,.046.2v.334c0,.021,0,.021-.023.044,0,.022-.023.045-.023.067-.045.021-.068.044-.068.089a.851.851,0,0,1-.453.268Z" transform="translate(-2580.741 -11798.495)"/>
            <path id="Path_15" class="cls-3" d="M2548.405,11829.9h0a1.387,1.387,0,0,1-.294.045c-.068-.022-.159-.022-.227-.045h-.022c0-.045-.045-.066-.09-.066-.091-.045-.113-.134-.159-.223,0-.045-.023-.067-.068-.09v-.045a.187.187,0,0,0-.045-.156c.022-.133.022-.266.045-.377.045-.023.068-.045.068-.09.045-.156.181-.223.271-.334a.114.114,0,0,0,.09-.045.591.591,0,0,1,.476-.021.361.361,0,0,0,.158.089c.045.067.113.134.158.2a.461.461,0,0,0,.091.245v.333c-.068.045-.068.135-.091.2-.022.045-.022.067-.045.111,0,.023-.023.023-.023.045l-.2.2C2548.451,11829.838,2548.428,11829.859,2548.405,11829.9Z" transform="translate(-2543.764 -11813.747)"/>
            <path id="Path_16" class="cls-3" d="M2577.183,11810.379h-.385a.755.755,0,0,0-.227-.111.53.53,0,0,1-.272-.444v-.223c.045-.111.045-.244.159-.333.068-.067.136-.111.2-.179.045-.022.091-.022.136-.044.045,0,.09,0,.113-.045a1.576,1.576,0,0,1,.566.089c.022.044.045.067.09.067h0c0,.021.022.021.045.044l.045.044.045.045v.022c0,.067.045.089.068.134a.9.9,0,0,1,0,.489c-.068.089-.113.156-.181.245h0a.263.263,0,0,0-.113.111h-.023c-.045,0-.068.021-.09.066h-.046C2577.206,11810.357,2577.206,11810.357,2577.183,11810.379Z" transform="translate(-2566.043 -11798.652)"/>
            <path id="Path_17" class="cls-3" d="M2596.564,11870.533a1.849,1.849,0,0,0-.362.178,2.05,2.05,0,0,1-.362-.021c-.023-.067-.091-.045-.136-.067a1.906,1.906,0,0,1-.227-.2.621.621,0,0,1-.135-.557c.023-.066.091-.155.091-.222a.692.692,0,0,0,.113-.156.41.41,0,0,1,.158-.111.7.7,0,0,0,.272-.111.812.812,0,0,1,.724.268c0,.044.023.066.068.089a.644.644,0,0,1,.045.2,1.871,1.871,0,0,1-.023.355c-.022.066-.2.311-.226.355C2596.5,11870.578,2596.587,11870.488,2596.564,11870.533Z" transform="translate(-2580.76 -11845.497)"/>
            <path id="Path_18" class="cls-3" d="M2604.925,11810.036a.123.123,0,0,0-.068-.111l-.045-.044c.022-.134-.068-.268,0-.4a.591.591,0,0,1,.724-.489h.091c.022.044.068.044.113.044.022.022.045.067.113.045.023.045.045.066.091.066.022.022.045.045.068.045l.045.045c.022.021.022.044.045.044,0,.045.023.067.068.089,0,.022.022.045.022.067s.023.022.023.044v.556l-.045.045v.022l-.045.044-.135.134c-.045,0-.068.022-.091.067a.459.459,0,0,1-.249.044h-.113c-.068-.022-.136-.022-.2-.044-.022-.022-.045-.067-.09-.067h-.045c-.022-.022-.045-.044-.068-.044,0-.022-.023-.067-.045-.067h-.023C2604.993,11810.1,2604.97,11810.059,2604.925,11810.036Z" transform="translate(-2588.079 -11798.643)"/>
            <path id="Path_19" class="cls-3" d="M2606.019,11869.673c.023.044.068.066.09.111.023.022.023.044.045.044h0c.023.022.023.045.045.045a.13.13,0,0,0,.023.089v.379c0,.066-.068.111-.045.179-.045.021-.068.044-.068.089l-.158.155c-.045,0-.068.022-.09.066-.045.022-.068.022-.114.045-.045,0-.09,0-.113.044-.113,0-.227.022-.317.022a.163.163,0,0,0-.136-.066.117.117,0,0,0-.091-.045c-.022-.066-.068-.066-.113-.089v-.022a.356.356,0,0,0-.113-.2.736.736,0,0,1,.158-.735.273.273,0,0,0,.114-.111h.023c.022,0,.022-.021.045-.021h.045c.045,0,.068-.022.09-.067a1.046,1.046,0,0,1,.521,0,.538.538,0,0,1,.158.089Z" transform="translate(-2588.108 -11845.728)"/>
            <path id="Path_20" class="cls-3" d="M2567.313,11809.255c.022-.022.022-.044.045-.066.045,0,.068-.021.068-.089a.543.543,0,0,1,.272-.155c.046,0,.091,0,.113-.045h.317c.023.045.068.045.113.045a.575.575,0,0,1,.34.444v.29a1.836,1.836,0,0,1-.272.445.369.369,0,0,0-.2.111.894.894,0,0,1-.589,0c-.022-.045-.045-.067-.091-.067h0l-.023-.021c-.023-.022-.045-.067-.09-.09a.459.459,0,0,0-.091-.134c0-.044-.022-.066-.022-.111v-.334a.134.134,0,0,1,.022-.089c.023-.022.023-.045.045-.045,0-.021.023-.044.023-.066C2567.29,11809.3,2567.313,11809.277,2567.313,11809.255Z" transform="translate(-2559.003 -11798.574)"/>
            <path id="Path_21" class="cls-3" d="M2549.211,11818.35a.684.684,0,0,1,.362.022.126.126,0,0,0,.113.066c.023,0,.023.022.045.022,0,.044.022.066.068.088.023.023.023.045.045.067,0,.044,0,.089.045.111,0,.022.023.044.023.089-.023.022-.023.045.023.066v.223a.083.083,0,0,0-.023.067c0,.022-.023.045-.023.089-.068.045-.045.111-.068.156,0,.022-.023.022-.045.045-.045.021-.068.045-.068.089h0c0,.022-.023.022-.023.044l-.045.045c-.023,0-.023,0-.023.022a.414.414,0,0,0-.158.111c-.045,0-.091,0-.113.044-.045,0-.113.023-.158.023a.1.1,0,0,0-.114,0c-.022,0-.045-.023-.068-.023,0-.044-.046-.044-.068-.044a.223.223,0,0,1-.113-.089c0-.022,0-.022-.023-.022a.227.227,0,0,0-.091-.111c0-.022,0-.067-.045-.067,0-.021-.023-.044-.023-.066.045-.045-.023-.066-.045-.089.023-.111-.023-.245.045-.356a.158.158,0,0,0,.068-.133v-.045c0-.021.023-.021.023-.045a.929.929,0,0,1,.362-.355C2549.143,11818.416,2549.166,11818.372,2549.211,11818.35Z" transform="translate(-2544.615 -11805.911)"/>
            <path id="Path_22" class="cls-4" d="M2540.4,11828.293c.385-.021.589.156.679.556v.335c-.023.089-.023.155-.045.244-.045.022-.068.045-.068.09-.045.022-.045.044-.045.089a1.56,1.56,0,0,0-.294.245h0a.976.976,0,0,0-.249.021h-.068c-.068-.045-.113-.11-.181-.11-.091-.067-.091-.179-.158-.268,0-.045,0-.089-.045-.111a.6.6,0,0,0-.023-.2v-.067c0-.066.023-.134.023-.2a.186.186,0,0,0,.045-.156v-.022a.4.4,0,0,0,.113-.155c.023-.022.023-.045.046-.067.045,0,.068-.021.09-.066.023-.022.045-.022.068-.045C2540.285,11828.382,2540.353,11828.338,2540.4,11828.293Z" transform="translate(-2537.885 -11813.649)"/>
            <path id="Path_23" class="cls-3" d="M2558.4,11809.79v-.111c.068-.045.046-.111.046-.179s.068-.089.045-.156c.045,0,.068-.044.068-.089,0-.022.023-.022.023-.044.046,0,.068-.022.068-.09l.045-.044c.045,0,.068-.022.091-.067a.335.335,0,0,1,.136-.044c.046,0,.091-.021.091-.066h.294c.023.045.045.066.091.066.114.089.249.155.272.312,0,.045,0,.089.045.111v.268c-.045.022-.022.066-.022.111v.066c0,.021-.023.021-.023.045-.046.066-.114.155-.159.223a.048.048,0,0,0-.045.045c-.045.021-.068.066-.113.089a.152.152,0,0,0-.136.089c-.045,0-.113.022-.158.022h-.272a.92.92,0,0,0-.2-.111l-.045-.045c0-.044-.022-.066-.068-.089-.023-.045-.023-.067-.045-.112C2558.445,11809.9,2558.468,11809.834,2558.4,11809.79Z" transform="translate(-2552.196 -11798.574)"/>
            <path id="Path_24" class="cls-3" d="M2586.815,11800.1a.97.97,0,0,0,.249.045.06.06,0,0,0,.068.066.634.634,0,0,1,.2.223l.023.021a.7.7,0,0,1,.068.424c0,.021-.022.021-.022.044s-.023.045-.023.067c-.022.021-.068.045-.045.089a.583.583,0,0,1-.158.177c-.045,0-.068.023-.091.067h-.023c-.045,0-.091,0-.113.044-.045,0-.068.023-.114.023a.533.533,0,0,0-.271,0c-.023,0-.045-.023-.068-.023-.023-.021-.045-.044-.068-.044-.045-.022-.068-.022-.113-.044-.023-.023-.023-.023-.045-.023a.586.586,0,0,0-.136-.109l-.023-.023c-.023-.021-.023-.044-.045-.088,0-.023,0-.067-.045-.067,0-.022-.023-.045-.023-.067a.372.372,0,0,0,0-.223.566.566,0,0,1,.227-.4.306.306,0,0,0,.181-.111.459.459,0,0,1,.249-.044A.447.447,0,0,1,2586.815,11800.1Z" transform="translate(-2573.547 -11791.732)"/>
            <path id="Path_25" class="cls-3" d="M2615.213,11869.813a.931.931,0,0,1-.136.645c-.045,0-.045.045-.045.066l-.045.045c-.045.045-.113.09-.158.134l-.136.067c-.023,0-.068,0-.068.044h-.385c-.023-.044-.045-.044-.068-.044h-.023a.261.261,0,0,0-.113-.111c0-.023-.022-.023-.022-.045v-.022h-.022a.448.448,0,0,0-.091-.179v-.377a.919.919,0,0,1,.091-.223c.022,0,.022-.021.022-.045s0-.021.022-.044l.046-.044.113-.112c.045,0,.068-.022.091-.066a.758.758,0,0,1,.656-.067c.023.045.046.067.091.067.045.066.113.134.158.2C2615.168,11869.746,2615.168,11869.791,2615.213,11869.813Z" transform="translate(-2595.129 -11845.601)"/>
            <path id="Path_26" class="cls-3" d="M2576.129,11829.857a.974.974,0,0,1-.611-.112c-.181-.222-.385-.423-.34-.733a.792.792,0,0,1,.5-.623.05.05,0,0,0,.046-.045c.068-.022.136-.022.2-.045.068,0,.159.022.226.022.022,0,.022.022.045.022.023.021.046.045.091.021l.022.023c0,.021.023.021.045.021a.7.7,0,0,1,.317.313.2.2,0,0,0,.068.154,1.073,1.073,0,0,1-.023.535c-.045,0-.045.045-.045.066a.479.479,0,0,0-.113.178.151.151,0,0,0-.113.089l-.045.045A.605.605,0,0,0,2576.129,11829.857Z" transform="translate(-2565.17 -11813.656)"/>
            <path id="Path_27" class="cls-3" d="M2596.078,11801.223h-.023c-.023,0-.023.022-.045.022h-.045c-.045,0-.091,0-.114.044a.775.775,0,0,0-.226.022.042.042,0,0,0-.068,0h0a.775.775,0,0,1-.317-.111c-.023-.045-.045-.066-.091-.066h0a.223.223,0,0,0-.09-.112c-.023-.044-.068-.111-.091-.155,0-.045,0-.089-.045-.111a.624.624,0,0,0-.023-.289c.046-.022.068-.045.046-.089a.32.32,0,0,0,.045-.134.178.178,0,0,0,.09-.089c.046-.022.091-.067.136-.09.045,0,.091-.021.091-.044a.289.289,0,0,0,.135-.022h.181a.289.289,0,0,1,.136.022c.023,0,.023,0,.045.022,0,0,.022.021.022,0a.314.314,0,0,0,.181.111c.045.066.113.133.181.223,0,.044.023.089.068.089,0,.089.023.178.023.289a.1.1,0,0,0-.023.111c0,.022-.023.044-.023.066-.045,0-.045.045-.045.067-.045.044-.068.089-.113.133C2596.123,11801.178,2596.1,11801.2,2596.078,11801.223Z" transform="translate(-2580.431 -11791.652)"/>
            <path id="Path_28" class="cls-3" d="M2577.421,11801.47c-.045,0-.068-.022-.113-.022-.023-.045-.045-.045-.068-.022h-.022c0-.045-.045-.066-.091-.066l-.045-.044c0-.045-.023-.067-.068-.089h0l-.045-.045v-.067c0-.044,0-.111-.068-.133v-.223c.068-.022.068-.089.068-.134.022-.044,0-.089.045-.111.023,0,.068-.021.068-.044v-.022l.045-.045.023-.022h0c.022-.021.022-.021.045-.021l.045-.045c.046,0,.068,0,.091-.045.023,0,.023,0,.023-.021h0c.045,0,.09,0,.113-.045h.294a.663.663,0,0,0,.2.045c.023.066.135.066.181.133h0c.023.022.023.022.023.045a1.027,1.027,0,0,1,.113.578c-.045.022-.068.045-.045.09-.023.044-.023.066-.046.111-.068,0-.068.066-.09.111h-.023c-.045,0-.068.022-.09.066-.045.022-.068.022-.091.045-.045,0-.113,0-.136.066h-.09a.858.858,0,0,0-.249-.022Z" transform="translate(-2566.507 -11791.811)"/>
            <path id="Path_29" class="cls-3" d="M2595.449,11878.857c.022,0,.022-.023.045-.023h.023v-.021c.022-.022.068-.022.09-.045.136-.021.272-.045.43-.066.045,0,.068.021.113.021.023.045.045.045.068.023.045.021.068.021.113.044l.045.044c.045.045.068.09.113.134,0,.044.023.089.068.089a.613.613,0,0,0,.023.2.2.2,0,0,0-.023.111.784.784,0,0,1-.091.244c-.045.021-.068.045-.045.09a.878.878,0,0,1-.43.266h-.294c-.046,0-.068-.021-.113-.021-.091-.066-.2-.155-.295-.223-.022-.021-.022-.066-.045-.089,0-.044,0-.089-.045-.111v-.334c.045-.021.023-.044.023-.066.022-.022.022-.066.045-.089h.022c0-.022.023-.022.045-.045.022,0,.022-.021.022-.045a.348.348,0,0,0,.091-.088Z" transform="translate(-2580.664 -11852.842)"/>
            <path id="Path_30" class="cls-3" d="M2604.719,11880.012h-.068a2.422,2.422,0,0,1-.385-.021h0a.127.127,0,0,0-.113-.067h0c-.068-.089-.136-.2-.2-.289a.89.89,0,0,1,.023-.424c.022-.021.045-.044.022-.066.046-.021.068-.089.091-.156.023,0,.068-.021.068-.044v-.022c.045-.089.158-.111.227-.156.045,0,.091,0,.113-.044.045,0,.068-.022.113-.022a.2.2,0,0,0,.158,0,.171.171,0,0,1,.113.022c.023.044.068.044.113.044.022.022.045.022.068.045,0,.045.045.045.068.066s.023.045.045.045c0,.045.022.09.068.09a2.392,2.392,0,0,1,.045.4c-.023.021-.023.045-.045.066v.045c-.045.021-.068.045-.068.089a.223.223,0,0,1-.091.111c0,.022-.022.022-.022.045-.046.044-.091.066-.113.111-.023,0-.045.022-.068.022a.048.048,0,0,0-.045.045C2604.787,11879.969,2604.741,11879.969,2604.719,11880.012Z" transform="translate(-2587.42 -11852.84)"/>
            <path id="Path_31" class="cls-4" d="M2604.521,11800.1c.068.022.136.022.2.045.022.044.045.066.09.066.045.022.068.066.113.09.045.044.068.088.113.133l.045.045c0,.045.022.089.068.089a.983.983,0,0,1,0,.512c-.046.022-.068.044-.068.089-.068.045-.136.111-.2.156-.022,0-.068,0-.068.045-.022,0-.045.021-.09.021a.582.582,0,0,0-.272,0h-.045a.161.161,0,0,0-.136-.066.119.119,0,0,0-.091-.045c-.023-.045-.045-.066-.091-.066h-.023c0-.09-.068-.111-.113-.156v-.021c0-.023,0-.045-.045-.045a.615.615,0,0,1,0-.623c0-.022.023-.022.023-.045.022-.066.113-.089.158-.156a.124.124,0,0,0,.113-.066Z" transform="translate(-2587.336 -11791.732)"/>
            <path id="Path_32" class="cls-3" d="M2551.455,11810l-.023.023a.047.047,0,0,0-.045.044c-.023.022-.023.044-.046.067-.045,0-.068.044-.09.089-.023.021-.045.021-.068.044-.023,0-.068,0-.068.045a1.287,1.287,0,0,1-.271.089h-.159c-.045-.022-.091-.022-.136-.044a.921.921,0,0,0-.158-.134.313.313,0,0,1-.045-.134c0-.045,0-.09-.045-.111v-.223c.068-.045.045-.09.045-.156a1.327,1.327,0,0,0,.114-.268l.249-.244h0a.17.17,0,0,0,.113-.045h.045c.023,0,.068,0,.068-.044h.317c.022.044.068.044.113.044.023.022.068.045.091.066l.023.022a.869.869,0,0,1,.135.468c-.045.022-.045.045-.023.09v.088c-.045.023-.068.045-.068.09v.045C2551.5,11809.936,2551.478,11809.98,2551.455,11810Z" transform="translate(-2545.93 -11798.653)"/>
            <path id="Path_33" class="cls-3" d="M2569.555,11800.211h0c.022.045.045.111.113.134a.626.626,0,0,1,.045.2v.335c-.022.021-.045.044-.045.066v.022c-.045.021-.068.044-.068.089-.091.09-.181.155-.271.244-.045.022-.113,0-.158.066a1,1,0,0,1-.521-.044.488.488,0,0,1-.2-.223c0-.022,0-.067-.022-.067,0-.088-.023-.2-.023-.288.023-.046.068-.09.045-.157a.309.309,0,0,0,.045-.133c.045-.021.068-.045.068-.09,0-.021.023-.021.045-.045.045,0,.068-.02.091-.064.022-.022.045-.022.068-.045.022,0,.045,0,.045-.022.022,0,.022,0,.022-.022h0c.045.022.068,0,.091-.044.045,0,.091-.022.136-.022h.181a.663.663,0,0,0,.2.045C2569.487,11800.188,2569.509,11800.211,2569.555,11800.211Z" transform="translate(-2559.932 -11791.732)"/>
            <path id="Path_34" class="cls-3" d="M2541.146,11819.778l-.045-.045c0-.021-.022-.021-.022-.044h0c0-.045-.023-.066-.068-.09a.628.628,0,0,1-.046-.533c.023,0,.023-.022,0-.022a.17.17,0,0,0,.046-.111c.045-.021.068-.045.045-.089.023-.045.045-.066.045-.111.068-.022.091-.089.113-.155h0c.045,0,.068-.022.09-.067.068-.022.114-.066.181-.089a.172.172,0,0,0,.114-.022h.158c.068.022.113.066.181.089.045.067.114.156.158.223,0,.045,0,.09.045.111v.378c-.045.134-.113.245-.158.379-.113.089-.181.223-.34.267-.022,0-.068,0-.068.045a.138.138,0,0,0-.091.022h-.068a.171.171,0,0,1-.114-.022c-.023-.045-.068-.045-.113-.045h0C2541.169,11819.8,2541.146,11819.8,2541.146,11819.778Z" transform="translate(-2538.678 -11805.959)"/>
            <path id="Path_35" class="cls-3" d="M2612.4,11800.754v-.4a.313.313,0,0,0,.045-.133c.045-.023.068-.046.068-.09.023,0,.068-.023.068-.045.023,0,.023-.022.046-.022a.626.626,0,0,1,.453-.044c.023,0,.023.021.045.021s.045.022.068.022c.023.044.045.067.091.067h.023c0,.044.045.066.091.066l.068.066c0,.044.022.066.068.089h0a.159.159,0,0,0,.068.134h0a.114.114,0,0,0,.046.089v.378a.541.541,0,0,1-.227.313c-.045,0-.068.021-.09.066a2.05,2.05,0,0,1-.362-.021c-.023-.045-.068-.045-.113-.045a.271.271,0,0,1-.226-.156c0-.021-.023-.066-.046-.066h-.022c0-.022-.023-.022-.023-.045,0-.045-.023-.089-.068-.089v-.044A.549.549,0,0,1,2612.4,11800.754Z" transform="translate(-2593.969 -11791.651)"/>
            <path id="Path_36" class="cls-3" d="M2612.4,11879.372a.9.9,0,0,1,.091-.223c.022,0,.022-.022.022-.044a.61.61,0,0,1,.159-.179c.068,0,.09-.044.136-.089.022,0,.022,0,.022-.022.023,0,.023,0,.023-.022h.045c.023,0,.068,0,.068-.044a.744.744,0,0,1,.385.021.44.44,0,0,1,.295.356v.222a.638.638,0,0,0-.046.2.159.159,0,0,0-.068.134.313.313,0,0,0-.068.089l-.023.022a.311.311,0,0,1-.091.067l-.045.044h0c-.022,0-.068,0-.068.045-.022,0-.022.022-.045.022a.18.18,0,0,0-.113.044h-.34c-.045-.021-.068-.021-.113-.044a.219.219,0,0,0-.113-.089c-.023-.09-.113-.156-.113-.245Z" transform="translate(-2593.969 -11852.867)"/>
            <path id="Path_37" class="cls-4" d="M2534.621,11818.246h.294l.045.044c.068.045.09.111.136.156,0,.022,0,.066.045.066a4.25,4.25,0,0,0,.022.534c-.045.022-.068.045-.068.089a.45.45,0,0,1-.091.178c-.023,0-.023.022-.023.045a.606.606,0,0,1-.159.178c-.068.067-.158.067-.2.134h-.226c-.023-.045-.045-.066-.091-.066l-.022-.022-.045-.045c-.023-.044-.045-.066-.068-.111,0-.022,0-.022-.023-.044-.068-.09-.023-.2-.045-.289v-.245c0-.021.023-.045.023-.066v-.089c.023,0,.068-.022.045-.067a.081.081,0,0,1,.023-.066c.045-.022.045-.045.045-.089l.022-.022a.048.048,0,0,0,.045-.045c.023-.021.023-.044.045-.066.045,0,.068-.045.091-.089a.117.117,0,0,1,.09-.045C2534.575,11818.313,2534.6,11818.29,2534.621,11818.246Z" transform="translate(-2533.398 -11805.806)"/>
            <path id="Path_38" class="cls-3" d="M2560.28,11800.719a.289.289,0,0,1,.113-.29c.045-.022.068-.045.068-.089,0-.022.023-.022.045-.045.045,0,.068-.022.09-.066a.738.738,0,0,1,.363-.156.522.522,0,0,1,.566.334v.334c-.045.022-.045.066-.045.111-.023.066-.068.111-.091.178h0c0,.022-.023.022-.023.045a.264.264,0,0,0-.113.111c-.09.021-.136.111-.226.111-.023,0-.068,0-.068.045-.045,0-.091.021-.158.021a.107.107,0,0,0-.113,0c-.068-.021-.136-.045-.227-.066a.263.263,0,0,0-.113-.111v-.021c-.023-.067-.045-.111-.068-.179v-.2c.023,0,.023-.022,0-.066Z" transform="translate(-2553.646 -11791.705)"/>
            <path id="Path_39" class="cls-3" d="M2543.679,11810.241a1.009,1.009,0,0,1-.249.044h-.068c-.045,0-.068,0-.091-.021-.023-.045-.045-.066-.091-.066-.045-.045-.068-.09-.114-.111-.022-.022-.022-.045-.045-.067a.132.132,0,0,0-.022-.089v-.4a.683.683,0,0,0,.113-.222v-.021c.068-.022.091-.067.113-.134.09-.066.181-.156.271-.223.046,0,.091,0,.114-.045.249-.022.476.022.543.313v.378c-.023.044-.023.111-.045.155a.193.193,0,0,0-.068.133,4,4,0,0,0-.272.313C2543.725,11810.175,2543.679,11810.2,2543.679,11810.241Z" transform="translate(-2540.283 -11798.558)"/>
            <path id="Path_40" class="cls-3" d="M2586.451,11793.021a.291.291,0,0,1-.068-.089c0-.044-.045-.067-.068-.089v-.022c-.023-.022-.023-.044-.045-.089a.91.91,0,0,1,.045-.423c.045-.022.068-.044.068-.089a.31.31,0,0,0,.068-.09l.023-.021h0c.045,0,.068-.022.09-.066.046-.045.091-.023.136-.045h.385c.045.021.091.021.136.045a.458.458,0,0,0,.136.088l.045.045c0,.045.023.067.068.09a.116.116,0,0,0,.045.089c0,.044,0,.111.068.134a.887.887,0,0,1-.023.244c-.045.021-.045.066-.045.111-.023.021-.023.066-.045.089l-.023.022c-.023,0-.045.045-.045.066-.045,0-.068.022-.091.067l-.136.065c-.045,0-.091,0-.113.045h-.317c-.023-.045-.068-.045-.114-.045a.361.361,0,0,1-.158-.088C2586.474,11793.044,2586.474,11793.044,2586.451,11793.021Z" transform="translate(-2573.748 -11785.434)"/>
            <path id="Path_41" class="cls-3" d="M2552.625,11801.19a.671.671,0,0,1,0-.513.927.927,0,0,0,.2-.311l.022-.022c.068,0,.091-.044.114-.111.068,0,.09-.045.135-.089a1.068,1.068,0,0,1,.385-.045c.045.022.068.022.114.045a.23.23,0,0,0,.113.089.755.755,0,0,1,.046.623c-.023,0-.023,0-.023.022h0c0,.021-.023.021-.023.044-.022.022-.022.067-.045.089-.045.023-.068.045-.068.09h0l-.045.045-.068.066c-.045,0-.068.021-.091.066-.022.021-.068.021-.091.045-.045,0-.091,0-.113.045-.023,0-.045.021-.091.021a.33.33,0,0,0-.2,0c-.068-.045-.135-.066-.2-.111C2552.694,11801.234,2552.671,11801.212,2552.625,11801.19Z" transform="translate(-2547.689 -11791.732)"/>
            <path id="Path_42" class="cls-3" d="M2578.8,11793.2c-.113,0-.227-.021-.317-.021-.022-.044-.045-.044-.068-.044-.159,0-.2-.134-.272-.224,0-.044,0-.089-.045-.111v-.267c.045-.021.045-.066.045-.111a.707.707,0,0,1,.453-.423h.34a.206.206,0,0,1,.113.022l.045.044c.023,0,.045,0,.045.022s0,.022.023.022a1.108,1.108,0,0,1,.181.267.163.163,0,0,0,.045.134c.023.111-.045.2-.045.289-.045.022-.045.044-.045.066-.022.022-.022.067-.045.089l-.045.045c-.022.022-.045.045-.068.045-.045,0-.068.021-.09.066-.045.022-.068.022-.113.045C2578.87,11793.135,2578.825,11793.135,2578.8,11793.2Z" transform="translate(-2567.436 -11785.436)"/>
            <path id="Path_43" class="cls-3" d="M2594.722,11887.689a.682.682,0,0,1,.226-.334c.045-.022.091-.022.114-.09h.068c.045,0,.091,0,.113-.044.09,0,.159-.022.249-.022.023.066.091.066.136.066.023.022.045.067.113.045a1.519,1.519,0,0,1,.181.2,1.085,1.085,0,0,1,.045.379c0,.022-.023.022-.023.045a.131.131,0,0,0-.023.089c-.045.022-.068.045-.068.089a1.008,1.008,0,0,1-.339.268c-.045,0-.113-.022-.159.045a.247.247,0,0,0-.181.021c-.023-.066-.091-.066-.136-.066a.508.508,0,0,1-.339-.334A.923.923,0,0,0,2594.722,11887.689Z" transform="translate(-2580.277 -11859.448)"/>
            <path id="Path_44" class="cls-3" d="M2556.23,11838.767l.2-.065h.339c.023.021.023.021.045.021h.046a1.389,1.389,0,0,0,.2.179c0,.022.023.022.023.045s0,.067.045.067c0,.021.023.021.023.044-.023.067-.091.089-.136.156a.34.34,0,0,0-.045.467c.045.066.114.134.159.2-.023.045-.045.067-.045.111l-.068.067a.8.8,0,0,0-.158-.223c-.2-.245-.408-.223-.634,0-.068.089-.09.2-.158.267,0-.044-.023-.066-.091-.066-.022-.022-.022-.045-.045-.066,0-.022,0-.045-.045-.045a.94.94,0,0,0-.091-.223v-.445a.133.133,0,0,1,.023-.089C2555.981,11839.034,2556.094,11838.9,2556.23,11838.767Z" transform="translate(-2550.185 -11821.743)"/>
            <path id="Path_45" class="cls-3" d="M2621.445,11879.312v.243c-.045.023-.045.067-.045.111a.911.911,0,0,1-.612.6h-.271a.336.336,0,0,0-.136-.045.173.173,0,0,0-.091-.088c-.023-.023-.023-.067-.045-.09,0-.045,0-.111-.045-.133v-.2c.045-.021.045-.066.045-.111a.133.133,0,0,1,.023-.089c.023-.022.023-.045.045-.045a.759.759,0,0,1,.113-.178c.022,0,.068-.022.068-.045v-.022l.045-.045c.045,0,.091-.021.091-.066a.34.34,0,0,1,.136-.045c.022,0,.068,0,.068-.044.045,0,.068-.021.113-.021a.108.108,0,0,0,.113,0c.045,0,.068.021.114.021,0,.044.045.044.068.044s.023,0,.046.023a.146.146,0,0,0,.113.111v.066C2621.4,11879.243,2621.4,11879.288,2621.445,11879.312Z" transform="translate(-2600.003 -11853.073)"/>
            <path id="Path_46" class="cls-3" d="M2595.385,11793.29a.733.733,0,0,1-.227-.111l-.068-.067c0-.021-.022-.021-.022-.044l-.045-.044V11793c-.023-.021-.023-.021-.023-.044v-.423a.363.363,0,0,1,.091-.156l.023-.021c.091-.045.136-.134.249-.156h.385a.535.535,0,0,0,.181.045c.022.045.045.066.091.066a.3.3,0,0,0,.091.066l.022.023c.023.021.023.044.045.088,0,.023,0,.045.023.045.023.022.023.022.023.045-.023.045,0,.066.045.089a.91.91,0,0,1-.045.423c-.046.021-.068.045-.068.089l-.045.044c-.045,0-.068.023-.091.067-.045.022-.068.022-.113.044-.045,0-.113,0-.136.045h-.226C2595.475,11793.29,2595.43,11793.29,2595.385,11793.29Z" transform="translate(-2580.508 -11785.59)"/>
            <path id="Path_47" class="cls-3" d="M2602.8,11887.879a.508.508,0,0,0,.045-.178c.045-.021.068-.044.068-.088l.022-.023a.263.263,0,0,0,.113-.111c.022,0,.022,0,.022-.021h0c.045,0,.045-.022.068-.066.045-.023.09-.023.136-.045.045,0,.091,0,.113-.045h.271a.193.193,0,0,0,.159.045c.022.021.045.021.068.045.023.044.045.066.09.066a.727.727,0,0,1,.068.533c-.045.023-.068.045-.068.09v.045a.219.219,0,0,0-.09.111c-.045.044-.113.088-.159.133a.363.363,0,0,0-.158.09h-.521c-.022-.045-.045-.067-.09-.067h0c-.023,0-.023-.022-.045-.044h0c0-.045-.045-.067-.068-.09a.317.317,0,0,1-.045-.133Z" transform="translate(-2586.542 -11859.527)"/>
            <path id="Path_48" class="cls-3" d="M2602.8,11792.434a.31.31,0,0,0,.045-.134c0-.022,0-.022.022-.044h0c0-.022.023-.022.045-.045l.045-.045c.045,0,.068-.021.09-.066h.453c.045.022.09.022.136.045.022.021.045.066.09.066a.593.593,0,0,0,.136.111v.022h.022c0,.021,0,.021.023.021h0c0,.045.023.066.068.089v.045c0,.022,0,.066.045.066,0,.022.023.045.023.089,0,.022.022.045.045.067v.178c-.068.045-.068.133-.09.2a.364.364,0,0,1-.2.156c-.045,0-.091,0-.113.044h-.271c-.023-.044-.068-.044-.113-.044-.114-.022-.159-.111-.272-.156,0-.021-.022-.066-.045-.066h-.022c0-.022,0-.022-.023-.022a.123.123,0,0,0-.068-.111c-.022-.066-.022-.134-.045-.178,0-.089-.023-.179-.023-.289Z" transform="translate(-2586.542 -11785.513)"/>
            <path id="Path_49" class="cls-4" d="M2570.983,11791.921a.32.32,0,0,0,.136.044c.023.045.045.067.09.067.022.044.045.066.045.111,0,.022,0,.067.045.067a.129.129,0,0,0,.023.088.243.243,0,0,0,0,.179c0,.044-.023.067-.023.111-.045,0-.045.044-.045.067-.113.154-.2.333-.43.377a.167.167,0,0,0-.136.045h-.249c-.023-.045-.068-.045-.113-.045a.345.345,0,0,1-.227-.267v-.333a.424.424,0,0,1,.159-.312c.023,0,.068-.022.068-.045v-.021l.045-.045a.375.375,0,0,0,.2-.111h.068A1.726,1.726,0,0,0,2570.983,11791.921Z" transform="translate(-2561.246 -11785.356)"/>
            <path id="Path_50" class="cls-3" d="M2536.834,11810.313c-.023,0-.023.022-.045.022s-.068,0-.068.044a.2.2,0,0,0-.113.023h-.113c-.045-.023-.068-.023-.113-.045-.068-.09-.113-.156-.181-.245,0-.11.023-.245.023-.356.045-.021.045-.066.045-.111a.4.4,0,0,1,.113-.266c.022,0,.045-.022.045-.067l.022-.022a.531.531,0,0,0,.181-.2.32.32,0,0,1,.136-.044c.022,0,.068,0,.068-.045h.249c0,.045.045.045.068.045h.023c.022.021.022.044.045.044.022.067.068.111.091.179v.377a.4.4,0,0,0-.045.156v.022c-.045.022-.068.044-.068.089-.022.045-.068.066-.045.134A1.8,1.8,0,0,0,2536.834,11810.313Z" transform="translate(-2535.022 -11798.652)"/>
            <path id="Path_51" class="cls-3" d="M2546.777,11800.334v.111c-.045.156-.113.289-.158.445h0l-.023.022-.022.022-.045.044a1.537,1.537,0,0,1-.294.245c-.045,0-.09.021-.09.066h-.045a.913.913,0,0,1-.34-.066l-.045-.044c0-.045-.022-.067-.068-.09-.023-.111-.023-.2-.045-.312a.463.463,0,0,0,.09-.245.843.843,0,0,1,.906-.557c.023.045.046.089.091.089.022.045.022.067.045.111C2546.732,11800.267,2546.732,11800.312,2546.777,11800.334Z" transform="translate(-2542.294 -11791.633)"/>
            <path id="Path_52" class="cls-3" d="M2611.021,11887.4h.226c.023.045.068.045.113.045h0l.023.021c0,.022,0,.022.022.022h0c0,.045.022.045.045.045,0,.022.023.022.023.044l.045.045a.745.745,0,0,1,0,.445.156.156,0,0,0-.068.133c-.023.021-.023.045-.045.066a1.381,1.381,0,0,0-.181.2c-.09.021-.158.111-.249.111-.068,0-.136-.023-.181.066h-.045a.186.186,0,0,0-.181-.066.232.232,0,0,1-.113-.09c-.045-.045-.045-.111-.113-.133a1.464,1.464,0,0,1,0-.445c.045-.022.068-.045.068-.09v-.044a.15.15,0,0,0,.09-.111c.023-.065.09-.065.113-.11.045,0,.068-.022.091-.067a.322.322,0,0,1,.136-.044C2610.953,11887.445,2611,11887.445,2611.021,11887.4Z" transform="translate(-2592.364 -11859.604)"/>
            <path id="Path_53" class="cls-3" d="M2562.758,11792.268a.617.617,0,0,0,.181-.156c.045,0,.068-.022.091-.066.045-.045.09-.022.136-.045h.34a.084.084,0,0,1,.068.022.234.234,0,0,0,.136.111c.023.044.023.066.045.111v.378a.79.79,0,0,1-.5.534c-.045,0-.091,0-.113.044h-.272c-.022-.044-.068-.044-.113-.044-.068-.066-.158-.111-.158-.223v-.289a.408.408,0,0,0,.045-.155c.045-.022.068-.045.068-.089h0C2562.736,11792.312,2562.758,11792.289,2562.758,11792.268Z" transform="translate(-2555.445 -11785.436)"/>
            <path id="Path_54" class="cls-3" d="M2587.874,11785.445c-.045.022-.068.066-.113.089-.045,0-.068.022-.091.067a.712.712,0,0,1-.634-.112c-.023-.044-.045-.089-.091-.089a.315.315,0,0,1-.045-.134v-.378c.023-.045.023-.066.045-.111l.045-.044c.227-.245.43-.29.838-.111.023.021.045.044.068.044h0c0,.022.022.045.045.067h0c0,.044.023.065.068.089a.494.494,0,0,1-.068.6C2587.874,11785.423,2587.874,11785.423,2587.874,11785.445Z" transform="translate(-2574.243 -11779.615)"/>
            <path id="Path_55" class="cls-3" d="M2610.813,11791.9c.068.022.136.022.181.045.136.066.385.245.385.355a.536.536,0,0,1,.136.512c-.045.022-.045.066-.045.111a.629.629,0,0,1-.7.134.81.81,0,0,0-.227-.156.6.6,0,0,0-.158-.178v-.022c0-.044-.022-.089-.068-.089a.7.7,0,0,1-.045-.379c.023-.021.023-.021.023-.044.022,0,.022,0,.022-.022.045-.021.068-.045.068-.089a.686.686,0,0,1,.158-.111Z" transform="translate(-2592.314 -11785.358)"/>
            <path id="Path_56" class="cls-3" d="M2594.54,11784.5c.249-.134.453,0,.656.111,0,.044.045.067.091.089.227.379.2.578-.068.779-.023,0-.023.021-.045.021a.834.834,0,0,1-.521.022c-.023-.045-.045-.066-.09-.066-.023-.022-.046-.022-.068-.044-.023-.045-.045-.067-.091-.067,0-.089-.136-.134-.114-.223v-.29a.306.306,0,0,1,.159-.266C2594.5,11784.572,2594.518,11784.549,2594.54,11784.5Z" transform="translate(-2579.958 -11779.564)"/>
            <path id="Path_57" class="cls-3" d="M2555.98,11792.322c.068-.022.091-.089.159-.111.045,0,.068-.022.091-.066.023,0,.045-.022.068-.022a2.215,2.215,0,0,1,.385-.022c.249.156.271.289.158.668-.022,0-.022.022-.022.045-.023.044-.045.066-.045.089a1.4,1.4,0,0,0-.181.2c-.022,0-.022,0-.022.021-.045,0-.045.022-.068.067a.323.323,0,0,1-.136.044c-.045,0-.091,0-.113.045h-.272c-.023-.045-.045-.045-.068-.045a.4.4,0,0,1-.113-.155v-.4c0-.022.023-.022.023-.045a.08.08,0,0,1,.023-.066c.045-.022.068-.045.068-.089.023-.022.023-.045.045-.067C2555.958,11792.389,2555.98,11792.367,2555.98,11792.322Z" transform="translate(-2550.184 -11785.513)"/>
            <path id="Path_58" class="cls-3" d="M2595.206,11895.412a.6.6,0,0,1,.136.111v.021h.022a.561.561,0,0,1,0,.535c-.022.021-.022.044-.045.066,0,.022-.022.022-.045.045-.023,0-.068.021-.068.044v.022h0l-.045.045h0c-.045,0-.091.021-.091.066a1.023,1.023,0,0,1-.521,0,.531.531,0,0,1-.249-.289v-.334a.315.315,0,0,0,.045-.133.509.509,0,0,1,.158-.156c.023-.022.045-.045.068-.045s.068,0,.068-.022a1.727,1.727,0,0,1,.475-.022.09.09,0,0,0,.091.045Z" transform="translate(-2579.968 -11865.792)"/>
            <path id="Path_59" class="cls-3" d="M2539.911,11801.128a.681.681,0,0,0-.181.089c-.045-.022-.068-.022-.113.022h-.068c-.045-.022-.113-.045-.158-.067l-.045-.044c0-.045,0-.089-.046-.111v-.268a.183.183,0,0,0,.046-.155c.022-.045.022-.09.045-.135.045-.021.068-.044.068-.088.022-.021.022-.045.045-.066.045-.021.091-.045.068-.111l.045-.045c.068,0,.09-.066.136-.111h.023a.049.049,0,0,0,.045-.045c.023,0,.023,0,.023-.021.045,0,.068,0,.091-.045.113,0,.2-.111.317,0a.408.408,0,0,0,.113.156v.313c-.022.064-.022.132-.045.176a.2.2,0,0,0-.068.156c0,.022,0,.045-.023.045-.068.045-.113.089-.113.156-.068,0-.09.089-.136.133C2539.957,11801.061,2539.934,11801.083,2539.911,11801.128Z" transform="translate(-2537.42 -11791.559)"/>
            <path id="Path_60" class="cls-3" d="M2601.665,11784.545c.091-.023.181-.023.294-.045.091.045.2.066.295.111h0c.022,0,.022.021.045.021l.022.023c.023.044.045.066.091.066h0a.453.453,0,0,0,.136.221c0,.045.023.068.023.113v.223a.453.453,0,0,1-.521.311c-.045,0-.091-.021-.136-.021-.022-.045-.045-.066-.091-.066-.023-.023-.045-.023-.068-.045s-.045-.066-.091-.066a.047.047,0,0,0-.045-.045c0-.022-.022-.066-.045-.066h-.023v-.023c0-.044-.022-.066-.068-.088a.605.605,0,0,1,0-.4c.045-.023.068-.045.068-.09l.045-.045C2601.62,11784.611,2601.665,11784.589,2601.665,11784.545Z" transform="translate(-2585.499 -11779.604)"/>
            <path id="Path_61" class="cls-3" d="M2602.4,11895.477c0,.022.023.045.023.09v.267a.129.129,0,0,1-.023.089c-.022.022-.022.045-.045.045-.045.066-.068.111-.113.179-.045,0-.068.044-.091.089a.121.121,0,0,1-.091.044c-.023,0-.023.022-.045.022a.7.7,0,0,1-.521.021c-.023-.044-.045-.066-.09-.066l-.045-.045c0-.021,0-.065-.045-.065a.553.553,0,0,1-.023-.424c.045-.022.068-.044.068-.089v-.022l.045-.044c.022-.022.022-.022.022-.045l.045-.045h0l.045-.044c.022,0,.022-.022.045-.022l.045-.045h.023c.045,0,.09-.022.09-.066h.453l.045.044c.023,0,.023.022.045.022a.6.6,0,0,0,.136.111Z" transform="translate(-2585.352 -11865.745)"/>
            <path id="Path_62" class="cls-3" d="M2549.362,11792.178c.068-.044.113-.066.181-.111.022-.021.045-.021.045-.044a.136.136,0,0,0,.09-.022h.227c.045.022.068.022.113.045,0,.021,0,.066.045.066a1.051,1.051,0,0,1,0,.379c-.045.021-.045.044-.022.066a1.051,1.051,0,0,1-.634.6.356.356,0,0,1-.407-.155v-.334c.022-.045.022-.067.045-.111a.122.122,0,0,0,.068-.111c.022-.022.022-.044.045-.066.045-.022.091-.045.091-.111.022,0,.022-.022.022-.045C2549.339,11792.245,2549.362,11792.223,2549.362,11792.178Z" transform="translate(-2544.924 -11785.436)"/>
            <path id="Path_63" class="cls-3" d="M2565.471,11784.8h0c.068,0,.091-.045.113-.09a.8.8,0,0,1,.543-.134,1.2,1.2,0,0,1,.227.245,1.636,1.636,0,0,1-.023.334c-.045.022-.068.045-.068.09a.225.225,0,0,1-.091.111c-.022,0-.022,0-.022.022-.023.021-.023.044-.045.066-.045,0-.068.022-.091.066a.117.117,0,0,0-.09.045c-.045,0-.091.021-.091.066a1.506,1.506,0,0,1-.317.022.174.174,0,0,0-.113-.045l-.068-.066c-.023-.045-.023-.09-.068-.111a.73.73,0,0,1,.022-.312c.045-.022.045-.089.068-.134s.045-.066.045-.111C2565.449,11784.892,2565.471,11784.847,2565.471,11784.8Z" transform="translate(-2557.501 -11779.662)"/>
            <path id="Path_64" class="cls-3" d="M2625.386,11888.291h0a.182.182,0,0,0-.113.11c-.068.044-.114.067-.181.111l-.045.044H2625a1.063,1.063,0,0,1-.385,0,.4.4,0,0,1-.136-.377c.023-.022.068-.045.068-.067.023-.288.227-.444.408-.646.045-.021.113-.044.159-.066h.023s.294.022.407.045c.023.044.045.111.068.156v.178c-.023.154-.136.244-.159.4C2625.409,11888.223,2625.386,11888.246,2625.386,11888.291Z" transform="translate(-2603.31 -11859.604)"/>
            <path id="Path_65" class="cls-3" d="M2558.747,11785.652a.367.367,0,0,1-.068-.267c0-.022.022-.022.022-.045h0c.023,0,.023,0,.023-.022a1.016,1.016,0,0,1,.453-.512c.158-.089.317-.178.5-.044s.09.311.068.467c-.046.022-.068.045-.068.089v.022c0,.022-.023.022-.045.045-.068.089-.158.155-.227.245-.045,0-.068.021-.068.044h-.023c-.09.022-.158.022-.2.09H2559c-.045-.022-.113-.067-.158-.045l-.045-.045Z" transform="translate(-2552.407 -11779.755)"/>
            <path id="Path_66" class="cls-3" d="M2631.6,11887.4a.776.776,0,0,1,.227.022h0a.315.315,0,0,1,.113.4c-.045.111-.045.246-.158.313a.257.257,0,0,0-.113.156,2.154,2.154,0,0,1-.407.266h-.294l-.023-.021c0-.045,0-.09-.045-.09v-.266c.045-.022.045-.067.045-.111V11888l.045-.044c.023-.023.023-.045.045-.067.023,0,.023-.021.023-.044a1.467,1.467,0,0,0,.226-.289c.045,0,.113-.022.113-.09a.336.336,0,0,1,.136-.044C2631.557,11887.445,2631.6,11887.445,2631.6,11887.4Z" transform="translate(-2608.28 -11859.604)"/>
            <path id="Path_67" class="cls-3" d="M2543.422,11793.156h-.2c0-.045-.023-.045-.068-.066-.136-.156-.045-.312-.023-.468.045-.021.045-.044.045-.089,0-.021,0-.045.023-.045.045-.044.09-.065.113-.133l.272-.267c.045,0,.068-.022.091-.067.045-.022.09-.022.136-.044.317-.022.34,0,.385.312,0,.044-.022.066-.022.111-.022.022-.045.045-.045.066v.066a.8.8,0,0,0-.158.222l-.227.224c-.045,0-.068.021-.091.066-.022.022-.068.022-.09.045C2543.49,11793.111,2543.444,11793.111,2543.422,11793.156Z" transform="translate(-2540.342 -11785.412)"/>
            <path id="Path_68" class="cls-3" d="M2621.269,11895.265c.362-.067.385-.067.475.155h0v.022c0,.045-.022.111-.022.156-.046.021-.046.065-.046.11l-.2.267c-.023,0-.023.022-.045.045-.068.044-.136.111-.2.155-.023.022-.023.022-.045.022h-.046c-.045,0-.068.022-.09.067h-.023c-.136.044-.271.089-.362-.022-.113-.111-.068-.244-.022-.378,0-.045.022-.067.045-.111.022,0,.022-.021.022-.045.023-.066.114-.11.136-.178.045,0,.068-.044.091-.089a1.224,1.224,0,0,0,.2-.156C2621.246,11895.309,2621.269,11895.309,2621.269,11895.265Z" transform="translate(-2600.302 -11865.688)"/>
            <path id="Path_69" class="cls-3" d="M2593.7,11778.557v-.223a.082.082,0,0,0,.022-.066v-.045l.046-.045a.533.533,0,0,1,.407-.178.876.876,0,0,1,.5.4c.045.355-.068.513-.43.578a.568.568,0,0,1-.408-.178.049.049,0,0,0-.045-.045.545.545,0,0,1-.09-.155C2593.722,11778.6,2593.722,11778.578,2593.7,11778.557Z" transform="translate(-2579.503 -11774.55)"/>
            <path id="Path_70" class="cls-3" d="M2587.068,11778.345l.158-.156a.261.261,0,0,0,.181-.066c.068,0,.136-.022.2-.022a.248.248,0,0,0,.2.089.453.453,0,0,1,.181.557.585.585,0,0,1-.5.313h-.158c-.068-.022-.113-.045-.181-.067a.275.275,0,0,0-.113-.111v-.021c0-.022,0-.067-.045-.067v-.312A.109.109,0,0,0,2587.068,11778.345Z" transform="translate(-2574.32 -11774.628)"/>
            <path id="Path_71" class="cls-3" d="M2553.625,11785.447c-.091.022-.136.089-.227.133a.049.049,0,0,0-.045.045.385.385,0,0,0-.227.066c-.023-.045-.045-.045-.068-.022-.045-.044-.09-.066-.113-.089,0-.021,0-.066-.045-.066v-.2a.186.186,0,0,0,.045-.156c.023-.022.023-.044.045-.044.045-.022.068-.045.068-.09h0a.219.219,0,0,0,.091-.111,1.335,1.335,0,0,1,.408-.288c.249-.111.476-.045.407.267v.066c0,.022-.023.022-.023.045a.13.13,0,0,0-.023.089c-.045.022-.068.044-.068.089a.318.318,0,0,0-.068.089l-.022.022c-.023.022-.023.045-.046.067C2553.67,11785.38,2553.625,11785.4,2553.625,11785.447Z" transform="translate(-2547.941 -11779.661)"/>
            <path id="Path_72" class="cls-3" d="M2581.464,11778.531a.241.241,0,0,0,0,.179c-.045.022-.068.044-.068.089-.045.066-.09.111-.136.179l-.045.044c-.022.022-.045.022-.068.045a.163.163,0,0,0-.136.066c-.091-.021-.181.045-.272.045-.023,0-.023-.022-.045-.022-.023-.022-.045-.022-.091-.044-.023,0-.023-.022-.045-.022a.274.274,0,0,1-.113-.111c0-.022,0-.067-.045-.067v-.268c.045,0,.045-.044.045-.066a.655.655,0,0,1,.226-.267c.045,0,.091-.022.091-.066a1.106,1.106,0,0,1,.385,0c.023.044.045.066.091.066.045.045.068.089.113.11S2581.4,11778.51,2581.464,11778.531Z" transform="translate(-2569.214 -11774.727)"/>
            <path id="Path_73" class="cls-3" d="M2574.743,11778.977c-.09,0-.181.022-.271.022a.527.527,0,0,1-.272-.223v-.134a.721.721,0,0,1,.385-.534c.045,0,.068-.022.091-.066a.9.9,0,0,1,.34,0c.045.066.113.111.158.178.068.133,0,.267-.045.4,0,.022,0,.022-.023.045h0l-.023.022c-.023,0-.023,0-.023.021h0l-.045.045h0a.4.4,0,0,0-.158.111h-.045C2574.811,11778.91,2574.766,11778.932,2574.743,11778.977Z" transform="translate(-2564.418 -11774.57)"/>
            <path id="Path_74" class="cls-3" d="M2538.742,11792.022c.113.134,0,.269,0,.424-.136.178-.272.356-.407.556-.023,0-.023.023-.045.023-.045,0-.091.021-.091.066a.8.8,0,0,0-.2.089.153.153,0,0,1-.226-.022l-.023-.021c0-.045,0-.09-.045-.111v-.067a.184.184,0,0,0,.045-.155c0-.111.113-.178.136-.289.045-.045.113-.09.113-.156.023,0,.023,0,.023-.022.022,0,.022,0,.022-.022l.068-.066c.068-.021.113-.045.113-.111.023,0,.023,0,.023-.021a.124.124,0,0,0,.113-.067c.045-.022.091-.022.113-.044A1.022,1.022,0,0,1,2538.742,11792.022Z" transform="translate(-2536.183 -11785.436)"/>
            <path id="Path_75" class="cls-3" d="M2568.983,11778.724a1.214,1.214,0,0,1-.362.222.311.311,0,0,1-.34-.021.277.277,0,0,1-.091-.356.94.94,0,0,1,.679-.579.278.278,0,0,1,.317.223v.067a.941.941,0,0,1-.045.245C2569.051,11778.567,2569.028,11778.657,2568.983,11778.724Z" transform="translate(-2559.745 -11774.539)"/>
            <path id="Path_76" class="cls-3" d="M2615.032,11896.27c-.136-.111-.113-.246-.09-.4,0-.022.022-.022.022-.044.023,0,.385-.469.521-.578a.191.191,0,0,0,.158-.045c.114.065.249.089.363.154a.83.83,0,0,1-.182.6.61.61,0,0,0-.158.178c-.045.023-.068.045-.113.067-.045,0-.09.022-.09.067C2615.326,11896.27,2615.167,11896.357,2615.032,11896.27Z" transform="translate(-2595.922 -11865.67)"/>
            <path id="Path_77" class="cls-3" d="M2547.862,11785.6c-.136.022-.294.09-.362-.111v-.111a.639.639,0,0,0,.045-.2c.045-.021.068-.044.068-.088.045-.066.113-.133.159-.2a.176.176,0,0,0,.09-.089c.045-.023.09-.023.113-.09.046-.022.091-.022.114-.066h.045c.045,0,.068-.021.091-.066.113-.021.2-.066.316,0,0,.021,0,.066.045.066a.2.2,0,0,0,.023.111c-.045.021-.045.066-.045.111v.066a.479.479,0,0,0-.09.133c0,.023-.022.023-.022.045s-.023.022-.023.045c-.045.045-.045.133-.136.156-.045,0-.067.021-.09.066l-.045.045c-.045,0-.068.021-.091.066a.12.12,0,0,1-.091.045A.524.524,0,0,1,2547.862,11785.6Z" transform="translate(-2543.764 -11779.637)"/>
            <path id="Path_78" class="cls-3" d="M2562.6,11778.734c0-.312.476-.713.792-.734a.23.23,0,0,1,.226.245v.044a1.01,1.01,0,0,1-.747.689C2562.69,11779,2562.6,11778.913,2562.6,11778.734Z" transform="translate(-2555.445 -11774.55)"/>
            <path id="Path_79" class="cls-3" d="M2618.955,11887.59c0,.045-.023.089-.023.133-.023.045-.045.066-.045.111-.023.021-.272.334-.317.378-.045,0-.068.022-.091.067a.322.322,0,0,0-.136.044c-.045,0-.114-.022-.159.022h-.068c-.022-.045-.068-.022-.113-.045a.086.086,0,0,1-.068-.021l-.045-.045h0c0-.022-.022-.045-.045-.066l-.023-.022c0-.134-.023-.267-.023-.4.023-.044.023-.109.045-.154,0-.022.023-.022.023-.045a1.193,1.193,0,0,1,.271-.312l.023-.021a.844.844,0,0,1,.2-.09c.068,0,.136-.021.2-.021C2618.615,11887.211,2619.068,11887.211,2618.955,11887.59Z" transform="translate(-2598.146 -11859.371)"/>
            <path id="Path_80" class="cls-3" d="M2557.4,11779.029a.183.183,0,0,1-.2-.178.134.134,0,0,1,.022-.09,1.2,1.2,0,0,1,.815-.689.153.153,0,0,1,.181.066.2.2,0,0,1,0,.223,1.227,1.227,0,0,1-.543.578A.367.367,0,0,1,2557.4,11779.029Z" transform="translate(-2551.268 -11774.6)"/>
            <path id="Path_81" class="cls-3" d="M2543.016,11785.571c-.09,0-.158.066-.249,0l-.068-.066v-.179a.155.155,0,0,0,.068-.133c.023-.022.023-.045.046-.066a.048.048,0,0,1,.045-.045,1.31,1.31,0,0,1,.589-.512c.091-.045.181-.111.294-.022s.023.179.023.267c-.068.022-.068.066-.068.134a1.333,1.333,0,0,0-.158.223c-.045,0-.068.044-.068.089l-.046.045c-.045,0-.068.021-.09.066-.023.022-.045.022-.068.045-.023,0-.045,0-.045.021h0l-.045.045c-.023.022-.045.022-.068.045A.165.165,0,0,0,2543.016,11785.571Z" transform="translate(-2540.05 -11779.607)"/>
            <path id="Path_82" class="cls-3" d="M2552.6,11778.879a.117.117,0,0,1,.045-.09,1.6,1.6,0,0,1,.815-.667c.068-.022.136-.045.181.022.068.066.045.133,0,.2a1.379,1.379,0,0,1-.793.711C2552.668,11779.1,2552.6,11779.034,2552.6,11778.879Z" transform="translate(-2547.709 -11774.628)"/>
            <path id="Path_83" class="cls-3" d="M2593,11773.071c.023-.112-.023-.267.113-.333.045,0,.068-.022.091-.066a.735.735,0,0,1,.43.066c.023.044.045.066.091.066.2.311.2.378,0,.6-.045,0-.068.022-.091.067h-.136a.883.883,0,0,1-.385-.179l-.045-.045C2593.068,11773.183,2593.023,11773.138,2593,11773.071Z" transform="translate(-2578.961 -11770.401)"/>
            <path id="Path_84" class="cls-3" d="M2576.874,11773.391c-.227,0-.317-.177-.249-.4a.706.706,0,0,1,.566-.4.237.237,0,0,1,.272.223v.089a.583.583,0,0,1-.589.488Z" transform="translate(-2566.277 -11770.343)"/>
            <path id="Path_85" class="cls-3" d="M2628.774,11879.813c-.181.179-.34.4-.657.379-.226-.066-.317-.133-.317-.4v-.223a.171.171,0,0,0,.045-.111c.023-.045.068-.067.045-.134.045-.022.068-.045.068-.09,0-.021.022-.021.022-.045.023,0,.068-.021.068-.044v-.021l.045-.045h.045c.249-.134.521-.223.679-.066C2629.113,11879.234,2628.774,11879.679,2628.774,11879.813Z" transform="translate(-2605.882 -11853.02)"/>
            <path id="Path_86" class="cls-3" d="M2582,11773.371c-.023,0-.023-.022-.045-.045,0-.045-.023-.066-.068-.089a.6.6,0,0,1,.249-.558c.023,0,.045,0,.045-.021a.491.491,0,0,1,.43.021c.045.045.068.09.113.135a.574.574,0,0,1-.046.334c-.045.021-.068.045-.068.089h0a.149.149,0,0,0-.113.089l-.046.045c-.045,0-.09,0-.113.045a.658.658,0,0,1-.294-.023C2582.07,11773.371,2582.047,11773.371,2582,11773.371Z" transform="translate(-2570.364 -11770.366)"/>
            <path id="Path_87" class="cls-3" d="M2539.616,11785.034c-.068.045-.091.11-.136.155l-.023.022a1.775,1.775,0,0,1-.453.356c-.068.021-.135.066-.2.021,0-.021-.023-.021-.023-.045-.023-.089.023-.155.045-.244,0-.021.022-.045.022-.066,0,0,.023-.022,0-.022.045-.044.114-.067.091-.133.023-.022.023-.045.045-.067.045-.021.068-.044.068-.089h0a.27.27,0,0,0,.114-.111c.113-.067.2-.155.317-.223.022,0,.045,0,.045-.022.023-.021.045-.021.068-.045.023,0,.023,0,.045-.021h.113c.023.021.045.045.045.066v.134c-.045.022-.068.044-.068.089l-.068.134C2539.639,11784.967,2539.616,11784.99,2539.616,11785.034Z" transform="translate(-2537.012 -11779.604)"/>
            <path id="Path_88" class="cls-3" d="M2548.323,11778.988c0-.044-.023-.089-.023-.133.045-.022.068-.044.068-.089.023-.022.023-.045.046-.066.091-.111.2-.2.294-.312.136-.089.294-.179.453-.268.068-.022.136-.089.2-.022s.023.156-.022.245l-.34.4c-.045,0-.068.021-.09.066h0c-.023,0-.023.022-.045.022-.068.044-.159.089-.227.134-.045,0-.09.021-.09.066h-.045c-.023,0-.045.022-.068.022s-.068-.022-.091-.022C2548.345,11779.011,2548.323,11779.011,2548.323,11778.988Z" transform="translate(-2544.383 -11774.605)"/>
            <path id="Path_89" class="cls-3" d="M2593.645,11762.566h.113c.045.045.091.022.113-.044h.045c.045.089.113.044.181.044a1.733,1.733,0,0,0,.475.067c.022.066.045.066.113.044.113,0,.226.067.339.067v.044h-.43c-.022-.021-.045-.044-.068,0-.022,0-.022.022-.045.022-.022-.022-.045-.022-.09-.022a.3.3,0,0,1-.136-.021c-.068-.045-.113-.067-.135.021-.091-.021-.2-.044-.295-.066-.068,0-.135.089-.226.045a.084.084,0,0,1-.068-.022c-.068-.022-.136-.067-.2-.089-.023-.022-.091-.022-.091.021.045.134-.045.067-.091.067-.113,0-.181-.111-.294-.111-.023-.045-.045-.045-.09-.045,0,0-.023.022,0,.022.022.021.045.021.09.045.023.044.023.089-.068.089a.486.486,0,0,1-.249-.089l-.135-.134c.135-.067.271.066.43,0a3.059,3.059,0,0,1,.453-.022h.113a.187.187,0,0,0,.227.089C2593.645,11762.589,2593.645,11762.589,2593.645,11762.566Z" transform="translate(-2578.497 -11762.5)"/>
            <path id="Path_90" class="cls-3" d="M2567.549,11773.026c0,.022-.023.022-.045.044-.113.067-.2.156-.317.223h-.023c-.045,0-.09,0-.09.067H2567c-.226-.022-.271-.067-.2-.29a.121.121,0,0,0,.068-.111l.158-.155c.023,0,.068-.022.068-.044v-.023h0a.142.142,0,0,0,.136-.111,1.231,1.231,0,0,0,.272-.089.157.157,0,0,1,.2.067.133.133,0,0,1,0,.178c-.023.045-.045.111-.068.156C2567.571,11772.959,2567.549,11772.982,2567.549,11773.026Z" transform="translate(-2558.672 -11770.289)"/>
            <path id="Path_91" class="cls-3" d="M2562.5,11772.881c.023,0,.023-.021.045-.044.046,0,.068-.022.091-.067a1.2,1.2,0,0,1,.475-.244c.113-.045.159-.021.2.09v.066c-.023.045-.023.066-.045.11a.122.122,0,0,0-.068.111h0a1.167,1.167,0,0,0-.249.224c-.136.066-.249.133-.385.2-.136.045-.249.045-.272-.133a.8.8,0,0,0,.159-.223h0A.116.116,0,0,0,2562.5,11772.881Z" transform="translate(-2555.213 -11770.277)"/>
            <path id="Path_92" class="cls-3" d="M2536.051,11784.973c-.068.022-.09.111-.135.156-.023,0-.023.021-.045.045s-.023.044-.045.066c-.045,0-.068.045-.091.089-.022,0-.022.021-.045.021-.068,0-.091.067-.136.111-.135.067-.226.2-.385.224-.023-.023-.023-.067-.068-.067v-.089c.045-.022.045-.045.045-.067.023-.044.045-.066.045-.111.045,0,.068-.044.068-.089l.022-.021c.091-.045.113-.111.158-.178a.278.278,0,0,0,.113-.111c.045,0,.045-.023.045-.045a.229.229,0,0,0,.136-.111c.045,0,.068-.045.091-.066s.045-.022.068-.045c.045,0,.068-.021.091-.066.227-.045.227-.045.159.155-.045.022-.068.044-.068.089v.022C2536.074,11784.928,2536.051,11784.951,2536.051,11784.973Z" transform="translate(-2534.172 -11779.677)"/>
            <path id="Path_93" class="cls-3" d="M2558.929,11772.993a1.776,1.776,0,0,1-.521.312c-.091.022-.159.089-.226.022-.091-.089.022-.134.045-.223l.271-.268c.023-.022.046-.022.068-.044.045,0,.045-.022.068-.067h.022c.046,0,.091-.022.091-.066.068.021.09-.022.136-.045.045,0,.09,0,.09-.066h.045c.068,0,.136-.045.181.021s-.023.111-.045.156c-.022.022-.045.067-.068.089A.309.309,0,0,1,2558.929,11772.993Z" transform="translate(-2552 -11770.3)"/>
            <path id="Path_94" class="cls-3" d="M2545.887,11778.1h0a3.961,3.961,0,0,0-.294.334.178.178,0,0,0-.091.089c-.022,0-.068.022-.068.045v.022h0c-.045,0-.068.021-.091.066-.023.021-.045.021-.045.044a.125.125,0,0,0-.113.067c-.022,0-.022.021-.045.021a.125.125,0,0,0-.113.067.629.629,0,0,0-.2.022c0-.022-.023-.022-.023-.045v-.111a3.155,3.155,0,0,1,.543-.556.953.953,0,0,0,.249-.156.414.414,0,0,0,.2-.089c.023,0,.023-.022.045-.022a.083.083,0,0,0,.068.022h0C2545.91,11777.987,2545.887,11778.055,2545.887,11778.1Z" transform="translate(-2541.676 -11774.472)"/>
            <path id="Path_95" class="cls-3" d="M2588.7,11768.544a.1.1,0,0,0,0,.111c-.068.089-.113.155-.181.243a.084.084,0,0,0-.068.022.5.5,0,0,1-.453-.155v-.267l.2-.2h.249a.186.186,0,0,0,.136.089.116.116,0,0,1,.045.089Q2588.668,11768.544,2588.7,11768.544Z" transform="translate(-2575.094 -11767.008)"/>
            <path id="Path_96" class="cls-3" d="M2545.726,11773.213c.045,0,.068,0,.09-.045a.048.048,0,0,0,.046-.045c.022,0,.045-.021.068-.021a.232.232,0,0,0,.181-.111h.023c.045,0,.091-.021.091-.066.023-.021.068-.021.091-.045.045,0,.113,0,.113-.066.023,0,.023-.022.045-.022.022.022.045.022.068-.022h.068c.023.2.113.067.181.022.045-.022.091-.022.135-.066.023,0,.023-.022.046-.022.023.022.068.022.068.066l-.045.045a2.051,2.051,0,0,0-.5.355c-.045,0-.068.022-.068.045h0c-.068,0-.113,0-.136.066l-.045.045c-.068,0-.113,0-.158.066-.091.022-.158.067-.249.09a.168.168,0,0,1,.045-.111c.068-.045.136-.067.181-.156-.09-.021-.136.045-.2.089-.023.022-.068.022-.091.067-.045.021-.09.021-.113.066-.023,0-.068,0-.068.022-.045,0-.068,0-.091-.022.045-.022.045-.045,0-.089l.022-.022C2545.636,11773.324,2545.681,11773.3,2545.726,11773.213Zm.861-.334c-.091-.021-.091.045-.136.09C2546.519,11772.99,2546.541,11772.945,2546.587,11772.879Z" transform="translate(-2542.217 -11770.432)"/>
            <path id="Path_97" class="cls-3" d="M2583.646,11768.4c.045-.045.091-.045.113-.111.022-.022.022-.022.045-.022h0c.022,0,.068,0,.068-.021a.577.577,0,0,1,.271-.045c.181.2.181.355-.045.578-.045.022-.068.022-.113.045a.6.6,0,0,1-.34-.045h0c0-.022,0-.066-.045-.066v-.179A.1.1,0,0,0,2583.646,11768.4Z" transform="translate(-2571.69 -11766.932)"/>
            <path id="Path_98" class="cls-3" d="M2555.132,11772.845c.135-.022.2-.134.317-.156.045,0,.091-.022.091-.066a.29.29,0,0,0,.136-.022h.045c.114.066.023.111,0,.178-.022,0-.045.045-.045.067h0a.77.77,0,0,0-.271.268.121.121,0,0,1-.091.044c-.046,0-.068.022-.091.067-.068.044-.113.066-.181.111-.023,0-.023,0-.023.021-.045.022-.09.022-.113.044-.023,0-.068,0-.068.045-.045-.021-.113.022-.158-.045-.023-.065.023-.11.068-.155.022-.021.045-.066.09-.089A1.926,1.926,0,0,1,2555.132,11772.845Z" transform="translate(-2549.313 -11770.352)"/>
            <path id="Path_99" class="cls-3" d="M2579.71,11768.667c-.023.022-.045.022-.045.045-.045,0-.045.022-.068.066-.045.022-.091.022-.136.045h-.272c-.023-.022-.023-.022-.045-.022-.091-.089-.023-.2,0-.289.045-.022.068-.045.068-.09l.045-.044c.046,0,.068-.022.091-.067.023-.021.068-.021.091-.044.045,0,.068-.021.091-.066h.181c.023,0,.023,0,.045.021h0c.022.045.045.067.068.111v.134c-.045.022-.068.045-.068.089-.023.022-.023.045-.045.067C2579.755,11768.623,2579.732,11768.645,2579.71,11768.667Z" transform="translate(-2568.208 -11766.932)"/>
            <path id="Path_100" class="cls-3" d="M2542.388,11778.387a1.872,1.872,0,0,1,.272-.178.124.124,0,0,0,.113-.067h.046a.105.105,0,0,1,.113,0,.068.068,0,0,1,0,.09c-.045,0-.045.044-.045.066l-.023.022c-.181.178-.385.354-.566.533a.928.928,0,0,0-.249.156c-.045,0-.068.021-.091.066-.045,0-.09.022-.136.022,0-.022-.022-.022-.022-.045v-.044a.322.322,0,0,0,.136-.2l.159-.155A1.092,1.092,0,0,0,2542.388,11778.387Z" transform="translate(-2539.354 -11774.647)"/>
            <path id="Path_101" class="cls-3" d="M2533.135,11785.523l-.271.2c-.091.045-.158.045-.113-.09.091-.2.294-.311.385-.533h0a.126.126,0,0,0,.113-.066c.023-.023.045-.045,0-.067h0c.091.044.091-.022.136-.067a.126.126,0,0,0,.114-.065.5.5,0,0,1,.181-.111c.023,0,.023-.022.045-.022.091.022.068.066.068.134-.045.021-.068.044-.068.089-.045.066-.113.09-.136.178-.068.045-.113.066-.113.156h-.023l-.045.044a.116.116,0,0,0-.046.089h0c-.068,0-.09.067-.135.09C2533.158,11785.457,2533.135,11785.479,2533.135,11785.523Z" transform="translate(-2532.343 -11779.761)"/>
            <path id="Path_102" class="cls-3" d="M2575.689,11768.59c-.023.021-.045.021-.068.044a.364.364,0,0,0-.158.089c-.045,0-.068.022-.114.022a.776.776,0,0,1-.226-.022h0a.479.479,0,0,0-.023-.178,2.257,2.257,0,0,0,.226-.268c.045,0,.068-.021.091-.066a.851.851,0,0,1,.408-.111l.068.066c-.023.067-.023.134-.045.2-.045.021-.068.044-.068.089-.022,0-.022.022-.045.044C2575.711,11768.5,2575.689,11768.545,2575.689,11768.59Z" transform="translate(-2565.115 -11766.854)"/>
            <path id="Path_103" class="cls-3" d="M2571.63,11768.211a.323.323,0,0,1,.136-.045c.045,0,.09,0,.09-.066.091.022.294-.067.2.178a.229.229,0,0,0-.091.111c-.09.021-.136.111-.181.178h0c-.022.022-.068.022-.09.045-.068.044-.159.066-.227.111h-.226c-.045-.022-.023-.067-.045-.111a.116.116,0,0,0,.045-.089c.068-.022.068-.067.113-.112A.606.606,0,0,0,2571.63,11768.211Z" transform="translate(-2562.098 -11766.854)"/>
            <path id="Path_104" class="cls-3" d="M2552.256,11773.168c-.068.045-.113.066-.181.111l-.045.045h-.023c-.045,0-.068.022-.09.066a.324.324,0,0,1-.136.045c-.023,0-.068,0-.068.045h-.113v-.134c.022-.045.068-.067.113-.112.158-.133.317-.244.476-.355.091,0,.135-.066.2-.111.045,0,.113,0,.135-.066h.2a.328.328,0,0,1-.135.2c-.068.066-.181.088-.2.178-.023,0-.023,0-.023.021A.124.124,0,0,0,2552.256,11773.168Z" transform="translate(-2546.935 -11770.432)"/>
            <path id="Path_105" class="cls-3" d="M2568.512,11768.17c.068,0,.181-.045.227.066,0,.022-.023.022-.023.045a1.209,1.209,0,0,0-.159.2c-.045,0-.068.022-.09.067l-.045.044c-.045,0-.091.022-.091.067-.022.021-.068.021-.09.044-.046,0-.091.021-.091.065-.045.022-.091.022-.136.045h-.227c-.022-.11.068-.178.136-.244a1.761,1.761,0,0,0,.34-.268.321.321,0,0,0,.136-.044C2568.422,11768.236,2568.467,11768.214,2568.512,11768.17Z" transform="translate(-2559.455 -11766.901)"/>
            <path id="Path_106" class="cls-3" d="M2564.809,11768.645c-.023.022-.068.022-.091.045-.023,0-.045,0-.045.045-.09.021-.158.066-.249.088h-.158c-.023-.044,0-.066,0-.088a.178.178,0,0,0,.09-.09c.045-.021.091-.066.136-.089.022,0,.022,0,.022-.022.023-.021.046-.021.091-.045.023,0,.045,0,.045-.021.136-.066.249-.134.385-.2.045,0,.09,0,.113-.066.068.022.158-.045.2.066A2.357,2.357,0,0,1,2564.809,11768.645Z" transform="translate(-2556.725 -11766.931)"/>
            <path id="Path_107" class="cls-3" d="M2539.513,11778.867c-.023,0-.046.022-.068.022-.023-.022-.023-.066-.045-.089,0-.022.023-.022.023-.045.022-.022.022-.044.045-.066.023,0,.068-.022.068-.045v-.022c.045-.044.159-.066.136-.178h0c.113,0,.158-.067.2-.156h0a.914.914,0,0,0,.385-.267c.023-.022.046-.022.068-.044.045,0,.091-.022.091-.067.045.022.068-.066.113,0a.065.065,0,0,1-.023.089c-.045.045-.068.09-.113.134-.09.089-.2.178-.294.267-.022.022-.045.022-.045.045a1.218,1.218,0,0,0-.2.155c-.022.022-.045.022-.068.045-.023,0-.068,0-.068.045a.224.224,0,0,0-.113.089Z" transform="translate(-2537.498 -11774.461)"/>
            <path id="Path_108" class="cls-3" d="M2549.589,11773.134c-.023,0-.068,0-.068.045-.023,0-.023.022-.045.022-.113.066-.249.11-.363.178-.045.021-.09.044-.113-.022.045-.021.045-.045.045-.066l.045-.045c.068-.021.113-.044.068-.111h0c.045.045.09,0,.113-.044a1.82,1.82,0,0,0,.475-.334c.068-.022.113-.045.181-.067.045,0,.091-.022.091-.066.045,0,.09-.022.135-.022v.089h0l-.022.022-.023.022C2549.928,11772.867,2549.77,11773,2549.589,11773.134Z" transform="translate(-2544.924 -11770.352)"/>
            <path id="Path_109" class="cls-3" d="M2537.8,11779.354a2.346,2.346,0,0,0,.271-.223c.068,0,.091-.022.091-.066.068-.045.135-.112.2-.156.091.044.159-.045.227-.022-.023.089-.136.111-.136.2h0c-.113-.021-.159.067-.2.156h0c-.068,0-.113.066-.158.111-.068.022-.091.066-.136.111a.126.126,0,0,0-.113.066c-.068.022-.113.111-.2.111.023-.045.023-.089.045-.133.022,0,.045,0,.045-.022s0-.022-.023-.022-.045,0-.045.045c-.023,0-.045-.022-.068-.022.045,0,.045-.022.068-.067C2537.781,11779.421,2537.8,11779.4,2537.8,11779.354Z" transform="translate(-2536.105 -11775.236)"/>
            <path id="Path_110" class="cls-3" d="M2531,11785.669a4.215,4.215,0,0,1,.725-.824l.136-.134c.046-.045.091-.066.136-.111.045.089-.045.134-.045.2-.045.022-.068.045-.045.09h0c-.023-.022-.046,0-.046.021-.068.022-.113.067-.068.134h0a.069.069,0,0,0-.09,0c-.136.134-.272.29-.385.424h-.023c-.045,0-.068.021-.09.066-.023.022-.045.022-.068.045-.022,0-.022,0-.022.021-.023.022-.045.022-.091.045C2531.022,11785.669,2531.022,11785.669,2531,11785.669Z" transform="translate(-2531 -11779.682)"/>
            <path id="Path_111" class="cls-3" d="M2594.488,11764.823a.5.5,0,0,0,.181-.022c.113.022.181.134.294.178a.4.4,0,0,0,.113.155c-.045.179-.181.134-.294.134-.023-.045-.045-.045-.091-.045h0c0-.045-.045-.066-.09-.066C2594.555,11765.045,2594.465,11764.978,2594.488,11764.823Z" transform="translate(-2580.11 -11764.289)"/>
            <path id="Path_112" class="cls-3" d="M2585.245,11764.978c.045-.022.09-.044.09-.111l.136-.065h.181a.267.267,0,0,1,.045.222c-.045.022-.045.044-.045.066-.023.022-.045.045-.045.067-.045.021-.068.045-.113.066h-.068a.524.524,0,0,1-.181-.021c-.023-.045-.045-.067-.045-.112v-.066C2585.222,11765.045,2585.245,11765.022,2585.245,11764.978Z" transform="translate(-2572.928 -11764.289)"/>
            <path id="Path_113" class="cls-3" d="M2582.485,11764.9c.091.021.249-.067.2.133h0l-.045.045c0,.021-.023.021-.023.045-.045,0-.045.044-.045.066-.023.021-.045.021-.045.045a.047.047,0,0,0-.045.044c-.023,0-.045.022-.068.044l-.045.045h-.2c-.023,0-.023-.021-.045-.021,0-.023-.023-.023-.023-.045a1.891,1.891,0,0,1,.181-.268A1.008,1.008,0,0,1,2582.485,11764.9Z" transform="translate(-2570.53 -11764.361)"/>
            <path id="Path_114" class="cls-3" d="M2597.236,11765.123h-.023a.222.222,0,0,0-.091-.111c0-.045-.023-.066-.023-.111h.249a.175.175,0,0,0,.113.045.126.126,0,0,0,.113.066c.023.022.023.022.045.022l.181.177h0a.2.2,0,0,1-.023.111h-.068a1.081,1.081,0,0,1-.475-.2C2597.259,11765.146,2597.259,11765.123,2597.236,11765.123Z" transform="translate(-2582.133 -11764.366)"/>
            <path id="Path_115" class="cls-3" d="M2579.194,11765.322c-.023,0-.045.023-.068.045h-.159c-.045,0-.068-.045-.068-.089.045-.111.158-.155.227-.244.09-.045.2-.089.294-.134h.181c0,.022,0,.022.022.045,0,.021-.022.044-.022.066l-.181.178c-.068.045-.113.066-.181.111C2579.217,11765.3,2579.217,11765.3,2579.194,11765.322Z" transform="translate(-2568.054 -11764.366)"/>
            <path id="Path_116" class="cls-3" d="M2599.7,11764.871c.068.022.158.066.226.09l.34.2.045.045h.023c0,.045,0,.09-.046.111h-.113a.143.143,0,0,1-.091-.021.123.123,0,0,0-.113-.066c-.046-.045-.091-.045-.159-.09-.09-.066-.2-.155-.294-.222l-.023-.022C2599.545,11764.826,2599.635,11764.894,2599.7,11764.871Z" transform="translate(-2583.99 -11764.337)"/>
            <path id="Path_117" class="cls-3" d="M2576.612,11764.866c.091-.021.159-.044.249-.065a.212.212,0,0,1,.113.021c0,.021-.022.044-.022.066a1.451,1.451,0,0,0-.295.223c-.113.066-.249.111-.362.178h-.113c-.09-.088.023-.133.046-.178a.316.316,0,0,0,.181-.111c.045-.022.068-.045.113-.045A.311.311,0,0,0,2576.612,11764.866Z" transform="translate(-2565.925 -11764.289)"/>
            <path id="Path_118" class="cls-3" d="M2571.094,11765.3c-.068-.021-.091.021-.136.045-.045,0-.113-.021-.158-.021.158-.2.408-.2.589-.312.045,0,.09,0,.113-.066a.971.971,0,0,1,.249-.045c.022,0,.09,0,.09.022.023.044-.068.044-.068.111h0a.237.237,0,0,0-.2.111h0c-.113-.044-.2.044-.294.11h-.068C2571.185,11765.234,2571.139,11765.256,2571.094,11765.3Z" transform="translate(-2561.788 -11764.366)"/>
            <path id="Path_119" class="cls-3" d="M2573.331,11765.268c-.045-.022,0-.066,0-.09.091,0,.136-.066.181-.133h0c.068-.021.181,0,.2-.11h0a.148.148,0,0,0,.159-.022c.067-.021.158-.066.226-.089a.171.171,0,0,0,.113-.022c.091.045,0,.09,0,.111a.281.281,0,0,0-.226.111c-.046-.021-.046.021-.046.045l-.045.045c-.068-.023-.113.044-.158.044s-.068.021-.091.065a.665.665,0,0,1-.2.045Z" transform="translate(-2563.731 -11764.289)"/>
            <path id="Path_120" class="cls-3" d="M2602.354,11765.256l-.136-.066a1.318,1.318,0,0,0-.294-.178c-.023-.022-.068-.045-.045-.089a.171.171,0,0,1,.114-.022.66.66,0,0,0,.2.045,2.085,2.085,0,0,0,.543.289c.022.021.022.045.045.066-.045.066-.114.021-.159.045-.045-.021-.113-.066-.158-.045C2602.445,11765.256,2602.422,11765.234,2602.354,11765.256Z" transform="translate(-2585.825 -11764.366)"/>
            <path id="Path_121" class="cls-3" d="M2604.651,11765.346c-.068-.021-.136-.066-.2-.045a.124.124,0,0,0-.113-.066c-.045-.021-.091-.066-.136-.045-.136-.111-.34-.133-.5-.289h.136l.2.066a2.492,2.492,0,0,0,.566.244c.045.023.068.067.136.045h0c-.045.045,0,.066,0,.111C2604.719,11765.346,2604.7,11765.346,2604.651,11765.346Z" transform="translate(-2587.239 -11764.366)"/>
            <path id="Path_122" class="cls-3" d="M2608.687,11896.354c-.023-.067.068-.089.045-.156.068-.067.113-.133.181-.2h.045c.022.089.2.133.045.223C2608.936,11896.287,2608.868,11896.488,2608.687,11896.354Z" transform="translate(-2591.094 -11866.289)"/>
            <path id="Path_123" class="cls-3" d="M2587.272,11762.862a.118.118,0,0,1-.091.045.5.5,0,0,1-.181-.022v-.089c.068-.022.091-.066.113-.134.091,0,.159-.089.25,0C2587.362,11762.751,2587.294,11762.8,2587.272,11762.862Z" transform="translate(-2574.32 -11762.596)"/>
            <path id="Path_124" class="cls-3" d="M2589.3,11762.748a.152.152,0,0,1,.068.2c-.045.089-.136.066-.2.066-.022-.021-.045-.021-.068-.045a.484.484,0,0,1,.022-.178C2589.168,11762.771,2589.213,11762.7,2589.3,11762.748Z" transform="translate(-2575.945 -11762.682)"/>
            <path id="Path_125" class="cls-3" d="M2585.353,11762.89l-.068.067c-.045,0-.068.021-.091.066-.045.021-.091.021-.136.045h-.159V11763h0c.023,0,.023-.022.046-.022.022-.021.068-.021.09-.066.068-.022.113-.045.181-.066a.138.138,0,0,0,.091-.022c.022,0,.045-.022.068-.022S2585.375,11762.846,2585.353,11762.89Z" transform="translate(-2572.696 -11762.733)"/>
            <path id="Path_126" class="cls-3" d="M2611.117,11895.232a.266.266,0,0,1-.114.111c-.136.112-.158.09-.2-.089A.531.531,0,0,1,2611.117,11895.232Z" transform="translate(-2592.731 -11865.68)"/>
            <path id="Path_127" class="cls-3" d="M2586.023,11879.567c0-.089-.023-.178-.023-.267a.041.041,0,0,0,0-.066h0c0-.023.023-.045.023-.09.045-.021.045-.045.045-.066a.7.7,0,0,1,.543-.356.5.5,0,0,0,.181-.022.171.171,0,0,1,.113.022c.023.044.068.044.113.044a.084.084,0,0,1,.068.022c.023.045.045.067.091.067h0c.022.021.022.021.045.021,0,.023,0,.023.023.023h0a1.392,1.392,0,0,0,.159.223c.022.065.022.109.045.177v.045c-.023.111-.023.2-.045.313a.523.523,0,0,0-.181.2l-.045.045a.664.664,0,0,0-.226.109h-.385a.731.731,0,0,0-.2-.045c0-.02-.023-.044-.068-.064-.068-.045-.113-.111-.181-.156.023-.022,0-.022-.023-.022-.022-.022-.022-.066-.045-.089.023-.023.023-.045-.022-.067Z" transform="translate(-2573.547 -11852.84)"/>
            <path id="Path_128" class="cls-3" d="M2587.1,11888.513c-.045.022-.091.022-.136.044h-.408a.335.335,0,0,0-.136-.044c-.023-.022-.045-.067-.091-.067h-.023l-.068-.065-.045-.044a.878.878,0,0,0-.113-.2.481.481,0,0,1,0-.355c.022-.022.022-.045.045-.045v-.021c.023-.023.068-.045.068-.09h0c0-.021.023-.021.023-.045h0c.023-.021.068-.021.068-.066.023-.022.045-.022.068-.045.022,0,.022-.021.045-.021h.068c.045,0,.091,0,.113-.045h.249c.046.066.091.045.136.045a.52.52,0,0,1,.34.312c0,.044,0,.089.045.111v.267c-.045.022-.045.066-.045.111-.023.045-.023.066-.045.111-.045,0-.068.022-.068.09l-.045.044C2587.148,11888.445,2587.125,11888.49,2587.1,11888.513Z" transform="translate(-2573.585 -11859.604)"/>
            <path id="Path_129" class="cls-3" d="M2585.313,11839.168c.045-.155.181-.223.271-.334a.368.368,0,0,0,.2-.112.316.316,0,0,0,.136-.021h.226a.883.883,0,0,1,.407.155,1.413,1.413,0,0,1,.181.2.975.975,0,0,1,.091.668c-.045.021-.045.066-.045.111,0,.022,0,.044-.023.044a.151.151,0,0,0-.091.134.52.52,0,0,0-.158.156,1.123,1.123,0,0,1-.656.111.289.289,0,0,1-.136-.022c-.023-.022-.045-.022-.068-.045h0c-.023-.044-.045-.066-.09-.066a.594.594,0,0,0-.136-.111c0-.022,0-.066-.045-.066a.357.357,0,0,0-.091-.156c0-.022,0-.067-.045-.067,0-.021-.023-.044-.023-.066.023-.021.023-.045-.022-.066v-.223a.2.2,0,0,0,.113-.223Z" transform="translate(-2572.928 -11821.743)"/>
            <path id="Path_130" class="cls-3" d="M2585.907,11850.9c-.045-.022-.068-.045-.113-.045a.274.274,0,0,0-.114-.111h0a.12.12,0,0,0-.068-.11c-.023-.021-.023-.044-.045-.066,0-.045,0-.09-.045-.111a2.921,2.921,0,0,0-.023-.445c.068-.045.068-.134.09-.2a.3.3,0,0,1,.136-.156c.068,0,.091-.066.136-.11.023,0,.045-.022.068-.022a.118.118,0,0,0,.09-.045.984.984,0,0,1,.793.111c.022.045.045.066.09.066.022.022.022.022.022.044,0,.045.023.09.068.09a.312.312,0,0,1,.045.134c0,.021,0,.066.023.066a1.458,1.458,0,0,1,0,.444c-.045.022-.045.045-.023.068a.309.309,0,0,0-.045.132c-.045.022-.068.045-.068.089h0l-.045.045h0c-.045,0-.068.022-.09.066-.023.022-.068.022-.091.045a.209.209,0,0,0-.159.066,3.73,3.73,0,0,1-.5.045c-.023,0-.023-.022-.045-.022,0-.022,0-.022-.023-.022h0C2585.975,11850.922,2585.953,11850.9,2585.907,11850.9Z" transform="translate(-2573.16 -11830.093)"/>
            <path id="Path_131" class="cls-3" d="M2566.983,11819.945a.387.387,0,0,0-.158.022c-.045-.045-.091-.022-.159,0a.205.205,0,0,0-.113-.022c0-.045-.045-.045-.068-.045a.323.323,0,0,0-.136-.044.176.176,0,0,0-.091-.09.112.112,0,0,1-.045-.089l-.023-.022c-.022-.066-.09-.134-.09-.223v-.4a.113.113,0,0,0,.045-.089v-.022c.045-.021.068-.044.068-.089l.045-.045a.171.171,0,0,0,.091-.089c.023,0,.023,0,.023-.022h0c.023,0,.068-.021.068-.044v-.022c.046-.022.068-.045.113-.045a.117.117,0,0,0,.091-.044c.114,0,.2-.022.317-.022h.136c.023.045.045.066.091.066h.022c.023.045.045.067.091.067l.09.089c0,.045.023.066.068.089v.022c0,.045.023.089.068.089v.045a.1.1,0,0,0,.022.134h.023c-.023.111-.045.244-.068.355-.045.022-.045.045-.045.066v.045l-.045.045c-.068.089-.159.155-.227.244-.046,0-.068.022-.091.066h-.022C2567.051,11819.9,2567.006,11819.878,2566.983,11819.945Z" transform="translate(-2558.153 -11806.036)"/>
            <path id="Path_132" class="cls-3" d="M2557.9,11819.715c-.045,0-.068.021-.113.021a.108.108,0,0,0-.113,0c-.045,0-.091-.021-.158-.021-.023-.045-.045-.045-.068-.045s-.045,0-.045-.022c-.045-.044-.068-.111-.135-.111h0c-.023-.022-.023-.044-.046-.066,0-.022,0-.022-.022-.045l-.023-.022c0-.021-.022-.044-.022-.066h0c0-.022,0-.022-.023-.022-.023-.045-.023-.11-.045-.155v-.178c-.023-.179.09-.289.158-.445.045,0,.068-.044.068-.089h0c0-.022.022-.022.045-.045h0c.045,0,.068-.021.091-.066.045-.022.068-.045.113-.045.022,0,.068,0,.068-.044.022,0,.045-.022.091-.022.045.022.068,0,.091-.022.09.022.181.022.272.045.022.021.045.066.09.066.068.045.136.111.2.156,0,.044.023.066.068.089a.638.638,0,0,1,.045.2v.289a.638.638,0,0,0-.045.2c-.045.022-.068.045-.068.09-.023.021-.023.044-.045.066-.045,0-.068.022-.068.089l-.022.022a.151.151,0,0,0-.114.089c-.045.021-.068.021-.091.045C2557.973,11819.67,2557.9,11819.647,2557.9,11819.715Z" transform="translate(-2551.18 -11805.806)"/>
            <path id="Path_133" class="cls-3" d="M2610,11898a.342.342,0,0,1-.249-.244c-.068-.133.113-.178.181-.244a.083.083,0,0,1,.113-.045.048.048,0,0,1,.045.045c.068.088.113.2.227.244A.438.438,0,0,1,2610,11898Z" transform="translate(-2591.907 -11867.427)"/>
            <path id="Path_134" class="cls-3" d="M2612.054,11896.193a.348.348,0,0,0-.136-.178c-.113-.089-.113-.178.023-.245.113-.044-.046-.2.113-.178A.439.439,0,0,1,2612.054,11896.193Z" transform="translate(-2593.533 -11865.973)"/>
            <path id="Path_135" class="cls-3" d="M2558.268,11844.452a.213.213,0,0,1,0-.312c.023-.022.045-.022.068-.045a.182.182,0,0,1,.249.045c.068.089-.023.133-.068.178s-.091.067-.113.133C2558.359,11844.475,2558.313,11844.452,2558.268,11844.452Z" transform="translate(-2552.041 -11825.914)"/>
          </g>
        </g>
        <path id="Path_136" class="cls-3" d="M2608.809,11895.315a.549.549,0,0,0-.091.757.57.57,0,0,0,.77-.089.492.492,0,0,0,.159-.668.511.511,0,0,0-.679-.156A1.068,1.068,0,0,0,2608.809,11895.315Z" transform="translate(-2585.895 -11865.584)"/>
      </g>
      <path id="Path_137" class="cls-5" d="M2694.187,11770.138l-7.359,25.1H2675.1l13.088-35.94h12.181l13.11,35.918h-11.933l-7.359-25.08" transform="translate(-182.718 -0.233)"/>
      <path id="Path_138" class="cls-6" d="M2693.687,11770.138l-7.359,25.1H2674.6l13.11-35.94h12.182l13.087,35.918h-11.933l-7.359-25.08" transform="translate(-182.332 -0.233)"/>
      <path id="Path_139" class="cls-6" d="M2531.892,11771.477a120.5,120.5,0,0,1-30.839,16.535,96.177,96.177,0,0,1-31.292,6.275c-8.446.156-13.9-2.692-15.329-9.079,12.317,0,22.19-1.312,31.677-4.14s14.242-6.074,14.242-9.725c0-2.226-1.7-4.006-5.117-5.342s-7.948-2-13.631-2c-1.019,0-2.015.022-2.989.045a20.116,20.116,0,0,1,6.77,3.85s2.106,1.8,2.106,3.07c-.023,2.916-3.283,5.5-9.872,7.723s-14.242,3.4-23.457,3.628a18.319,18.319,0,0,1,8.2-16.046,54.187,54.187,0,0,0-10.891,4.051q-12.566,6.375-12.566,15.266,0,6.176,6.906,9.725,6.9,3.574,18.793,3.562,18.544,0,39.262-7.366a130.876,130.876,0,0,0,15.881-6.8c2.57-1.316,5.029-2.708,7.5-4.254a82.414,82.414,0,0,0,10.261-7.547Z" transform="translate(0 -3.887)"/>
      <path id="Path_140" class="cls-7" d="M2849.327,11784.8l-4.008,8.991-5.819-7.478Z" transform="translate(-309.895 -20.057)"/>
      <path id="Path_141" class="cls-5" d="M2694.187,11769.838l-7.359,25.1H2675.1l13.088-35.939,6,10.838" transform="translate(-182.718)"/>
      <path id="Path_142" class="cls-6" d="M2694.187,11769.838h0l-7.359,25.1H2675.1l13.088-35.939" transform="translate(-182.718)"/>
    </g>
    <path id="Path_772" data-name="Path 772" class="cls-7" d="M-70.547-5H-74.4v3.25h3.672l.1-1.359h1.734V0h-9V-1.367L-76.68-1.6V-9.766L-77.891-10v-1.375h8.984v3.117h-1.75l-.1-1.359H-74.4v2.859h3.852Zm2.8,3.633,1.094-.234V-6.844l-1.211-.234V-8.453h3.336l.1,1.211A3.092,3.092,0,0,1-63.383-8.25,2.7,2.7,0,0,1-62-8.609a2.543,2.543,0,0,1,2,.8,3.715,3.715,0,0,1,.719,2.523V-1.6l1.094.234V0h-4.359V-1.367l.977-.234V-5.273a1.71,1.71,0,0,0-.344-1.207,1.384,1.384,0,0,0-1.039-.355,1.76,1.76,0,0,0-.812.184,1.67,1.67,0,0,0-.6.52V-1.6l.922.234V0h-4.3Zm13.648-9.156v2.07h1.484v1.6h-1.484v4.3a1,1,0,0,0,.2.7.724.724,0,0,0,.547.211,3.765,3.765,0,0,0,.41-.02q.176-.02.395-.066l.2,1.648A5.476,5.476,0,0,1-53.1.105a5.273,5.273,0,0,1-.812.059A2.431,2.431,0,0,1-55.73-.484a2.843,2.843,0,0,1-.637-2.055V-6.852h-1.242v-1.6h1.242v-2.07ZM-47.445.164a3.806,3.806,0,0,1-2.922-1.172,4.19,4.19,0,0,1-1.094-2.977V-4.3a4.624,4.624,0,0,1,1.035-3.1,3.436,3.436,0,0,1,2.777-1.211,3.422,3.422,0,0,1,2.656,1.031,3.968,3.968,0,0,1,.945,2.789v1.242h-5.047l-.016.047a2.206,2.206,0,0,0,.559,1.375,1.741,1.741,0,0,0,1.348.539,4.389,4.389,0,0,0,1.258-.152,5.781,5.781,0,0,0,1.094-.48l.617,1.406a4.49,4.49,0,0,1-1.355.7A5.77,5.77,0,0,1-47.445.164Zm-.2-7.016a1.188,1.188,0,0,0-1,.484A2.522,2.522,0,0,0-49.1-5.094l.023.039h2.8v-.2a1.83,1.83,0,0,0-.34-1.16A1.225,1.225,0,0,0-47.648-6.852ZM-42.8-1.367-41.7-1.6V-6.844l-1.211-.234V-8.453h3.336l.1,1.234a2.661,2.661,0,0,1,.766-1.023,1.711,1.711,0,0,1,1.086-.367,2.791,2.791,0,0,1,.379.027,2.322,2.322,0,0,1,.332.066l-.242,2.078-.937-.023a1.6,1.6,0,0,0-.828.2,1.262,1.262,0,0,0-.5.555V-1.6l1.094.234V0H-42.8Zm6.391-5.711V-8.453h3.313l.109.984a2.71,2.71,0,0,1,.9-.844,2.428,2.428,0,0,1,1.219-.3A2.813,2.813,0,0,1-28.43-7.383a5.474,5.474,0,0,1,.867,3.227v.164A4.855,4.855,0,0,1-28.43-.977,2.869,2.869,0,0,1-30.852.164a2.707,2.707,0,0,1-1.18-.246A2.423,2.423,0,0,1-32.914-.8V1.641l1.1.234V3.25h-4.477V1.875l1.1-.234V-6.844Zm6.563,2.922a4.09,4.09,0,0,0-.4-1.937,1.3,1.3,0,0,0-1.219-.742,1.722,1.722,0,0,0-.879.211,1.505,1.505,0,0,0-.574.6v3.7a1.4,1.4,0,0,0,.574.547,1.935,1.935,0,0,0,.895.188,1.312,1.312,0,0,0,1.215-.648,3.423,3.423,0,0,0,.387-1.758Zm3.469,2.789,1.094-.234V-6.844l-1.211-.234V-8.453h3.336l.1,1.234a2.661,2.661,0,0,1,.766-1.023A1.711,1.711,0,0,1-21.2-8.609a2.791,2.791,0,0,1,.379.027,2.321,2.321,0,0,1,.332.066l-.242,2.078-.937-.023a1.6,1.6,0,0,0-.828.2,1.262,1.262,0,0,0-.5.555V-1.6l1.094.234V0h-4.469Zm6.492,0,1.1-.234V-6.844L-20-7.078V-8.453h3.5V-1.6l1.094.234V0h-4.477Zm3.383-9.109h-2.281v-1.711H-16.5Zm8.742,4.93H-9.289L-9.531-6.6a2,2,0,0,0-.59-.312,2.353,2.353,0,0,0-.785-.125,1.529,1.529,0,0,0-.953.27.82.82,0,0,0-.352.676.769.769,0,0,0,.336.637,3.6,3.6,0,0,0,1.344.449A5.47,5.47,0,0,1-8.2-4.09a2.018,2.018,0,0,1,.758,1.668,2.219,2.219,0,0,1-.98,1.863,4.249,4.249,0,0,1-2.582.723A5.405,5.405,0,0,1-12.8-.121,4.58,4.58,0,0,1-14.25-.937l-.023-1.9h1.594l.313,1.1a1.307,1.307,0,0,0,.555.254,3.222,3.222,0,0,0,.734.082,1.864,1.864,0,0,0,1.059-.25.784.784,0,0,0,.363-.68.8.8,0,0,0-.367-.648,3.749,3.749,0,0,0-1.352-.484,5.418,5.418,0,0,1-2.254-.9,1.959,1.959,0,0,1-.762-1.629,2.363,2.363,0,0,1,.875-1.832,3.656,3.656,0,0,1,2.492-.77,6.407,6.407,0,0,1,1.863.266,3.937,3.937,0,0,1,1.379.68ZM-2.375.164A3.806,3.806,0,0,1-5.3-1.008,4.19,4.19,0,0,1-6.391-3.984V-4.3A4.624,4.624,0,0,1-5.355-7.4,3.436,3.436,0,0,1-2.578-8.609,3.422,3.422,0,0,1,.078-7.578a3.968,3.968,0,0,1,.945,2.789v1.242H-4.023l-.016.047A2.206,2.206,0,0,0-3.48-2.125a1.741,1.741,0,0,0,1.348.539A4.389,4.389,0,0,0-.875-1.738a5.781,5.781,0,0,0,1.094-.48L.836-.812a4.49,4.49,0,0,1-1.355.7A5.77,5.77,0,0,1-2.375.164Zm-.2-7.016a1.188,1.188,0,0,0-1,.484,2.522,2.522,0,0,0-.453,1.273l.023.039h2.8v-.2a1.83,1.83,0,0,0-.34-1.16A1.225,1.225,0,0,0-2.578-6.852Zm8.43,5.484.813-.117,3.461-9.891h2.336L15.9-1.484l.813.117V0H12.836V-1.367l.789-.141-.5-1.562H9.438l-.5,1.563.789.141V0H5.852ZM9.977-4.75h2.609L11.3-8.758h-.047Zm7.414,3.383L18.484-1.6V-6.844l-1.211-.234V-8.453h3.336l.1,1.211A3.092,3.092,0,0,1,21.75-8.25a2.7,2.7,0,0,1,1.383-.359,2.543,2.543,0,0,1,2,.8,3.715,3.715,0,0,1,.719,2.523V-1.6l1.094.234V0H22.586V-1.367l.977-.234V-5.273a1.71,1.71,0,0,0-.344-1.207,1.384,1.384,0,0,0-1.039-.355,1.76,1.76,0,0,0-.812.184,1.67,1.67,0,0,0-.6.52V-1.6l.922.234V0h-4.3ZM33.055,0a4.126,4.126,0,0,1-.164-.434,3.42,3.42,0,0,1-.109-.449,3.138,3.138,0,0,1-.988.758,2.956,2.956,0,0,1-1.332.289,2.791,2.791,0,0,1-1.973-.676,2.384,2.384,0,0,1-.73-1.84,2.092,2.092,0,0,1,.953-1.836,4.978,4.978,0,0,1,2.8-.648h1.164v-.828a1.245,1.245,0,0,0-.352-.945,1.45,1.45,0,0,0-1.039-.336,2.461,2.461,0,0,0-.7.09,1.819,1.819,0,0,0-.492.215l-.148.906H28.227l.008-1.875a6.4,6.4,0,0,1,1.434-.711,5.2,5.2,0,0,1,1.762-.289,4.011,4.011,0,0,1,2.551.77,2.623,2.623,0,0,1,.98,2.191v3.492q0,.2,0,.367a2.613,2.613,0,0,0,.027.328l.7.094V0ZM31.078-1.523a1.977,1.977,0,0,0,.938-.223,1.81,1.81,0,0,0,.656-.559V-3.594H31.508a1.59,1.59,0,0,0-1.1.34,1.064,1.064,0,0,0-.375.816.845.845,0,0,0,.277.672A1.131,1.131,0,0,0,31.078-1.523Zm5.141-9.289v-1.375h3.5V-1.6l1.1.234V0H36.336V-1.367l1.1-.234v-8.977ZM50.313-7.078l-.789.117L46.414,1.266a4.541,4.541,0,0,1-.98,1.531,2.5,2.5,0,0,1-1.848.617,2.99,2.99,0,0,1-.543-.047q-.254-.047-.6-.133l.266-1.664.227.031a1.566,1.566,0,0,0,.2.016,1.256,1.256,0,0,0,.875-.277,1.83,1.83,0,0,0,.469-.691l.258-.641-2.68-6.961-.789-.125V-8.453h4.141v1.375l-.945.156,1.156,3.375.117.609.047.008,1.336-3.992-.953-.156V-8.453h4.141ZM54.4-10.523v2.07h1.484v1.6H54.4v4.3a1,1,0,0,0,.2.7.724.724,0,0,0,.547.211,3.765,3.765,0,0,0,.41-.02q.176-.02.395-.066l.2,1.648a5.476,5.476,0,0,1-.758.176,5.273,5.273,0,0,1-.812.059,2.431,2.431,0,0,1-1.816-.648,2.843,2.843,0,0,1-.637-2.055V-6.852H50.883v-1.6h1.242v-2.07ZM56.93-1.367l1.1-.234V-6.844l-1.219-.234V-8.453h3.5V-1.6l1.094.234V0H56.93Zm3.383-9.109H58.031v-1.711h2.281Zm5.813,8.891a1.344,1.344,0,0,0,.977-.355,1.26,1.26,0,0,0,.367-.949h2.063l.023.047A2.637,2.637,0,0,1,68.594-.7a3.627,3.627,0,0,1-2.469.863,3.626,3.626,0,0,1-2.914-1.2A4.554,4.554,0,0,1,62.188-4.1v-.234a4.5,4.5,0,0,1,1.051-3.07,3.765,3.765,0,0,1,3-1.2,5.2,5.2,0,0,1,1.836.3,3.627,3.627,0,0,1,1.352.859l.031,2.258H67.6l-.375-1.32a1.441,1.441,0,0,0-.422-.246,1.559,1.559,0,0,0-.57-.1,1.44,1.44,0,0,0-1.367.7,3.65,3.65,0,0,0-.4,1.813V-4.1a3.893,3.893,0,0,0,.367,1.824A1.333,1.333,0,0,0,66.125-1.586ZM77.484-5.547H75.953L75.711-6.6a2,2,0,0,0-.59-.312,2.353,2.353,0,0,0-.785-.125,1.529,1.529,0,0,0-.953.27.82.82,0,0,0-.352.676.769.769,0,0,0,.336.637,3.6,3.6,0,0,0,1.344.449,5.47,5.47,0,0,1,2.328.918A2.018,2.018,0,0,1,77.8-2.422a2.219,2.219,0,0,1-.98,1.863,4.249,4.249,0,0,1-2.582.723,5.405,5.405,0,0,1-1.793-.285,4.58,4.58,0,0,1-1.449-.816l-.023-1.9h1.594l.313,1.1a1.307,1.307,0,0,0,.555.254,3.222,3.222,0,0,0,.734.082,1.864,1.864,0,0,0,1.059-.25.784.784,0,0,0,.363-.68.8.8,0,0,0-.367-.648,3.749,3.749,0,0,0-1.352-.484,5.418,5.418,0,0,1-2.254-.9,1.959,1.959,0,0,1-.762-1.629,2.363,2.363,0,0,1,.875-1.832,3.656,3.656,0,0,1,2.492-.77,6.407,6.407,0,0,1,1.863.266,3.937,3.937,0,0,1,1.379.68Z" transform="translate(206 43)"/>
  </g>
</svg>
