<?xml version="1.0" encoding="utf-8"?>
<!-- Generator: Adobe Illustrator 25.0.0, SVG Export Plug-In . SVG Version: 6.00 Build 0)  -->
<svg version="1.1" xmlns="http://www.w3.org/2000/svg" xmlns:xlink="http://www.w3.org/1999/xlink" x="0px" y="0px"
	 viewBox="0 0 142.7 112.4" style="enable-background:new 0 0 142.7 112.4;" xml:space="preserve">
<style type="text/css">
	.st0{fill-rule:evenodd;clip-rule:evenodd;fill:#AAA9D4;}
	.st1{fill:#333366;}
	.st2{fill:#D62027;}
</style>
<g id="E">
	<g>
		<g>
			<path class="st0" d="M27.7,54.7l-5,23.7H72L66.4,95H0L20.1,0.1h68.5l-5.5,16.6H35.8l-4.5,21.5h43.4l-5.7,16.5H27.7z"/>
		</g>
	</g>
	<g>
		<g>
			<path class="st1" d="M27.7,54.7l-5,23.7H72L66.4,95H0L20.1,0.1h68.5l-5.5,16.6H35.8l-4.5,21.5h43.4l-5.7,16.5H27.7z"/>
		</g>
	</g>
</g>
<g id="A">
	<g>
		<path class="st2" d="M104.3,0.1h23.8l14.6,88.8v2c-0.1,0.8-0.6,1.7-1.4,2.6c-0.8,1-1.3,1.5-1.5,1.5H84L93,78.5h28.5l-8.8-55.2
			L73.5,95H53.2L104.3,0.1z"/>
	</g>
</g>
<g id="Enterprise_Analytics">
	<g>
		<g>
			<path class="st1" d="M-0.6,108.4v-1.3l1.1-0.2v-7.7L-0.6,99v-1.3h8.3v2.9H6L6,99.4H2.7v2.7h3.6v1.6H2.7v3h3.4l0.1-1.3h1.6v2.9
				H-0.6z"/>
			<path class="st1" d="M9,108.4v-1.3l1-0.2V102l-1.1-0.2v-1.3H12l0.1,1.1c0.3-0.4,0.6-0.7,1-0.9c0.4-0.2,0.8-0.3,1.3-0.3
				c0.8,0,1.4,0.3,1.8,0.8s0.7,1.3,0.7,2.4v3.4l1,0.2v1.3h-4.1v-1.3l0.9-0.2v-3.4c0-0.5-0.1-0.9-0.3-1.1c-0.2-0.2-0.5-0.3-0.9-0.3
				c-0.3,0-0.6,0.1-0.8,0.2c-0.2,0.1-0.4,0.3-0.6,0.6v4.2l0.9,0.2v1.3H9z"/>
			<path class="st1" d="M21,108.6c-0.7,0-1.3-0.2-1.7-0.6s-0.6-1-0.6-1.9v-4h-1.1v-1.5h1.1v-1.9h2.1v1.9h1.5v1.5h-1.5v4
				c0,0.3,0.1,0.5,0.2,0.7s0.3,0.2,0.5,0.2c0.1,0,0.2,0,0.4,0c0.1,0,0.2,0,0.3-0.1l0.2,1.5c-0.2,0.1-0.5,0.1-0.7,0.2
				C21.5,108.6,21.2,108.6,21,108.6z"/>
			<path class="st1" d="M27,108.6c-0.8,0-1.4-0.2-2-0.5c-0.6-0.3-1-0.8-1.3-1.4c-0.3-0.6-0.5-1.3-0.5-2v-0.3c0-0.8,0.1-1.5,0.4-2.1
				c0.3-0.6,0.7-1.1,1.2-1.4c0.5-0.3,1.2-0.5,1.9-0.5c0.7,0,1.3,0.1,1.8,0.4s0.9,0.7,1.1,1.2c0.3,0.5,0.4,1.2,0.4,1.9v1.2h-4.7l0,0
				c0,0.3,0.1,0.7,0.3,0.9c0.1,0.3,0.3,0.5,0.6,0.6c0.3,0.2,0.6,0.2,1,0.2c0.4,0,0.8-0.1,1.1-0.2c0.3-0.1,0.7-0.2,1-0.4l0.6,1.3
				c-0.3,0.3-0.7,0.5-1.2,0.7C28.2,108.5,27.7,108.6,27,108.6z M25.5,103.7h2.6v-0.2c0-0.3,0-0.6-0.1-0.8c-0.1-0.2-0.2-0.4-0.4-0.5
				s-0.4-0.2-0.7-0.2c-0.3,0-0.5,0.1-0.7,0.2c-0.2,0.1-0.3,0.4-0.5,0.6C25.6,103,25.5,103.3,25.5,103.7L25.5,103.7z"/>
			<path class="st1" d="M31.3,108.4v-1.3l1-0.2V102l-1.1-0.2v-1.3h3.1l0.1,1l0,0.2c0.2-0.4,0.4-0.8,0.7-1c0.3-0.2,0.6-0.3,1-0.3
				c0.1,0,0.3,0,0.4,0c0.2,0,0.3,0,0.4,0.1l-0.2,2l-1.1-0.1c-0.3,0-0.5,0-0.7,0.2s-0.4,0.3-0.5,0.5v3.9l1,0.2v1.3H31.3z"/>
			<path class="st1" d="M37.6,111.5v-1.3l1-0.2v-8l-1.1-0.2v-1.3h3.1l0.1,0.9c0.2-0.3,0.5-0.6,0.8-0.8s0.7-0.3,1.2-0.3
				c0.6,0,1.2,0.2,1.6,0.5c0.5,0.3,0.8,0.8,1,1.5c0.2,0.6,0.4,1.4,0.4,2.2v0.2c0,0.8-0.1,1.5-0.4,2c-0.2,0.6-0.6,1-1,1.4
				c-0.5,0.3-1,0.5-1.7,0.5c-0.4,0-0.8-0.1-1.1-0.2c-0.3-0.2-0.6-0.4-0.8-0.7v2.3l1,0.2v1.3H37.6z M42.1,106.9
				c0.5,0,0.9-0.2,1.2-0.6c0.2-0.4,0.4-1,0.4-1.6v-0.2c0-0.5-0.1-0.9-0.2-1.3c-0.1-0.4-0.3-0.7-0.5-0.9c-0.2-0.2-0.5-0.3-0.9-0.3
				c-0.3,0-0.6,0.1-0.8,0.2c-0.2,0.1-0.4,0.3-0.5,0.6v3.5c0.1,0.2,0.3,0.4,0.5,0.5C41.5,106.9,41.8,106.9,42.1,106.9z"/>
			<path class="st1" d="M46.9,108.4v-1.3l1-0.2V102l-1.1-0.2v-1.3h3.1l0.1,1l0,0.2c0.2-0.4,0.4-0.8,0.7-1c0.3-0.2,0.6-0.3,1-0.3
				c0.1,0,0.3,0,0.4,0c0.2,0,0.3,0,0.4,0.1l-0.2,2l-1.1-0.1c-0.3,0-0.5,0-0.7,0.2s-0.4,0.3-0.5,0.5v3.9l1,0.2v1.3H46.9z"/>
			<path class="st1" d="M53.1,108.4v-1.3l1-0.2V102l-1.1-0.2v-1.3h3.3v6.4l1,0.2v1.3H53.1z M54.1,98.8V97h2.2v1.8H54.1z"/>
			<path class="st1" d="M61.4,108.6c-0.6,0-1.1-0.1-1.7-0.2s-1-0.3-1.5-0.5l0-2.2h1.5l0.3,1.1c0.2,0.1,0.3,0.1,0.5,0.2
				c0.2,0,0.4,0.1,0.7,0.1c0.5,0,0.8-0.1,1-0.2c0.2-0.2,0.3-0.4,0.3-0.6c0-0.2-0.1-0.4-0.3-0.6c-0.2-0.2-0.6-0.3-1.2-0.4
				c-0.9-0.2-1.6-0.5-2.1-0.9s-0.7-0.9-0.7-1.6c0-0.4,0.1-0.8,0.3-1.2c0.2-0.4,0.6-0.7,1-0.9c0.5-0.2,1-0.3,1.8-0.3
				c0.6,0,1.1,0.1,1.6,0.2c0.5,0.1,0.9,0.3,1.2,0.5l0,2.2h-1.5l-0.2-1c-0.1-0.1-0.3-0.2-0.5-0.2s-0.4-0.1-0.6-0.1
				c-0.4,0-0.7,0.1-0.9,0.2s-0.3,0.3-0.3,0.6c0,0.1,0,0.3,0.1,0.4c0.1,0.1,0.2,0.2,0.4,0.3c0.2,0.1,0.5,0.2,0.9,0.3
				c1,0.2,1.7,0.5,2.1,0.9c0.4,0.4,0.7,0.9,0.7,1.6c0,0.7-0.3,1.3-0.8,1.8C63.3,108.3,62.5,108.6,61.4,108.6z"/>
			<path class="st1" d="M69.4,108.6c-0.8,0-1.4-0.2-2-0.5c-0.6-0.3-1-0.8-1.3-1.4c-0.3-0.6-0.5-1.3-0.5-2v-0.3
				c0-0.8,0.1-1.5,0.4-2.1c0.3-0.6,0.7-1.1,1.2-1.4c0.5-0.3,1.2-0.5,1.9-0.5c0.7,0,1.3,0.1,1.8,0.4s0.9,0.7,1.1,1.2
				c0.3,0.5,0.4,1.2,0.4,1.9v1.2h-4.7l0,0c0,0.3,0.1,0.7,0.3,0.9c0.1,0.3,0.3,0.5,0.6,0.6c0.3,0.2,0.6,0.2,1,0.2
				c0.4,0,0.8-0.1,1.1-0.2c0.3-0.1,0.7-0.2,1-0.4l0.6,1.3c-0.3,0.3-0.7,0.5-1.2,0.7C70.6,108.5,70.1,108.6,69.4,108.6z M67.9,103.7
				h2.6v-0.2c0-0.3,0-0.6-0.1-0.8c-0.1-0.2-0.2-0.4-0.4-0.5s-0.4-0.2-0.7-0.2c-0.3,0-0.5,0.1-0.7,0.2c-0.2,0.1-0.3,0.4-0.5,0.6
				C68,103,67.9,103.3,67.9,103.7L67.9,103.7z"/>
			<path class="st1" d="M77,108.4v-1.3l0.8-0.1l3.4-9.3h2.2l3.4,9.3l0.8,0.1v1.3h-3.6v-1.3l0.7-0.1l-0.5-1.5h-3.8l-0.5,1.5l0.7,0.1
				v1.3H77z M80.9,104h2.7l-1.2-3.7l-0.1-0.3h0l-0.1,0.3L80.9,104z"/>
			<path class="st1" d="M88.2,108.4v-1.3l1-0.2V102l-1.1-0.2v-1.3h3.1l0.1,1.1c0.3-0.4,0.6-0.7,1-0.9c0.4-0.2,0.8-0.3,1.3-0.3
				c0.8,0,1.4,0.3,1.8,0.8s0.7,1.3,0.7,2.4v3.4l1,0.2v1.3h-4.1v-1.3l0.9-0.2v-3.4c0-0.5-0.1-0.9-0.3-1.1c-0.2-0.2-0.5-0.3-0.9-0.3
				c-0.3,0-0.6,0.1-0.8,0.2c-0.2,0.1-0.4,0.3-0.6,0.6v4.2l0.9,0.2v1.3H88.2z"/>
			<path class="st1" d="M100.5,108.6c-0.8,0-1.4-0.2-1.9-0.6c-0.5-0.4-0.7-1-0.7-1.7c0-0.5,0.1-0.9,0.4-1.3c0.3-0.4,0.7-0.7,1.2-0.9
				c0.5-0.2,1.2-0.3,2-0.3h1v-0.6c0-0.4-0.1-0.7-0.3-0.9c-0.2-0.2-0.6-0.4-1-0.4c-0.2,0-0.4,0-0.6,0.1c-0.2,0.1-0.3,0.1-0.5,0.2
				l-0.2,1h-1.5l0-2.1c0.4-0.2,0.9-0.4,1.3-0.6s1-0.2,1.6-0.2c1,0,1.9,0.2,2.5,0.7c0.6,0.5,0.9,1.2,0.9,2.1v3.3c0,0.1,0,0.2,0,0.3
				c0,0.1,0,0.2,0,0.3l0.8,0.1v1.3h-2.7c-0.1-0.1-0.1-0.3-0.2-0.4s-0.1-0.3-0.1-0.5c-0.3,0.3-0.6,0.6-0.9,0.8
				C101.4,108.5,101,108.6,100.5,108.6z M101.1,107c0.3,0,0.6-0.1,0.8-0.2c0.3-0.1,0.5-0.3,0.6-0.5V105h-1.1c-0.5,0-0.8,0.1-1.1,0.3
				c-0.2,0.2-0.4,0.5-0.4,0.8c0,0.3,0.1,0.5,0.3,0.7C100.5,106.9,100.7,107,101.1,107z"/>
			<path class="st1" d="M106.2,108.4v-1.3l1-0.2v-8.4l-1.1-0.2V97h3.3v9.9l1,0.2v1.3H106.2z"/>
			<path class="st1" d="M112.1,111.6c-0.2,0-0.4,0-0.6,0c-0.2,0-0.4-0.1-0.6-0.1l0.2-1.6c0.1,0,0.2,0,0.3,0c0.1,0,0.2,0,0.3,0
				c0.3,0,0.6-0.1,0.8-0.2s0.4-0.4,0.5-0.7l0.2-0.5l-2.7-6.6l-1-0.1v-1.3h4.2v1.3l-1,0.1l1.2,3.5l0.2,0.4h0l1.5-3.9l-0.9-0.1v-1.3
				h3.9v1.3l-0.9,0.1l-3,7.7c-0.1,0.4-0.3,0.7-0.6,1c-0.2,0.3-0.5,0.5-0.9,0.7C113.1,111.5,112.7,111.6,112.1,111.6z"/>
			<path class="st1" d="M121.3,108.6c-0.7,0-1.3-0.2-1.7-0.6s-0.6-1-0.6-1.9v-4h-1.1v-1.5h1.1v-1.9h2.1v1.9h1.5v1.5h-1.5v4
				c0,0.3,0.1,0.5,0.2,0.7s0.3,0.2,0.5,0.2c0.1,0,0.2,0,0.4,0c0.1,0,0.2,0,0.3-0.1l0.2,1.5c-0.2,0.1-0.5,0.1-0.7,0.2
				C121.8,108.6,121.6,108.6,121.3,108.6z"/>
			<path class="st1" d="M123.4,108.4v-1.3l1-0.2V102l-1.1-0.2v-1.3h3.3v6.4l1,0.2v1.3H123.4z M124.3,98.8V97h2.2v1.8H124.3z"/>
			<path class="st1" d="M132,108.6c-0.8,0-1.4-0.2-2-0.5c-0.6-0.3-1-0.8-1.3-1.4c-0.3-0.6-0.4-1.3-0.4-2.1v-0.2
				c0-0.8,0.2-1.5,0.5-2.1s0.7-1.1,1.3-1.4c0.6-0.3,1.2-0.5,1.9-0.5c0.7,0,1.3,0.1,1.8,0.3c0.5,0.2,0.9,0.5,1.3,0.8l0,2.3h-1.6
				l-0.3-1.4c-0.1-0.1-0.3-0.2-0.4-0.3c-0.2-0.1-0.4-0.1-0.5-0.1c-0.4,0-0.7,0.1-1,0.3c-0.3,0.2-0.4,0.5-0.6,0.8s-0.2,0.8-0.2,1.3
				v0.2c0,0.5,0.1,1,0.2,1.3c0.1,0.3,0.3,0.6,0.6,0.8c0.2,0.2,0.5,0.2,0.8,0.2c0.4,0,0.7-0.1,0.9-0.3c0.2-0.2,0.4-0.5,0.5-0.8h1.8
				l0,0c-0.1,0.6-0.2,1-0.5,1.5c-0.2,0.4-0.6,0.7-1,0.9C133.3,108.5,132.7,108.6,132,108.6z"/>
			<path class="st1" d="M139.6,108.6c-0.6,0-1.1-0.1-1.7-0.2s-1-0.3-1.5-0.5l0-2.2h1.5l0.3,1.1c0.2,0.1,0.3,0.1,0.5,0.2
				c0.2,0,0.4,0.1,0.7,0.1c0.5,0,0.8-0.1,1-0.2c0.2-0.2,0.3-0.4,0.3-0.6c0-0.2-0.1-0.4-0.3-0.6c-0.2-0.2-0.6-0.3-1.2-0.4
				c-0.9-0.2-1.6-0.5-2.1-0.9s-0.7-0.9-0.7-1.6c0-0.4,0.1-0.8,0.3-1.2c0.2-0.4,0.6-0.7,1-0.9c0.5-0.2,1-0.3,1.8-0.3
				c0.6,0,1.1,0.1,1.6,0.2c0.5,0.1,0.9,0.3,1.2,0.5l0,2.2H141l-0.2-1c-0.1-0.1-0.3-0.2-0.5-0.2s-0.4-0.1-0.6-0.1
				c-0.4,0-0.7,0.1-0.9,0.2s-0.3,0.3-0.3,0.6c0,0.1,0,0.3,0.1,0.4c0.1,0.1,0.2,0.2,0.4,0.3c0.2,0.1,0.5,0.2,0.9,0.3
				c1,0.2,1.7,0.5,2.1,0.9c0.4,0.4,0.7,0.9,0.7,1.6c0,0.7-0.3,1.3-0.8,1.8C141.5,108.3,140.7,108.6,139.6,108.6z"/>
		</g>
	</g>
</g>
</svg>
