<svg xmlns="http://www.w3.org/2000/svg" width="147.616" height="84.891" viewBox="0 0 147.616 84.891">
  <g id="EANews2" transform="translate(-372 -709.504)">
    <path id="Path_1709" data-name="Path 1709" d="M25.585-22.75H21L17.675-7.28l-6.3-15.47H6.44L1.61,0H6.2L9.38-14.98,15.715,0h5.04ZM40.53-9.66,41.9-13.615H31.5l1.085-5.145h11.34l1.33-3.99H28.84L24.01,0H39.935l1.33-3.99H29.47l1.19-5.67ZM63.49,0,61.915-14.805,53.585,0H49.84L47.425-22.75h5.04L53.69-8.96l7.56-13.79h4.725l1.33,13.825L74.9-22.75h5.215L67.27,0ZM77.315,0l.84-3.99h9.31A1.91,1.91,0,0,0,89.53-5.565a1.9,1.9,0,0,0-.228-.823A6.183,6.183,0,0,0,88.9-7v.035l-6.755-6.86a3.376,3.376,0,0,1-.875-1.522,6.2,6.2,0,0,1-.245-1.628q0-.28.018-.455t.053-.35v-.07a6.254,6.254,0,0,1,1.05-2.555,5.441,5.441,0,0,1,1.662-1.5,5.983,5.983,0,0,1,1.943-.7,11.347,11.347,0,0,1,1.925-.175h9.94l-.84,4.025h-9.1a2.743,2.743,0,0,0-1.295.333q-.63.332-.7.718l-.105.35.035-.1v.14a1.444,1.444,0,0,0,.262.735,6.841,6.841,0,0,0,.7.91q.437.49,1.015,1.068T88.8-13.429q.91.875,1.855,1.838a24.245,24.245,0,0,1,1.733,1.96A10.423,10.423,0,0,1,93.66-7.595a4.929,4.929,0,0,1,.49,2.1q0,.245-.017.438a3.48,3.48,0,0,1-.052.367,8,8,0,0,1-.63,1.715,5.971,5.971,0,0,1-1.069,1.5A5.114,5.114,0,0,1,90.877-.4,4.351,4.351,0,0,1,89,0Z" transform="translate(422 763)" fill="#336"/>
    <path id="Path_17" data-name="Path 17" d="M82.447,84.891h0c.2-.147.4-.3.586-.453.119-.094.242-.192.365-.287l.131-.1.014-.011c.232-.177.471-.36.7-.544.833-.67,1.622-1.346,2.346-2.008.032-.028.064-.056.1-.082a1.152,1.152,0,0,0,.108-.094c.754-.7,1.53-1.476,2.375-2.373.158-.169.314-.345.466-.515l.213-.238c.563-.625,1.1-1.253,1.6-1.865l.134-.165c.182-.223.37-.455.551-.687.556-.713,1.1-1.459,1.675-2.28.052-.075.106-.149.158-.221l.2-.275c.607-.9,1.219-1.876,1.818-2.906.107-.184.211-.374.311-.558.052-.1.111-.2.169-.306.076-.137.155-.275.231-.409.172-.3.35-.616.514-.932l.317.181h0c.259.147.525.3.786.459l.284.174c.192.117.39.238.582.363.844.547,1.652,1.11,2.4,1.672.041.03.083.06.124.088a1.5,1.5,0,0,1,.134.1c.783.594,1.6,1.268,2.5,2.059.185.164.37.336.548.5h0l.211.2c.281.258.558.531.826.795h0l.188.184A44.316,44.316,0,0,1,95.074,81.37a45.048,45.048,0,0,1-12.628,3.521Zm-11.714-.006a45,45,0,0,1-12.625-3.518,44.3,44.3,0,0,1-11.035-7.013l.17-.167c.28-.275.569-.56.861-.83l.248-.231c.16-.149.324-.3.49-.448.9-.788,1.718-1.464,2.509-2.064.039-.03.079-.057.118-.084h0c.039-.027.08-.055.119-.085.761-.569,1.575-1.136,2.419-1.685.2-.133.416-.261.62-.385h.006l.239-.146c.274-.169.559-.332.835-.488l.272-.155c.163.315.339.625.51.926h0c.078.137.159.279.237.42.058.1.116.21.172.312.1.178.2.363.3.54.6,1.032,1.214,2.014,1.822,2.915.065.1.135.193.2.286.044.06.09.123.134.185.544.786,1.114,1.562,1.694,2.308.218.278.443.555.661.823l.01.012c.512.629,1.056,1.263,1.617,1.884l.237.264h0c.138.155.281.314.425.468.849.906,1.629,1.685,2.383,2.382l.09.079h0l.09.078c.721.662,1.5,1.325,2.367,2.027.21.169.427.335.638.5h.006l.192.147c.126.1.251.2.372.291.19.15.385.3.583.449Zm4.292-.724h0c-.084-.053-.172-.106-.256-.156h0l-.329-.2c-.321-.212-.658-.442-1.061-.724-.6-.416-1.134-.808-1.64-1.2-.328-.252-.679-.523-1.023-.8-.463-.377-.96-.8-1.562-1.338l-.174-.154-.009-.008c-.248-.219-.5-.446-.749-.678-.593-.56-1.156-1.139-1.58-1.582-.094-.1-.19-.195-.284-.289h0c-.155-.156-.315-.317-.466-.482-.784-.853-1.489-1.676-2.155-2.513a.753.753,0,0,1-.047-.064c-.643-.813-1.3-1.7-1.942-2.645-.133-.195-.263-.4-.387-.6-.071-.113-.145-.229-.219-.343-.393-.6-.81-1.254-1.208-1.933-.169-.289-.334-.589-.493-.879L59.3,67.31c-.208-.379-.411-.771-.607-1.15l-.011-.021.214-.106h0c.108-.054.221-.11.332-.162.234-.11.49-.227.806-.366.44-.194.913-.391,1.4-.586l.225-.09c.183-.073.372-.149.559-.219.464-.174.962-.348,1.566-.544L64,63.992h0c.139-.048.283-.1.426-.142.8-.249,1.536-.455,2.244-.632l.08-.017.07-.015c.693-.169,1.4-.324,2.112-.458.15-.027.3-.052.45-.076l.281-.046c.611-.1,1.108-.18,1.566-.239.275-.034.553-.065.822-.094h.033c.527-.056,1.013-.1,1.487-.134.276-.021.563-.039.88-.055.111-.006.224-.009.334-.011l.237-.007Zm3.135,0v-22.1l.238.007c.108,0,.221.005.331.011.328.017.617.035.882.055.442.03.914.073,1.486.134.292.032.578.063.859.1.523.068,1.036.151,1.559.238l.289.048c.148.024.3.049.45.078.717.135,1.423.289,2.1.455.033.008.066.015.1.021l.062.013c.742.187,1.5.4,2.242.632.127.04.255.084.378.126h0l.263.089c.617.2,1.115.375,1.566.546.2.073.393.152.583.229l.014,0,.185.075c.494.2.955.388,1.409.588.292.128.555.248.8.365.107.05.215.1.319.156h0c.073.038.15.075.225.111l-.065.126h0c-.179.346-.364.7-.555,1.049l-.086.157c-.176.322-.358.656-.547.977-.425.725-.875,1.421-1.22,1.948-.077.117-.153.238-.227.354h0c-.118.188-.241.381-.368.566-.667.974-1.312,1.852-1.97,2.685l-.006.008-.006.009c-.644.811-1.351,1.637-2.164,2.525-.15.163-.308.324-.46.478h0l-.277.283c-.43.448-1,1.034-1.591,1.592-.233.221-.477.437-.713.646h0l-.211.188c-.558.5-1.07.938-1.566,1.342-.341.278-.691.548-1.02.8-.544.416-1.1.819-1.641,1.2-.4.28-.737.51-1.06.722-.107.07-.219.137-.327.2-.086.051-.174.1-.26.159ZM44.849,72.289a43.438,43.438,0,0,1-6.155-7.671,41.6,41.6,0,0,1-4.152-8.691H51.559c.126.5.266,1.017.413,1.54.047.166.1.332.15.492h0c.032.1.064.2.1.306.238.793.429,1.4.619,1.958.079.232.165.463.247.687v.006l.109.3c.251.692.452,1.221.651,1.716.142.35.293.7.436,1.035.052.121.1.245.152.365h0c.072.176.147.357.225.534-.315.179-.628.375-.93.564h-.005c-.138.086-.28.176-.421.263l-.3.179h0c-.206.124-.421.252-.626.386-1.055.682-1.986,1.33-2.848,1.982-.038.028-.075.058-.11.088s-.059.05-.09.073c-.825.631-1.671,1.328-2.516,2.072-.192.169-.383.348-.568.52h0l-.278.259c-.126.116-.259.236-.377.342-.247.222-.5.452-.744.69Zm63.49,0h0c-.241-.237-.5-.466-.742-.687l-.373-.338-.232-.216c-.2-.19-.413-.386-.625-.572-.839-.738-1.678-1.429-2.494-2.053l-.1-.082c-.032-.027-.081-.068-.122-.1-.843-.638-1.772-1.285-2.84-1.977-.206-.134-.42-.263-.627-.386l-.316-.19-.375-.234h0c-.314-.2-.638-.4-.966-.587.072-.16.14-.326.206-.487.049-.119.1-.243.151-.364l.029-.067h0c.147-.343.3-.7.441-1.051.229-.568.44-1.139.616-1.623l.091-.247h0c.1-.269.2-.548.3-.827.217-.633.415-1.286.584-1.847.032-.1.065-.207.094-.3.062-.2.127-.4.185-.6.144-.51.281-1.021.407-1.519h17.016a41.62,41.62,0,0,1-4.152,8.691,43.444,43.444,0,0,1-6.151,7.667Zm-50.968-8.84h0l-.1-.222c-.065-.142-.131-.29-.194-.437-.141-.331-.287-.683-.435-1.048-.216-.538-.413-1.069-.576-1.517l-.087-.244c-.093-.257-.188-.523-.277-.785-.208-.611-.394-1.22-.532-1.683-.033-.109-.068-.221-.1-.321-.059-.192-.121-.39-.177-.588-.062-.221-.125-.449-.185-.677H75.025v3.158c-.124,0-.248.013-.369.021-.1.007-.2.014-.3.019-.3.015-.648.033-1,.059-.541.037-1.075.09-1.571.142l-.214.023c-.236.025-.481.051-.721.082-.531.069-1.1.156-1.725.264l-.267.043c-.156.025-.317.05-.474.079-.844.158-1.667.335-2.447.527l-.052.015c-.027.008-.054.016-.08.022-.765.193-1.529.408-2.271.639-.153.047-.307.1-.456.15l-.289.1c-.485.161-1.058.354-1.635.572-.294.109-.586.225-.857.335-.544.216-1.035.421-1.5.626-.273.12-.56.25-.879.4-.086.04-.173.078-.257.115h0q-.15.064-.3.135Zm38.442,0h0c-.1-.049-.208-.1-.309-.14-.081-.035-.164-.072-.246-.11-.254-.119-.536-.246-.886-.4-.473-.208-.972-.416-1.484-.619-.239-.1-.554-.222-.872-.341-.582-.218-1.168-.415-1.612-.563l-.277-.093c-.16-.054-.325-.11-.49-.161-.733-.228-1.482-.439-2.227-.627l-.091-.024h0l-.083-.022c-.788-.2-1.609-.373-2.442-.527-.164-.031-.332-.057-.494-.083l-.258-.041c-.635-.107-1.169-.193-1.715-.263-.289-.038-.585-.068-.871-.1l-.067-.007c-.572-.062-1.085-.108-1.568-.142-.336-.026-.676-.044-1-.059l-.263-.017h0c-.131-.009-.266-.019-.4-.023V55.928H98.476c-.062.235-.125.463-.187.679s-.12.407-.181.6h0c-.029.094-.059.191-.088.287-.2.668-.372,1.21-.54,1.706-.094.278-.2.559-.294.83l-.061.169c-.2.56-.4,1.068-.59,1.552-.133.334-.269.657-.419,1.014-.056.133-.117.266-.175.4h0c-.041.091-.084.186-.125.279Zm25.015-19.127h0v-.4h.016c-.006.135-.011.269-.017.4Zm.012-3.35h-.012V40.65C120.828,40.759,120.837,40.866,120.84,40.972ZM118.7,29.131H101.66c-.168-.684-.312-1.235-.453-1.735-.064-.223-.135-.448-.2-.666-.041-.131-.084-.267-.125-.4-.161-.528-.336-1.1-.529-1.664-.1-.284-.2-.568-.3-.843l-.11-.3c-.167-.455-.367-.993-.586-1.539-.156-.386-.317-.762-.482-1.146-.047-.109-.093-.221-.137-.33-.066-.16-.133-.325-.2-.484.31-.175.617-.368.913-.554l.445-.277.3-.193q.3-.178.6-.369c1.052-.679,1.986-1.329,2.855-1.988l.08-.065.08-.065c.837-.64,1.7-1.348,2.555-2.1.188-.165.375-.34.555-.508h0l.28-.26c.126-.116.254-.231.378-.343.249-.225.507-.456.751-.7a43.434,43.434,0,0,1,6.2,7.745A41.6,41.6,0,0,1,118.7,29.131Zm-20.176,0H78.159V25.807c.124,0,.249-.013.37-.021.1-.007.2-.014.3-.019.365-.018.691-.038,1-.059.455-.032.937-.075,1.562-.142l.2-.021H81.6c.243-.026.494-.052.74-.084.493-.063,1.013-.143,1.689-.258l.261-.042c.17-.027.346-.054.518-.087.853-.161,1.647-.332,2.428-.524l.124-.034.123-.034c.749-.191,1.474-.4,2.155-.607.185-.056.371-.12.55-.181l.249-.084c.614-.2,1.115-.377,1.576-.549.275-.1.555-.214.826-.321l.072-.029c.5-.2,1-.406,1.461-.611.335-.147.629-.279.9-.4.084-.039.169-.077.252-.113q.15-.064.3-.135c.04.09.081.181.121.269h0c.063.137.127.279.188.42.153.36.288.685.412.992.193.481.387.993.6,1.565l.024.067h0c.11.3.225.612.331.921.169.5.335,1.023.54,1.712l.093.3h0c.059.19.12.386.176.582.077.276.155.562.23.85Zm-23.5,0H54.663c.077-.293.154-.579.231-.851.054-.194.115-.389.174-.578h0c.03-.1.061-.2.091-.3.158-.522.343-1.129.544-1.72.1-.308.218-.618.327-.918l.026-.072c.181-.5.378-1.028.592-1.559.121-.3.254-.623.418-1.01.062-.146.128-.292.193-.433.035-.076.074-.163.111-.246.1.049.208.1.309.14l.238.106c.312.145.615.281.9.406.452.2.931.4,1.466.613l.138.055.014,0c.242.1.491.2.738.288.576.216,1.15.409,1.586.552l.271.091h0c.17.058.346.118.52.171.7.217,1.432.423,2.175.613l.106.029.119.033c.769.19,1.565.362,2.433.525.155.029.314.054.467.079h0l.305.05c.5.084,1.088.18,1.694.258.239.031.481.056.715.082l.232.025c.568.061,1.079.108,1.562.142.318.023.654.042,1,.059.1,0,.2.012.294.019h0c.121.008.246.017.369.021V29.13Zm-23.511,0H34.485a41.581,41.581,0,0,1,4.16-8.782,43.4,43.4,0,0,1,6.2-7.745c.236.232.484.455.724.671.131.118.267.24.4.363l.248.232c.193.181.394.368.6.545.86.756,1.719,1.464,2.552,2.1.032.024.062.049.091.074s.048.04.072.059c.863.654,1.8,1.3,2.857,1.988.2.131.413.257.618.379h0l.289.174c.15.092.3.188.45.281h0c.3.188.606.38.916.556-.077.173-.15.351-.222.524h0c-.05.123-.1.249-.156.373v.009c-.144.337-.293.685-.434,1.031-.2.5-.406,1.041-.647,1.7l-.106.289c-.086.234-.175.476-.257.716-.224.653-.426,1.312-.61,1.927-.033.109-.067.218-.1.324h0c-.052.164-.1.334-.153.5-.165.584-.318,1.157-.454,1.7Zm23.512-6.3h0l-.237-.007c-.108,0-.22,0-.33-.011-.29-.015-.58-.033-.889-.056-.472-.034-.955-.078-1.478-.134h0c-.283-.03-.575-.062-.863-.1-.559-.072-1.119-.164-1.545-.236l-.288-.047c-.154-.024-.312-.049-.467-.079-.654-.123-1.338-.271-2.033-.44l-.113-.025-.117-.026c-.713-.178-1.442-.383-2.225-.626-.143-.044-.287-.094-.427-.142h0l-.269-.091c-.444-.147-.97-.324-1.509-.525-.24-.09-.483-.188-.718-.281l-.111-.045c-.5-.2-.938-.382-1.348-.563-.251-.11-.524-.234-.858-.39-.107-.05-.214-.1-.318-.154l-.2-.1.066-.127c.178-.343.361-.7.551-1.04l.133-.242h0c.163-.3.332-.607.507-.9.4-.676.817-1.331,1.211-1.937.073-.113.146-.228.217-.34.124-.2.253-.4.386-.594.641-.938,1.3-1.83,1.948-2.653l.021-.027h0l.014-.019c.661-.832,1.389-1.68,2.16-2.521.153-.168.315-.331.472-.489.093-.094.188-.19.281-.287.49-.509,1.02-1.053,1.574-1.576.226-.214.462-.423.69-.624h0l.244-.217c.568-.507,1.077-.944,1.556-1.333.344-.281.692-.549,1.028-.807.533-.407,1.083-.808,1.634-1.192.31-.217.68-.473,1.068-.725.114-.075.234-.147.35-.216.077-.046.157-.094.234-.143Zm3.137,0h0V.732c.087.055.177.109.264.162h0c.1.062.209.126.312.192.375.247.75.507,1.08.736h0c.554.385,1.1.782,1.618,1.18.334.255.69.531,1.04.817.476.387.983.822,1.549,1.327l.238.212c.232.206.472.418.7.636.57.539,1.12,1.1,1.582,1.584l.275.281h0c.156.157.316.319.468.486a47.351,47.351,0,0,1,4.15,5.23c.126.184.247.375.364.563.071.113.144.228.218.342.349.534.8,1.241,1.232,1.97.17.288.334.587.492.876v0l.129.235c.167.3.329.613.485.914h0l.141.272-.2.1c-.109.054-.22.11-.331.161-.335.156-.594.273-.839.379-.426.188-.886.38-1.366.572l-.238.095c-.189.075-.384.153-.578.225-.456.171-.954.344-1.522.53l-.274.093h0c-.133.046-.271.094-.408.136-.766.239-1.516.45-2.229.628-.04.01-.081.019-.121.027h0l-.1.023c-.683.166-1.369.314-2.036.44-.16.03-.323.056-.481.082h0l-.274.045c-.6.1-1.088.176-1.543.236-.268.034-.542.064-.808.093h0l-.056.006c-.484.053-.981.1-1.476.133-.308.023-.622.041-.889.056-.1,0-.211.008-.315.01l-.25.009ZM55.98,17.312h0l-.325-.186c-.255-.146-.519-.3-.774-.453l-.217-.132c-.215-.131-.438-.266-.654-.407-.893-.58-1.7-1.139-2.454-1.71-.028-.021-.057-.041-.086-.061s-.076-.053-.113-.081c-.791-.6-1.614-1.279-2.516-2.072-.162-.141-.321-.291-.476-.436-.083-.078-.169-.159-.255-.237-.276-.255-.55-.524-.816-.784h0l-.218-.213A44.3,44.3,0,0,1,58.108,3.525,45.068,45.068,0,0,1,70.738,0c-.206.15-.411.311-.608.466-.116.092-.236.187-.357.278l-.2.154h-.006c-.206.158-.418.321-.622.486-.857.689-1.63,1.35-2.361,2.022l-.079.068h0a1.132,1.132,0,0,0-.109.1c-.761.7-1.539,1.482-2.378,2.378-.162.174-.324.355-.479.529h0l-.194.217c-.553.613-1.092,1.242-1.6,1.869l-.077.094c-.2.246-.408.5-.608.756-.573.737-1.138,1.5-1.678,2.283-.054.079-.113.158-.167.234s-.125.171-.184.258c-.615.911-1.211,1.863-1.82,2.91-.1.169-.194.344-.287.513-.062.113-.125.228-.189.342-.078.14-.158.281-.236.419h0c-.171.3-.347.612-.511.926Zm41.227,0h0c-.164-.316-.342-.629-.513-.931h0c-.077-.135-.156-.275-.233-.414-.056-.1-.113-.2-.167-.3h0c-.1-.181-.2-.369-.307-.551-.628-1.075-1.224-2.027-1.82-2.91-.061-.09-.126-.18-.19-.266h0c-.051-.07-.1-.143-.155-.215-.531-.767-1.1-1.54-1.687-2.3-.227-.291-.465-.583-.676-.841C90.94,7.942,90.4,7.31,89.843,6.7l-.206-.231h0c-.148-.166-.3-.338-.457-.5-.865-.919-1.645-1.7-2.383-2.382-.028-.026-.058-.052-.087-.077h0c-.026-.022-.053-.045-.078-.069C85.9,2.767,85.117,2.1,84.247,1.4c-.223-.178-.452-.354-.674-.525L83.42.751c-.129-.1-.259-.2-.384-.3C82.845.3,82.649.145,82.451,0A45.083,45.083,0,0,1,95.078,3.523a44.308,44.308,0,0,1,11.034,7.013l-.241.236-.007.007c-.255.25-.518.509-.784.753-.094.087-.19.176-.281.263-.147.138-.3.28-.452.414-.893.786-1.714,1.462-2.51,2.067-.041.031-.083.06-.123.088a1.185,1.185,0,0,0-.1.074c-.758.569-1.574,1.137-2.425,1.689-.211.136-.429.269-.64.4h-.007l-.232.142c-.256.157-.52.308-.776.454h-.006l-.312.179Z" transform="translate(382.548 709.504)" fill="#212529"/>
    <path id="E" d="M11.809,158.458l-2.042,9.728H30l-2.282,6.845H.4L8.687,136H36.849l-2.282,6.845H15.112l-1.861,8.827H31.084l-2.342,6.785Z" transform="translate(371.6 596.397)" fill="#336" fill-rule="evenodd"/>
    <path id="A" d="M132.857,136h9.788l6,36.509v.841a2.193,2.193,0,0,1-.57,1.081q-.511.6-.631.6H124.51l3.723-6.785h11.709l-3.6-22.7-16.153,29.483H111.84Z" transform="translate(281.072 596.397)" fill="#d61515" fill-rule="evenodd"/>
  </g>
</svg>
