<svg xmlns="http://www.w3.org/2000/svg" viewBox="0 0 129.278 35.81">
  <defs>
    <style>
      .cls-1 {
        fill: #707070;
        opacity: 0.561;
      }

      .cls-2 {
        fill: #949090;
        opacity: 0.553;
      }

      .cls-3 {
        fill: #336;
      }
    </style>
  </defs>
  <g id="Group_1484" data-name="Group 1484" transform="translate(-497.097 -498.19)">
    <path id="Path_1697" data-name="Path 1697" class="cls-1" d="M599.128,449.5H506.1V455h93.031Z" transform="translate(-9 70.248)"/>
    <path id="Path_1696" data-name="Path 1696" class="cls-2" d="M599.128,449.5H506.1V455h93.031Z" transform="translate(-9 58.248)"/>
    <path id="Path_1698" data-name="Path 1698" class="cls-3" d="M32.812-17.5a7.818,7.818,0,0,1,2.8.615,8.063,8.063,0,0,1,2.6,1.572,2.931,2.931,0,0,1,1.162,2.187,2.931,2.931,0,0,1-1.162,2.187,8.063,8.063,0,0,1-2.6,1.572,7.818,7.818,0,0,1-2.8.615H25.019L17.842,3.828a1.071,1.071,0,0,1-.957.547H12.373a.982.982,0,0,1-.854-.444,1.049,1.049,0,0,1-.171-.923L14.7-8.75H7.656L4.717-4.785a1.1,1.1,0,0,1-.889.41H1.094a1.008,1.008,0,0,1-.854-.41A1.272,1.272,0,0,1,0-5.742l2.187-7.383L0-20.508a1.272,1.272,0,0,1,.239-.957,1.008,1.008,0,0,1,.854-.41H3.828a1.1,1.1,0,0,1,.889.41L7.656-17.5H14.7l-3.35-11.758a1.049,1.049,0,0,1,.171-.923.982.982,0,0,1,.854-.444h4.512a1.071,1.071,0,0,1,.957.547L25.019-17.5Z" transform="translate(587 529.625)"/>
    <path id="Path_1699" data-name="Path 1699" class="cls-3" d="M11.858-8.82v-4.165h9.506a.86.86,0,0,0,.833-.637l.686-6.86a.588.588,0,0,0-.637-.637H11.858V-24.99H24.647a.734.734,0,0,0,.784-.735v-7.4a.76.76,0,0,0-.784-.686H2.352a.62.62,0,0,0-.686.686V-.735c.1.343.441.735.784.735H25.235a.747.747,0,0,0,.735-.686v-7.5a.707.707,0,0,0-.735-.637ZM27.636-33.81a.747.747,0,0,0-.686.735v7.4a.7.7,0,0,0,.686.686H35.77v24.3A.747.747,0,0,0,36.505,0h8.673a.7.7,0,0,0,.686-.686v-24.3h7.3a.832.832,0,0,0,.784-.686l.735-7.448A.641.641,0,0,0,54-33.81Zm44.786.637a1.482,1.482,0,0,0-1.176-.637h-10a1.482,1.482,0,0,0-1.176.637L49-.637A.442.442,0,0,0,49.441,0h9.7a1.143,1.143,0,0,0,1.029-.637l1.47-5.145h9.212l1.47,5.145A1.143,1.143,0,0,0,73.353,0h9.7A.442.442,0,0,0,83.5-.637ZM68.894-12.789H63.6l2.646-9.31Z" transform="translate(501 532)"/>
  </g>
</svg>
