<svg xmlns="http://www.w3.org/2000/svg" width="176.301" height="91.231" viewBox="0 0 176.301 91.231">
  <g id="Group_1491" data-name="Group 1491" transform="translate(-913.391 -295.743)">
    <path id="Path_1705" data-name="Path 1705" d="M28.3,0H20.385L12.059-21.988,8.23,0H.048L6.077-34.836h7.991l8.3,21.988,3.8-21.988h8.183ZM57.23-14.762H44.43l-1.459,8.3H58.116L56.991,0H33.664l6.029-34.836H63.068l-1.125,6.484H46.775l-1.292,7.345H58.307Zm31.678,1.675,7.273-21.749h8.278L91.827,0h-8.47L81.946-19.739,74.433,0h-8.47L64.217-34.836h7.967l.479,21.653,7.991-21.653h6.962Zm32.3,3.661q.526-2.7-2.919-4.187l-3.924-1.627q-8.254-3.708-7.848-10.1a8.913,8.913,0,0,1,2.01-5.2,11.937,11.937,0,0,1,5.1-3.553,18.753,18.753,0,0,1,7.106-1.22,12.084,12.084,0,0,1,8.314,3.015,10.016,10.016,0,0,1,3.1,7.824h-8.135a4.874,4.874,0,0,0-.849-3.218,3.679,3.679,0,0,0-3.027-1.256,6.342,6.342,0,0,0-3.637.957,3.883,3.883,0,0,0-1.866,2.7q-.455,2.393,3.553,3.924a39.07,39.07,0,0,1,5.826,2.632q5.718,3.421,5.359,9.235a9.457,9.457,0,0,1-1.938,5.288,11.2,11.2,0,0,1-4.845,3.517,17.9,17.9,0,0,1-6.95,1.2,16.779,16.779,0,0,1-5.24-.885,11.529,11.529,0,0,1-4.139-2.44,10.6,10.6,0,0,1-3.35-8.494l8.207.024a5.619,5.619,0,0,0,1.029,4.055,4.942,4.942,0,0,0,3.948,1.376,5.924,5.924,0,0,0,3.433-.945A3.924,3.924,0,0,0,121.208-9.427Z" transform="translate(957.3 359)" fill="#336" stroke="#336" stroke-width="0.5"/>
    <path id="Path_1707" data-name="Path 1707" d="M27.918-15.39H12.1L9.882-5.184H28.728L26.946,0H2.7l7.452-35.1H35.1l-1.782,5.184H15.174l-2,9.4H29.7Z" transform="translate(911 359)" fill="#336" stroke="#336" stroke-width="0.5"/>
    <path id="Path_1706" data-name="Path 1706" d="M1.08,0,20.034-35.1h8.208L33.8-1.62v.54a2.605,2.605,0,0,1-.27.675Q33.318,0,33.264,0H12.906l2.808-5.13H26.946L23.22-28.674,7.452,0Z" transform="translate(931 359)" fill="#d61515" stroke="#336" stroke-width="0.5"/>
    <path id="Path_1703" data-name="Path 1703" d="M-11.212,187.627a41.561,41.561,0,0,0-11.209,4.936,45.061,45.061,0,0,0,6,2.2A27.977,27.977,0,0,1-11.212,187.627Zm-2.439,7.876a71.159,71.159,0,0,0,14.98,1.771V185.761a55.283,55.283,0,0,0-7.369.732A23.767,23.767,0,0,0-13.651,195.5Zm-3.529,14.477H1.328V199.388a75.93,75.93,0,0,1-15.9-1.9A34.754,34.754,0,0,0-17.18,209.981Zm-.173-13.237a47.789,47.789,0,0,1-7.248-2.681c-5.622,4.239-9.185,9.789-9.548,15.906h13.89A35.941,35.941,0,0,1-17.353,196.743Zm45.51-4.18a42.177,42.177,0,0,0-11.209-4.936,28.184,28.184,0,0,1,5.207,7.132A45.061,45.061,0,0,0,28.157,192.563Zm-2.18,17.418h13.89c-.363-6.117-3.927-11.655-9.548-15.906a48.368,48.368,0,0,1-7.248,2.681A35.157,35.157,0,0,1,25.977,209.981Zm-14.2-23.487a55.283,55.283,0,0,0-7.369-.732v11.525a73.042,73.042,0,0,0,14.98-1.771A23.718,23.718,0,0,0,11.776,186.493ZM20.3,197.5a75.931,75.931,0,0,1-15.9,1.9v10.592H22.916A34.647,34.647,0,0,0,20.3,197.5Z" transform="translate(997.149 109.982)" fill="#4a4a4a"/>
    <path id="Path_1704" data-name="Path 1704" d="M-11.212,187.627a41.561,41.561,0,0,0-11.209,4.936,45.061,45.061,0,0,0,6,2.2A27.977,27.977,0,0,1-11.212,187.627Zm-2.439,7.876a71.159,71.159,0,0,0,14.98,1.771V185.761a55.283,55.283,0,0,0-7.369.732A23.767,23.767,0,0,0-13.651,195.5Zm-3.529,14.477H1.328V199.388a75.93,75.93,0,0,1-15.9-1.9A34.754,34.754,0,0,0-17.18,209.981Zm-.173-13.237a47.789,47.789,0,0,1-7.248-2.681c-5.622,4.239-9.185,9.789-9.548,15.906h13.89A35.941,35.941,0,0,1-17.353,196.743Zm45.51-4.18a42.177,42.177,0,0,0-11.209-4.936,28.183,28.183,0,0,1,5.207,7.132A45.06,45.06,0,0,0,28.157,192.563Zm-2.18,17.418h13.89c-.363-6.117-3.927-11.655-9.548-15.906a48.368,48.368,0,0,1-7.248,2.681A35.157,35.157,0,0,1,25.977,209.981Zm-14.2-23.487a55.283,55.283,0,0,0-7.369-.732v11.525a73.042,73.042,0,0,0,14.98-1.771A23.718,23.718,0,0,0,11.776,186.493ZM20.3,197.5a75.931,75.931,0,0,1-15.9,1.9v10.592H22.916A34.647,34.647,0,0,0,20.3,197.5Z" transform="translate(1002.867 572.735) rotate(180)" fill="#4a4a4a"/>
  </g>
</svg>
