<svg xmlns="http://www.w3.org/2000/svg" width="193" height="44" viewBox="0 0 193 44">
  <g id="Group_1493" data-name="Group 1493" transform="translate(-796 -510)">
    <g id="Rectangle_1" data-name="Rectangle 1" transform="translate(796 510)" fill="none" stroke="#336" stroke-width="3">
      <rect width="193" height="44" stroke="none"/>
      <rect x="1.5" y="1.5" width="190" height="41" fill="none"/>
    </g>
    <g id="Group_1492" data-name="Group 1492" transform="translate(0.3 0.316)">
      <path id="Path_1705" data-name="Path 1705" d="M28.3,0H20.385L12.059-21.988,8.23,0H.048L6.077-34.836h7.991l8.3,21.988,3.8-21.988h8.183ZM57.23-14.762H44.43l-1.459,8.3H58.116L56.991,0H33.664l6.029-34.836H63.068l-1.125,6.484H46.775l-1.292,7.345H58.307Zm31.678,1.675,7.273-21.749h8.278L91.827,0h-8.47L81.946-19.739,74.433,0h-8.47L64.217-34.836h7.967l.479,21.653,7.991-21.653h6.962Zm32.3,3.661q.526-2.7-2.919-4.187l-3.924-1.627q-8.254-3.708-7.848-10.1a8.913,8.913,0,0,1,2.01-5.2,11.937,11.937,0,0,1,5.1-3.553,18.753,18.753,0,0,1,7.106-1.22,12.084,12.084,0,0,1,8.314,3.015,10.016,10.016,0,0,1,3.1,7.824h-8.135a4.874,4.874,0,0,0-.849-3.218,3.679,3.679,0,0,0-3.027-1.256,6.342,6.342,0,0,0-3.637.957,3.883,3.883,0,0,0-1.866,2.7q-.455,2.393,3.553,3.924a39.07,39.07,0,0,1,5.826,2.632q5.718,3.421,5.359,9.235a9.457,9.457,0,0,1-1.938,5.288,11.2,11.2,0,0,1-4.845,3.517,17.9,17.9,0,0,1-6.95,1.2,16.779,16.779,0,0,1-5.24-.885,11.529,11.529,0,0,1-4.139-2.44,10.6,10.6,0,0,1-3.35-8.494l8.207.024a5.619,5.619,0,0,0,1.029,4.055,4.942,4.942,0,0,0,3.948,1.376,5.924,5.924,0,0,0,3.433-.945A3.924,3.924,0,0,0,121.208-9.427Z" transform="translate(848.3 549)" fill="#336" stroke="#336" stroke-width="0.5"/>
      <path id="Path_1707" data-name="Path 1707" d="M27.918-15.39H12.1L9.882-5.184H28.728L26.946,0H2.7l7.452-35.1H35.1l-1.782,5.184H15.174l-2,9.4H29.7Z" transform="translate(802 549)" fill="#336" stroke="#336" stroke-width="0.5"/>
      <path id="Path_1706" data-name="Path 1706" d="M1.08,0,20.034-35.1h8.208L33.8-1.62v.54a2.605,2.605,0,0,1-.27.675Q33.318,0,33.264,0H12.906l2.808-5.13H26.946L23.22-28.674,7.452,0Z" transform="translate(822 549)" fill="#d61515" stroke="#336" stroke-width="0.5"/>
    </g>
    <path id="Path_1708" data-name="Path 1708" d="M812.885,511.938" fill="none" stroke="#707070" stroke-width="1"/>
  </g>
</svg>
