<svg xmlns="http://www.w3.org/2000/svg" width="83.618" height="35.28" viewBox="0 0 83.618 35.28">
  <g id="SVweb" transform="translate(-612.978 -365)">
    <path id="Path_1694" data-name="Path 1694" d="M23.618-33.81a1.018,1.018,0,0,0-.931.686L17.542-12.985,12.4-33.124a1.018,1.018,0,0,0-.931-.686H.539a.491.491,0,0,0-.44.2.491.491,0,0,0-.05.482L11.27-.686A1.007,1.007,0,0,0,12.152,0h10.78a1.007,1.007,0,0,0,.882-.686L35.035-33.124a.491.491,0,0,0-.05-.482.491.491,0,0,0-.44-.2Z" transform="translate(630 399.81)" fill="#212529" opacity="0.672"/>
    <path id="Path_1693" data-name="Path 1693" d="M1.372-3.381c-.147.245,0,.588.392.882C4.214-.539,8.526.735,12.642.735c7.546,0,12.593-4.361,12.593-10.878,0-10.78-13.867-10.584-13.867-13.475,0-1.078.98-1.764,2.5-1.764a19.761,19.761,0,0,1,6.909,2.548c.392.245.735.1.882-.392l3.087-6.909c.147-.245,0-.637-.392-.882a21.234,21.234,0,0,0-10.976-3.528c-7.448,0-12.4,4.361-12.4,10.927,0,10.682,13.769,10.535,13.769,13.426,0,1.127-1.029,1.862-2.6,1.862a18.533,18.533,0,0,1-6.811-2.352c-.392-.245-.735-.1-.882.392Z" transform="translate(612 399.545)" fill="#212529" opacity="0.857"/>
    <path id="Path_1695" data-name="Path 1695" d="M4.6-5.871l.247,2.356h.076l.266-2.394L7.505-13.3h1.71L11.5-5.871l.266,2.356h.076l.285-2.394,1.61-7.391h2.641L12.711.095H10.963L8.588-7.3,8.265-9.329h-.1L7.847-7.277,5.491.095H3.648L0-13.3H2.831ZM24.054-.817a4.834,4.834,0,0,1-1.549.77,6.779,6.779,0,0,1-2.081.314,4.036,4.036,0,0,1-3.363-1.34A5.759,5.759,0,0,1,16-4.75a5.261,5.261,0,0,1,1.2-3.762,4.428,4.428,0,0,1,3.363-1.254,5.229,5.229,0,0,1,1.406.19,3.272,3.272,0,0,1,1.216.627,3.085,3.085,0,0,1,.855,1.178,4.619,4.619,0,0,1,.323,1.843,8.28,8.28,0,0,1-.047.855q-.048.456-.143.95h-5.7a2.784,2.784,0,0,0,.618,1.8A2.367,2.367,0,0,0,20.9-1.71a3.867,3.867,0,0,0,1.4-.237,3.866,3.866,0,0,0,.94-.485ZM20.52-7.79a1.73,1.73,0,0,0-1.434.579,2.865,2.865,0,0,0-.561,1.549h3.534a2.392,2.392,0,0,0-.313-1.577A1.4,1.4,0,0,0,20.52-7.79Zm5.586-5.51h2.47v4.56h.076a2.779,2.779,0,0,1,1.026-.722,3.516,3.516,0,0,1,1.387-.266,3.1,3.1,0,0,1,2.613,1.169A5.8,5.8,0,0,1,34.58-5a5.449,5.449,0,0,1-1.264,3.9A4.554,4.554,0,0,1,29.849.228a11.464,11.464,0,0,1-2.223-.2,6.671,6.671,0,0,1-1.52-.446Zm4.237,5.662a1.693,1.693,0,0,0-1.111.352,2.2,2.2,0,0,0-.656,1.016v4.142a2.268,2.268,0,0,0,.656.209,4.691,4.691,0,0,0,.75.057,1.761,1.761,0,0,0,1.53-.732,4.066,4.066,0,0,0,.522-2.327Q32.034-7.638,30.343-7.638Z" transform="translate(662 399.3)" fill="#336" opacity="0.869"/>
  </g>
</svg>
